G05
M48
INCH,TZ
FMAT,2
T1C000.02362
T2C000.02400
T3C000.03500
T4C000.03543
T5C000.03937
T6C000.11811
%
T001
X0.96354Y0.73238
X0.96354Y1.26387
X1.27457Y0.32490
X1.27457Y0.75403
X1.29819Y0.86033
X1.29819Y1.27372
X1.53520Y1.72647
X1.53520Y2.32883
X2.16433Y0.68710
X2.16433Y1.21702
X2.29819Y1.51702
X2.30250Y1.86820
X2.35724Y1.41702
X2.47535Y1.01702
X2.47535Y1.51712
X2.66496Y0.51781
X2.66496Y1.18710
X3.21591Y0.25876
X3.67750Y0.10876
X3.67750Y1.66820
X3.95250Y1.66820
X3.95250Y2.26820
X3.97750Y0.38080
X3.97750Y0.98080
X4.05250Y1.25009
X4.05250Y2.36820
T002
X1.76591Y0.25876
X1.76591Y1.25876
X2.75250Y1.08199
X3.21591Y1.08080
X3.46591Y1.30876
X3.46591Y2.33376
T003
X1.11709Y0.43238
X1.11709Y0.53238
X1.11709Y0.63238
X1.11709Y0.73238
X1.12024Y1.51929
X1.12024Y1.61929
X1.12890Y0.96387
X1.12890Y1.06387
X1.12890Y1.16387
X1.12890Y1.26387
X4.22632Y1.86624
X4.22632Y1.96624
X4.22632Y2.06624
X4.22632Y2.16624
X4.22750Y0.58671
X4.22750Y0.68671
X4.22750Y0.78671
X4.22750Y0.88671
T004
X2.01709Y0.81702
X2.01709Y0.91702
X2.01709Y1.01702
X2.01709Y1.11702
X2.01709Y1.21702
X2.01709Y1.31702
X2.01709Y1.41702
X2.01709Y1.51702
X2.91709Y0.81702
X2.91709Y0.91702
X2.91709Y1.01702
X2.91709Y1.11702
X2.91709Y1.21702
X2.91709Y1.31702
X2.91709Y1.41702
X2.91709Y1.51702
X3.33701Y1.66820
X3.33701Y1.76820
X3.33701Y1.86820
X3.33701Y1.96820
X3.33701Y2.06820
X3.33701Y2.16820
X3.33701Y2.26820
X3.33701Y2.36820
X3.34488Y0.38080
X3.34488Y0.48080
X3.34488Y0.58080
X3.34488Y0.68080
X3.34488Y0.78080
X3.34488Y0.88080
X3.34488Y0.98080
X3.34488Y1.08080
X3.83701Y1.66820
X3.83701Y1.76820
X3.83701Y1.86820
X3.83701Y1.96820
X3.83701Y2.06820
X3.83701Y2.16820
X3.83701Y2.26820
X3.83701Y2.36820
X3.84488Y0.38080
X3.84488Y0.48080
X3.84488Y0.58080
X3.84488Y0.68080
X3.84488Y0.78080
X3.84488Y0.88080
X3.84488Y0.98080
X3.84488Y1.08080
T005
X1.57750Y1.58199
X1.67750Y1.58199
X1.77750Y1.58199
T006
X1.06591Y0.15954
X1.06591Y2.45876
X4.25250Y0.15954
X4.25250Y2.45876
M30
