G04 DesignSpark PCB Gerber Version 9.0 Build 5138 *
G04 #@! TF.Part,Single*
G04 #@! TF.FileFunction,Copper,L1,Top *
G04 #@! TF.FilePolarity,Positive *
%FSLAX35Y35*%
%MOIN*%
G04 #@! TA.AperFunction,ComponentPad*
%AMT19*0 Octagon Pad at angle 0*4,1,8,-0.01631,-0.03937,0.01631,-0.03937,0.03937,-0.01631,0.03937,0.01631,0.01631,0.03937,-0.01631,0.03937,-0.03937,0.01631,-0.03937,-0.01631,-0.01631,-0.03937,0*%
%ADD19T19*%
%AMT25*0 Rounded Rectangle Pad at angle 0*4,1,64,-0.00787,-0.05512,0.00787,-0.05512,0.01076,-0.05497,0.01361,-0.05452,0.01639,-0.05377,0.01909,-0.05273,0.02166,-0.05142,0.02407,-0.04985,0.02631,-0.04804,0.02835,-0.04600,0.03017,-0.04376,0.03174,-0.04134,0.03305,-0.03877,0.03409,-0.03607,0.03483,-0.03329,0.03529,-0.03044,0.03543,-0.02756,0.03543,0.02756,0.03528,0.03044,0.03483,0.03329,0.03408,0.03608,0.03305,0.03877,0.03174,0.04134,0.03017,0.04376,0.02835,0.04600,0.02631,0.04804,0.02407,0.04985,0.02165,0.05143,0.01908,0.05274,0.01639,0.05377,0.01360,0.05452,0.01075,0.05497,0.00787,0.05512,-0.00787,0.05512,-0.01076,0.05497,-0.01361,0.05452,-0.01639,0.05377,-0.01909,0.05273,-0.02166,0.05142,-0.02407,0.04985,-0.02631,0.04804,-0.02835,0.04600,-0.03017,0.04376,-0.03174,0.04134,-0.03305,0.03877,-0.03409,0.03607,-0.03483,0.03329,-0.03529,0.03044,-0.03543,0.02756,-0.03543,-0.02756,-0.03528,-0.03044,-0.03483,-0.03329,-0.03408,-0.03608,-0.03305,-0.03877,-0.03174,-0.04134,-0.03017,-0.04376,-0.02835,-0.04600,-0.02631,-0.04804,-0.02407,-0.04985,-0.02165,-0.05143,-0.01908,-0.05274,-0.01639,-0.05377,-0.01360,-0.05452,-0.01075,-0.05497,-0.00787,-0.05512,0*%
%ADD25T25*%
%ADD16R,0.07087X0.11024*%
%ADD18R,0.07874X0.07874*%
G04 #@! TD.AperFunction*
%ADD70C,0.01200*%
%ADD11C,0.03150*%
%ADD10C,0.05000*%
G04 #@! TA.AperFunction,ViaPad*
%ADD12C,0.05906*%
%ADD13C,0.06299*%
G04 #@! TA.AperFunction,ComponentPad*
%AMT24*0 Rounded Rectangle Pad at angle 90*4,1,64,0.05906,-0.00787,0.05906,0.00787,0.05891,0.01076,0.05845,0.01361,0.05770,0.01639,0.05667,0.01909,0.05536,0.02166,0.05379,0.02407,0.05197,0.02631,0.04993,0.02835,0.04769,0.03017,0.04528,0.03174,0.04270,0.03305,0.04001,0.03409,0.03722,0.03483,0.03437,0.03529,0.03150,0.03543,-0.03150,0.03543,-0.03438,0.03528,-0.03723,0.03483,-0.04002,0.03408,-0.04271,0.03305,-0.04528,0.03174,-0.04770,0.03017,-0.04994,0.02835,-0.05198,0.02631,-0.05379,0.02407,-0.05536,0.02165,-0.05667,0.01908,-0.05771,0.01639,-0.05846,0.01360,-0.05891,0.01075,-0.05906,0.00787,-0.05906,-0.00787,-0.05891,-0.01076,-0.05845,-0.01361,-0.05770,-0.01639,-0.05667,-0.01909,-0.05536,-0.02166,-0.05379,-0.02407,-0.05197,-0.02631,-0.04993,-0.02835,-0.04769,-0.03017,-0.04528,-0.03174,-0.04270,-0.03305,-0.04001,-0.03409,-0.03722,-0.03483,-0.03437,-0.03529,-0.03150,-0.03543,0.03150,-0.03543,0.03438,-0.03528,0.03723,-0.03483,0.04002,-0.03408,0.04271,-0.03305,0.04528,-0.03174,0.04770,-0.03017,0.04994,-0.02835,0.05198,-0.02631,0.05379,-0.02407,0.05536,-0.02165,0.05667,-0.01908,0.05771,-0.01639,0.05846,-0.01360,0.05891,-0.01075,0.05906,-0.00787,0*%
%ADD24T24*%
%ADD14R,0.11811X0.07087*%
X0Y0D02*
D02*
D10*
X153520Y172647D02*
Y232883D01*
X229819Y151702D02*
Y186820D01*
X230250*
X367750Y10876D02*
X235331D01*
X235724Y80915*
Y141702*
X367750Y166820D02*
Y10876D01*
X395250Y226820D02*
Y166820D01*
X397750Y98080D02*
Y38080D01*
X405250Y125009D02*
Y236820D01*
D02*
D11*
X96354Y73238D02*
Y126387D01*
X127457Y32490D02*
Y75403D01*
X129819Y86033D02*
Y127372D01*
X176591Y125876D02*
Y25876D01*
X216433Y68710D02*
Y121702D01*
X247535Y101702D02*
Y151712D01*
X266496Y51781D02*
Y118710D01*
X275250Y108199D02*
Y166820D01*
X333701*
X321591Y25876D02*
Y108080D01*
X346591Y130876D02*
Y233376D01*
D02*
D12*
X96354Y73238D03*
Y126387D03*
X127457Y32490D03*
Y75403D03*
X129819Y86033D03*
Y127372D03*
X153520Y172647D03*
Y232883D03*
X176591Y25876D03*
Y125876D03*
X216433Y68710D03*
Y121702D03*
X229819Y151702D03*
X230250Y186820D03*
X235724Y141702D03*
X247535Y101702D03*
Y151712D03*
X266496Y51781D03*
Y118710D03*
X275250Y108199D03*
X321591Y25876D03*
X346591Y130876D03*
Y233376D03*
X367750Y10876D03*
Y166820D03*
X395250D03*
Y226820D03*
X397750Y38080D03*
Y98080D03*
X405250Y125009D03*
Y236820D03*
D02*
D13*
X321591Y108080D03*
D02*
D14*
X201709Y151702D03*
X333701Y236820D03*
X334488Y108080D03*
D02*
D16*
X157750Y158199D03*
D02*
D18*
X111709Y73238D03*
X112024Y161929D03*
X112890Y126387D03*
X422632Y186624D03*
X422750Y58671D03*
D02*
D19*
X111709Y43238D03*
Y53238D03*
Y63238D03*
X112024Y151929D03*
X112890Y96387D03*
Y106387D03*
Y116387D03*
X422632Y196624D03*
Y206624D03*
Y216624D03*
X422750Y68671D03*
Y78671D03*
Y88671D03*
D02*
D70*
X83756Y600D02*
X440250D01*
Y261230*
X83756*
Y600*
D02*
D24*
X201709Y81702D03*
Y91702D03*
Y101702D03*
Y111702D03*
Y121702D03*
Y131702D03*
Y141702D03*
X291709Y81702D03*
Y91702D03*
Y101702D03*
Y111702D03*
Y121702D03*
Y131702D03*
Y141702D03*
Y151702D03*
X333701Y166820D03*
Y176820D03*
Y186820D03*
Y196820D03*
Y206820D03*
Y216820D03*
Y226820D03*
X334488Y38080D03*
Y48080D03*
Y58080D03*
Y68080D03*
Y78080D03*
Y88080D03*
Y98080D03*
X383701Y166820D03*
Y176820D03*
Y186820D03*
Y196820D03*
Y206820D03*
Y216820D03*
Y226820D03*
Y236820D03*
X384488Y38080D03*
Y48080D03*
Y58080D03*
Y68080D03*
Y78080D03*
Y88080D03*
Y98080D03*
Y108080D03*
D02*
D25*
X167750Y158199D03*
X177750D03*
X0Y0D02*
M02*
