G04 DesignSpark PCB Gerber Version 9.0 Build 5138 *
G04 #@! TF.Part,Single*
G04 #@! TF.FileFunction,Copper,L1,Top *
G04 #@! TF.FilePolarity,Positive *
%FSLAX35Y35*%
%MOIN*%
G04 #@! TA.AperFunction,SMDPad,CuDef*
%ADD28R,0.03543X0.03937*%
%ADD21R,0.05500X0.06000*%
G04 #@! TD.AperFunction*
%ADD27C,0.01181*%
%ADD11C,0.03150*%
%ADD26C,0.04724*%
G04 #@! TA.AperFunction,ComponentPad*
%ADD72O,0.13780X0.06299*%
%ADD29R,0.13780X0.06299*%
X0Y0D02*
D02*
D11*
X11742Y18415D02*
X20404D01*
X37726D02*
X29065D01*
X84193Y49852D02*
Y40572D01*
X88720Y58513D02*
X116700D01*
X116791Y58422*
X93641Y49852D02*
X115361D01*
X116791Y48422*
X137589Y18206D02*
X137333Y17950D01*
X145994D02*
X137333D01*
X163317D02*
X154656D01*
D02*
D21*
X11742Y9415D03*
Y18415D03*
X20404Y9415D03*
Y18415D03*
X24990Y31572D03*
Y40572D03*
X29065Y9415D03*
Y18415D03*
X37726Y9415D03*
Y18415D03*
X39163Y31572D03*
Y40572D03*
X137333Y8950D03*
Y17950D03*
X137589Y31572D03*
Y40572D03*
X145994Y8950D03*
Y17950D03*
X149400Y30784D03*
Y39784D03*
X154656Y8950D03*
Y17950D03*
X163317Y8950D03*
Y17950D03*
D02*
D26*
X11742Y9415D02*
X20404D01*
X24990Y31572D02*
Y30135D01*
X20404Y25548*
Y18415*
X29065Y9415D02*
X37726D01*
X29065D02*
X20404D01*
X37726D02*
X114044D01*
X116988Y12359*
X39163Y31572D02*
Y27379D01*
X37726Y25942*
Y18415*
X39163Y40572D02*
X84193D01*
X39163D02*
X24990D01*
X84193D02*
X103736D01*
X105768Y38540*
X116673*
X116791Y38422*
X116988Y12359D02*
X116791Y12556D01*
Y28422*
X137333Y8950D02*
X120398D01*
X116988Y12359*
X137589Y31572D02*
Y18206D01*
Y40572D02*
X131933D01*
X129783Y38422*
X116791*
X145994Y8950D02*
X137333D01*
X145994D02*
X154656D01*
X149400Y30784D02*
X154587D01*
Y23206*
X154656Y23137*
Y17950*
X149400Y39784D02*
X143563D01*
Y40572*
X137589*
X163317Y8950D02*
X154656D01*
D02*
D27*
X78996Y25905D02*
Y22155D01*
X82121*
X83996D02*
Y25905D01*
X87121*
X86496Y24030D02*
X83996D01*
Y22155D02*
X87121D01*
X88996D02*
Y25905D01*
X90871*
X91496Y25593*
X91809Y25280*
X92121Y24655*
Y23405*
X91809Y22780*
X91496Y22467*
X90871Y22155*
X88996*
X99309Y22467D02*
X99933Y22155D01*
X100559*
X101183Y22467*
X101496Y23093*
Y24967*
X101183Y25593*
X100559Y25905*
X99933*
X99309Y25593*
X98996Y24967*
Y23093*
X99309Y22467*
X101183Y25593*
X103996Y25905D02*
X105559Y22155D01*
X107121Y25905*
X92776Y33491D02*
X93401Y33178D01*
X94338*
X94963Y33491*
X95276Y34116*
Y34428*
X94963Y35054*
X94338Y35366*
X92776*
Y36928*
X95276*
X97776D02*
X99338Y33178D01*
X100901Y36928*
X131277Y56326D02*
X131902Y56013D01*
X132527*
X133152Y56326*
X133465Y56951*
Y58826*
X133152Y59451*
X132527Y59763*
X131902*
X131277Y59451*
X130965Y58826*
Y56951*
X131277Y56326*
X133152Y59451*
X135965Y59763D02*
X137527Y56013D01*
X139090Y59763*
D02*
D28*
X84193Y49852D03*
X88720Y58513D03*
X93641Y49852D03*
D02*
D29*
X116791Y58422D03*
D02*
D72*
Y28422D03*
Y38422D03*
Y48422D03*
X0Y0D02*
M02*
