  0
SECTION
  2
BLOCKS
  0
ENDSEC
  0
SECTION
  2
ENTITIES
  0
LINE
  8
0
 10
0.226532
 20
114.075
 11
0.418457
 21
114.118
  0
LINE
  8
0
 10
0.418457
 20
114.118
 11
0.592529
 21
114.188
  0
LINE
  8
0
 10
0.592529
 20
114.188
 11
0.748779
 21
114.287
  0
LINE
  8
0
 10
0.748779
 20
114.287
 11
0.887207
 21
114.414
  0
LINE
  8
0
 10
0.887207
 20
114.414
 11
1.00778
 21
114.57
  0
LINE
  8
0
 10
1.00778
 20
114.57
 11
1.11046
 21
114.752
  0
LINE
  8
0
 10
1.11046
 20
114.752
 11
1.19446
 21
114.96
  0
LINE
  8
0
 10
1.19446
 20
114.96
 11
1.25978
 21
115.193
  0
LINE
  8
0
 10
1.25978
 20
115.193
 11
1.30646
 21
115.452
  0
LINE
  8
0
 10
1.30646
 20
115.452
 11
1.33446
 21
115.736
  0
LINE
  8
0
 10
1.33446
 20
115.736
 11
1.34378
 21
116.045
  0
LINE
  8
0
 10
1.34378
 20
116.045
 11
1.3349
 21
116.359
  0
LINE
  8
0
 10
1.3349
 20
116.359
 11
1.30823
 21
116.646
  0
LINE
  8
0
 10
1.30823
 20
116.646
 11
1.26378
 21
116.907
  0
LINE
  8
0
 10
1.26378
 20
116.907
 11
1.20157
 21
117.141
  0
LINE
  8
0
 10
1.20157
 20
117.141
 11
1.12157
 21
117.348
  0
LINE
  8
0
 10
1.12157
 20
117.348
 11
1.02379
 21
117.528
  0
LINE
  8
0
 10
1.02379
 20
117.528
 11
0.907654
 21
117.681
  0
LINE
  8
0
 10
0.907654
 20
117.681
 11
0.771896
 21
117.806
  0
LINE
  8
0
 10
0.771896
 20
117.806
 11
0.616531
 21
117.904
  0
LINE
  8
0
 10
0.616531
 20
117.904
 11
0.441559
 21
117.973
  0
LINE
  8
0
 10
0.441559
 20
117.973
 11
0.246979
 21
118.015
  0
LINE
  8
0
 10
0.246979
 20
118.015
 11
0.0327911
 21
118.029
  0
LINE
  8
0
 10
0.0327911
 20
118.029
 11
-0.186905
 21
118.015
  0
LINE
  8
0
 10
-0.186905
 20
118.015
 11
-0.386078
 21
117.974
  0
LINE
  8
0
 10
-0.386078
 20
117.974
 11
-0.564682
 21
117.905
  0
LINE
  8
0
 10
-0.564682
 20
117.905
 11
-0.722733
 21
117.809
  0
LINE
  8
0
 10
-0.722733
 20
117.809
 11
-0.860245
 21
117.685
  0
LINE
  8
0
 10
-0.860245
 20
117.685
 11
-0.977188
 21
117.533
  0
LINE
  8
0
 10
-0.977188
 20
117.533
 11
-1.07466
 21
117.354
  0
LINE
  8
0
 10
-1.07466
 20
117.354
 11
-1.1544
 21
117.148
  0
LINE
  8
0
 10
-1.1544
 20
117.148
 11
-1.21643
 21
116.913
  0
LINE
  8
0
 10
-1.21643
 20
116.913
 11
-1.26074
 21
116.652
  0
LINE
  8
0
 10
-1.26074
 20
116.652
 11
-1.28732
 21
116.362
  0
LINE
  8
0
 10
-1.28732
 20
116.362
 11
-1.29619
 21
116.045
  0
LINE
  8
0
 10
-1.29619
 20
116.045
 11
-1.28705
 21
115.734
  0
LINE
  8
0
 10
-1.28705
 20
115.734
 11
-1.25963
 21
115.449
  0
LINE
  8
0
 10
-1.25963
 20
115.449
 11
-1.21393
 21
115.19
  0
LINE
  8
0
 10
-1.21393
 20
115.19
 11
-1.14996
 21
114.957
  0
LINE
  8
0
 10
-1.14996
 20
114.957
 11
-1.06772
 21
114.749
  0
LINE
  8
0
 10
-1.06772
 20
114.749
 11
-0.967178
 21
114.567
  0
LINE
  8
0
 10
-0.967178
 20
114.567
 11
-0.848465
 21
114.412
  0
LINE
  8
0
 10
-0.848465
 20
114.412
 11
-0.711624
 21
114.286
  0
LINE
  8
0
 10
-0.711624
 20
114.286
 11
-0.556686
 21
114.188
  0
LINE
  8
0
 10
-0.556686
 20
114.188
 11
-0.383621
 21
114.117
  0
LINE
  8
0
 10
-0.383621
 20
114.117
 11
-0.192459
 21
114.075
  0
LINE
  8
0
 10
-0.192459
 20
114.075
 11
0.0167847
 21
114.061
  0
LINE
  8
0
 10
0.0167847
 20
114.061
 11
0.226532
 21
114.075
  0
LINE
  8
0
 10
-0.114075
 20
114.472
 11
-0.238068
 21
114.503
  0
LINE
  8
0
 10
-0.238068
 20
114.503
 11
-0.349182
 21
114.556
  0
LINE
  8
0
 10
-0.349182
 20
114.556
 11
-0.447403
 21
114.63
  0
LINE
  8
0
 10
-0.447403
 20
114.63
 11
-0.532745
 21
114.726
  0
LINE
  8
0
 10
-0.532745
 20
114.726
 11
-0.605179
 21
114.842
  0
LINE
  8
0
 10
-0.605179
 20
114.842
 11
-0.665375
 21
114.981
  0
LINE
  8
0
 10
-0.665375
 20
114.981
 11
-0.71463
 21
115.145
  0
LINE
  8
0
 10
-0.71463
 20
115.145
 11
-0.75293
 21
115.333
  0
LINE
  8
0
 10
-0.75293
 20
115.333
 11
-0.780289
 21
115.546
  0
LINE
  8
0
 10
-0.780289
 20
115.546
 11
-0.796707
 21
115.783
  0
LINE
  8
0
 10
-0.796707
 20
115.783
 11
-0.802185
 21
116.045
  0
LINE
  8
0
 10
-0.802185
 20
116.045
 11
-0.796799
 21
116.314
  0
LINE
  8
0
 10
-0.796799
 20
116.314
 11
-0.780624
 21
116.557
  0
LINE
  8
0
 10
-0.780624
 20
116.557
 11
-0.753677
 21
116.773
  0
LINE
  8
0
 10
-0.753677
 20
116.773
 11
-0.715958
 21
116.962
  0
LINE
  8
0
 10
-0.715958
 20
116.962
 11
-0.667465
 21
117.125
  0
LINE
  8
0
 10
-0.667465
 20
117.125
 11
-0.608185
 21
117.262
  0
LINE
  8
0
 10
-0.608185
 20
117.262
 11
-0.536209
 21
117.375
  0
LINE
  8
0
 10
-0.536209
 20
117.375
 11
-0.450302
 21
117.468
  0
LINE
  8
0
 10
-0.450302
 20
117.468
 11
-0.350433
 21
117.539
  0
LINE
  8
0
 10
-0.350433
 20
117.539
 11
-0.236633
 21
117.591
  0
LINE
  8
0
 10
-0.236633
 20
117.591
 11
-0.108871
 21
117.622
  0
LINE
  8
0
 10
-0.108871
 20
117.622
 11
0.0327911
 21
117.632
  0
LINE
  8
0
 10
0.0327911
 20
117.632
 11
0.170959
 21
117.622
  0
LINE
  8
0
 10
0.170959
 20
117.622
 11
0.295456
 21
117.59
  0
LINE
  8
0
 10
0.295456
 20
117.59
 11
0.406281
 21
117.538
  0
LINE
  8
0
 10
0.406281
 20
117.538
 11
0.503448
 21
117.465
  0
LINE
  8
0
 10
0.503448
 20
117.465
 11
0.586945
 21
117.371
  0
LINE
  8
0
 10
0.586945
 20
117.371
 11
0.656784
 21
117.256
  0
LINE
  8
0
 10
0.656784
 20
117.256
 11
0.714844
 21
117.118
  0
LINE
  8
0
 10
0.714844
 20
117.118
 11
0.762344
 21
116.955
  0
LINE
  8
0
 10
0.762344
 20
116.955
 11
0.799286
 21
116.766
  0
LINE
  8
0
 10
0.799286
 20
116.766
 11
0.825668
 21
116.551
  0
LINE
  8
0
 10
0.825668
 20
116.551
 11
0.841507
 21
116.311
  0
LINE
  8
0
 10
0.841507
 20
116.311
 11
0.846786
 21
116.045
  0
LINE
  8
0
 10
0.846786
 20
116.045
 11
0.841263
 21
115.788
  0
LINE
  8
0
 10
0.841263
 20
115.788
 11
0.824677
 21
115.554
  0
LINE
  8
0
 10
0.824677
 20
115.554
 11
0.797043
 21
115.343
  0
LINE
  8
0
 10
0.797043
 20
115.343
 11
0.758347
 21
115.156
  0
LINE
  8
0
 10
0.758347
 20
115.156
 11
0.708588
 21
114.991
  0
LINE
  8
0
 10
0.708588
 20
114.991
 11
0.647781
 21
114.85
  0
LINE
  8
0
 10
0.647781
 20
114.85
 11
0.575424
 21
114.731
  0
LINE
  8
0
 10
0.575424
 20
114.731
 11
0.490341
 21
114.634
  0
LINE
  8
0
 10
0.490341
 20
114.634
 11
0.392532
 21
114.558
  0
LINE
  8
0
 10
0.392532
 20
114.558
 11
0.282013
 21
114.504
  0
LINE
  8
0
 10
0.282013
 20
114.504
 11
0.158752
 21
114.472
  0
LINE
  8
0
 10
0.158752
 20
114.472
 11
0.0227814
 21
114.461
  0
LINE
  8
0
 10
0.0227814
 20
114.461
 11
-0.114075
 21
114.472
  0
LINE
  8
0
 10
-10.6346
 20
113.636
 11
-10.6781
 21
114.05
  0
LINE
  8
0
 10
-10.6781
 20
114.05
 11
-11.606
 21
113.952
  0
LINE
  8
0
 10
-11.606
 20
113.952
 11
-11.9639
 21
117.357
  0
LINE
  8
0
 10
-11.9639
 20
117.357
 11
-12.4124
 21
117.31
  0
LINE
  8
0
 10
-12.4124
 20
117.31
 11
-13.247
 21
116.593
  0
LINE
  8
0
 10
-13.247
 20
116.593
 11
-13.1988
 21
116.134
  0
LINE
  8
0
 10
-13.1988
 20
116.134
 11
-12.4043
 21
116.84
  0
LINE
  8
0
 10
-12.4043
 20
116.84
 11
-12.0953
 21
113.901
  0
LINE
  8
0
 10
-12.0953
 20
113.901
 11
-13.066
 21
113.799
  0
LINE
  8
0
 10
-13.066
 20
113.799
 11
-13.0225
 21
113.385
  0
LINE
  8
0
 10
-13.0225
 20
113.385
 11
-10.6346
 21
113.636
  0
LINE
  8
0
 10
-22.4677
 20
111.867
 11
-22.5541
 21
112.274
  0
LINE
  8
0
 10
-22.5541
 20
112.274
 11
-24.4889
 21
111.863
  0
LINE
  8
0
 10
-24.4889
 20
111.863
 11
-24.473
 21
111.932
  0
LINE
  8
0
 10
-24.473
 20
111.932
 11
-24.4518
 21
112.002
  0
LINE
  8
0
 10
-24.4518
 20
112.002
 11
-24.4252
 21
112.075
  0
LINE
  8
0
 10
-24.4252
 20
112.075
 11
-24.3932
 21
112.15
  0
LINE
  8
0
 10
-24.3932
 20
112.15
 11
-24.3559
 21
112.227
  0
LINE
  8
0
 10
-24.3559
 20
112.227
 11
-24.3132
 21
112.306
  0
LINE
  8
0
 10
-24.3132
 20
112.306
 11
-24.2648
 21
112.388
  0
LINE
  8
0
 10
-24.2648
 20
112.388
 11
-24.21
 21
112.474
  0
LINE
  8
0
 10
-24.21
 20
112.474
 11
-24.149
 21
112.565
  0
LINE
  8
0
 10
-24.149
 20
112.565
 11
-24.0817
 21
112.66
  0
LINE
  8
0
 10
-24.0817
 20
112.66
 11
-24.0081
 21
112.758
  0
LINE
  8
0
 10
-24.0081
 20
112.758
 11
-23.7854
 21
113.043
  0
LINE
  8
0
 10
-23.7854
 20
113.043
 11
-23.6595
 21
113.207
  0
LINE
  8
0
 10
-23.6595
 20
113.207
 11
-23.5506
 21
113.354
  0
LINE
  8
0
 10
-23.5506
 20
113.354
 11
-23.4586
 21
113.484
  0
LINE
  8
0
 10
-23.4586
 20
113.484
 11
-23.3836
 21
113.596
  0
LINE
  8
0
 10
-23.3836
 20
113.596
 11
-23.3255
 21
113.691
  0
LINE
  8
0
 10
-23.3255
 20
113.691
 11
-23.2786
 21
113.776
  0
LINE
  8
0
 10
-23.2786
 20
113.776
 11
-23.237
 21
113.86
  0
LINE
  8
0
 10
-23.237
 20
113.86
 11
-23.2008
 21
113.943
  0
LINE
  8
0
 10
-23.2008
 20
113.943
 11
-23.1698
 21
114.025
  0
LINE
  8
0
 10
-23.1698
 20
114.025
 11
-23.1442
 21
114.106
  0
LINE
  8
0
 10
-23.1442
 20
114.106
 11
-23.124
 21
114.185
  0
LINE
  8
0
 10
-23.124
 20
114.185
 11
-23.1092
 21
114.264
  0
LINE
  8
0
 10
-23.1092
 20
114.264
 11
-23.0999
 21
114.342
  0
LINE
  8
0
 10
-23.0999
 20
114.342
 11
-23.0961
 21
114.419
  0
LINE
  8
0
 10
-23.0961
 20
114.419
 11
-23.0979
 21
114.494
  0
LINE
  8
0
 10
-23.0979
 20
114.494
 11
-23.1051
 21
114.569
  0
LINE
  8
0
 10
-23.1051
 20
114.569
 11
-23.1179
 21
114.642
  0
LINE
  8
0
 10
-23.1179
 20
114.642
 11
-23.16
 21
114.799
  0
LINE
  8
0
 10
-23.16
 20
114.799
 11
-23.2162
 21
114.94
  0
LINE
  8
0
 10
-23.2162
 20
114.94
 11
-23.2865
 21
115.064
  0
LINE
  8
0
 10
-23.2865
 20
115.064
 11
-23.3709
 21
115.172
  0
LINE
  8
0
 10
-23.3709
 20
115.172
 11
-23.4694
 21
115.264
  0
LINE
  8
0
 10
-23.4694
 20
115.264
 11
-23.5821
 21
115.34
  0
LINE
  8
0
 10
-23.5821
 20
115.34
 11
-23.7075
 21
115.399
  0
LINE
  8
0
 10
-23.7075
 20
115.399
 11
-23.8442
 21
115.441
  0
LINE
  8
0
 10
-23.8442
 20
115.441
 11
-23.9921
 21
115.464
  0
LINE
  8
0
 10
-23.9921
 20
115.464
 11
-24.1511
 21
115.469
  0
LINE
  8
0
 10
-24.1511
 20
115.469
 11
-24.3215
 21
115.456
  0
LINE
  8
0
 10
-24.3215
 20
115.456
 11
-24.503
 21
115.426
  0
LINE
  8
0
 10
-24.503
 20
115.426
 11
-24.6671
 21
115.383
  0
LINE
  8
0
 10
-24.6671
 20
115.383
 11
-24.8176
 21
115.328
  0
LINE
  8
0
 10
-24.8176
 20
115.328
 11
-24.9547
 21
115.26
  0
LINE
  8
0
 10
-24.9547
 20
115.26
 11
-25.0782
 21
115.18
  0
LINE
  8
0
 10
-25.0782
 20
115.18
 11
-25.1882
 21
115.087
  0
LINE
  8
0
 10
-25.1882
 20
115.087
 11
-25.2847
 21
114.981
  0
LINE
  8
0
 10
-25.2847
 20
114.981
 11
-25.3658
 21
114.866
  0
LINE
  8
0
 10
-25.3658
 20
114.866
 11
-25.4295
 21
114.744
  0
LINE
  8
0
 10
-25.4295
 20
114.744
 11
-25.4759
 21
114.615
  0
LINE
  8
0
 10
-25.4759
 20
114.615
 11
-25.5049
 21
114.478
  0
LINE
  8
0
 10
-25.5049
 20
114.478
 11
-25.5167
 21
114.335
  0
LINE
  8
0
 10
-25.5167
 20
114.335
 11
-25.511
 21
114.185
  0
LINE
  8
0
 10
-25.511
 20
114.185
 11
-25.0124
 21
114.244
  0
LINE
  8
0
 10
-25.0124
 20
114.244
 11
-25.0171
 21
114.344
  0
LINE
  8
0
 10
-25.0171
 20
114.344
 11
-25.0112
 21
114.438
  0
LINE
  8
0
 10
-25.0112
 20
114.438
 11
-24.9947
 21
114.527
  0
LINE
  8
0
 10
-24.9947
 20
114.527
 11
-24.9677
 21
114.611
  0
LINE
  8
0
 10
-24.9677
 20
114.611
 11
-24.9301
 21
114.688
  0
LINE
  8
0
 10
-24.9301
 20
114.688
 11
-24.8819
 21
114.76
  0
LINE
  8
0
 10
-24.8819
 20
114.76
 11
-24.8246
 21
114.826
  0
LINE
  8
0
 10
-24.8246
 20
114.826
 11
-24.7594
 21
114.883
  0
LINE
  8
0
 10
-24.7594
 20
114.883
 11
-24.6864
 21
114.932
  0
LINE
  8
0
 10
-24.6864
 20
114.932
 11
-24.6055
 21
114.974
  0
LINE
  8
0
 10
-24.6055
 20
114.974
 11
-24.5169
 21
115.007
  0
LINE
  8
0
 10
-24.5169
 20
115.007
 11
-24.4204
 21
115.032
  0
LINE
  8
0
 10
-24.4204
 20
115.032
 11
-24.3173
 21
115.049
  0
LINE
  8
0
 10
-24.3173
 20
115.049
 11
-24.2199
 21
115.055
  0
LINE
  8
0
 10
-24.2199
 20
115.055
 11
-24.1283
 21
115.049
  0
LINE
  8
0
 10
-24.1283
 20
115.049
 11
-24.0424
 21
115.033
  0
LINE
  8
0
 10
-24.0424
 20
115.033
 11
-23.9623
 21
115.005
  0
LINE
  8
0
 10
-23.9623
 20
115.005
 11
-23.8879
 21
114.965
  0
LINE
  8
0
 10
-23.8879
 20
114.965
 11
-23.8202
 21
114.916
  0
LINE
  8
0
 10
-23.8202
 20
114.916
 11
-23.7609
 21
114.857
  0
LINE
  8
0
 10
-23.7609
 20
114.857
 11
-23.7098
 21
114.788
  0
LINE
  8
0
 10
-23.7098
 20
114.788
 11
-23.667
 21
114.709
  0
LINE
  8
0
 10
-23.667
 20
114.709
 11
-23.6326
 21
114.62
  0
LINE
  8
0
 10
-23.6326
 20
114.62
 11
-23.6064
 21
114.521
  0
LINE
  8
0
 10
-23.6064
 20
114.521
 11
-23.5933
 21
114.445
  0
LINE
  8
0
 10
-23.5933
 20
114.445
 11
-23.5866
 21
114.371
  0
LINE
  8
0
 10
-23.5866
 20
114.371
 11
-23.5862
 21
114.298
  0
LINE
  8
0
 10
-23.5862
 20
114.298
 11
-23.5923
 21
114.226
  0
LINE
  8
0
 10
-23.5923
 20
114.226
 11
-23.6047
 21
114.156
  0
LINE
  8
0
 10
-23.6047
 20
114.156
 11
-23.6235
 21
114.087
  0
LINE
  8
0
 10
-23.6235
 20
114.087
 11
-23.6471
 21
114.02
  0
LINE
  8
0
 10
-23.6471
 20
114.02
 11
-23.6745
 21
113.952
  0
LINE
  8
0
 10
-23.6745
 20
113.952
 11
-23.7056
 21
113.884
  0
LINE
  8
0
 10
-23.7056
 20
113.884
 11
-23.7405
 21
113.817
  0
LINE
  8
0
 10
-23.7405
 20
113.817
 11
-23.7792
 21
113.75
  0
LINE
  8
0
 10
-23.7792
 20
113.75
 11
-23.8216
 21
113.682
  0
LINE
  8
0
 10
-23.8216
 20
113.682
 11
-23.9149
 21
113.547
  0
LINE
  8
0
 10
-23.9149
 20
113.547
 11
-24.0173
 21
113.41
  0
LINE
  8
0
 10
-24.0173
 20
113.41
 11
-24.2446
 21
113.127
  0
LINE
  8
0
 10
-24.2446
 20
113.127
 11
-24.36
 21
112.978
  0
LINE
  8
0
 10
-24.36
 20
112.978
 11
-24.4749
 21
112.822
  0
LINE
  8
0
 10
-24.4749
 20
112.822
 11
-24.5315
 21
112.741
  0
LINE
  8
0
 10
-24.5315
 20
112.741
 11
-24.5864
 21
112.658
  0
LINE
  8
0
 10
-24.5864
 20
112.658
 11
-24.6397
 21
112.572
  0
LINE
  8
0
 10
-24.6397
 20
112.572
 11
-24.6914
 21
112.485
  0
LINE
  8
0
 10
-24.6914
 20
112.485
 11
-24.7415
 21
112.395
  0
LINE
  8
0
 10
-24.7415
 20
112.395
 11
-24.79
 21
112.303
  0
LINE
  8
0
 10
-24.79
 20
112.303
 11
-24.8355
 21
112.208
  0
LINE
  8
0
 10
-24.8355
 20
112.208
 11
-24.8769
 21
112.109
  0
LINE
  8
0
 10
-24.8769
 20
112.109
 11
-24.914
 21
112.007
  0
LINE
  8
0
 10
-24.914
 20
112.007
 11
-24.947
 21
111.902
  0
LINE
  8
0
 10
-24.947
 20
111.902
 11
-24.9758
 21
111.794
  0
LINE
  8
0
 10
-24.9758
 20
111.794
 11
-25.0004
 21
111.681
  0
LINE
  8
0
 10
-25.0004
 20
111.681
 11
-24.9286
 21
111.344
  0
LINE
  8
0
 10
-24.9286
 20
111.344
 11
-22.4677
 21
111.867
  0
LINE
  8
0
 10
-35.5706
 20
108.404
 11
-35.3994
 21
108.437
  0
LINE
  8
0
 10
-35.3994
 20
108.437
 11
-35.2204
 21
108.487
  0
LINE
  8
0
 10
-35.2204
 20
108.487
 11
-35.0339
 21
108.556
  0
LINE
  8
0
 10
-35.0339
 20
108.556
 11
-34.8676
 21
108.636
  0
LINE
  8
0
 10
-34.8676
 20
108.636
 11
-34.7214
 21
108.726
  0
LINE
  8
0
 10
-34.7214
 20
108.726
 11
-34.5954
 21
108.827
  0
LINE
  8
0
 10
-34.5954
 20
108.827
 11
-34.4896
 21
108.939
  0
LINE
  8
0
 10
-34.4896
 20
108.939
 11
-34.4039
 21
109.061
  0
LINE
  8
0
 10
-34.4039
 20
109.061
 11
-34.339
 21
109.193
  0
LINE
  8
0
 10
-34.339
 20
109.193
 11
-34.2959
 21
109.331
  0
LINE
  8
0
 10
-34.2959
 20
109.331
 11
-34.2747
 21
109.477
  0
LINE
  8
0
 10
-34.2747
 20
109.477
 11
-34.2753
 21
109.629
  0
LINE
  8
0
 10
-34.2753
 20
109.629
 11
-34.2978
 21
109.789
  0
LINE
  8
0
 10
-34.2978
 20
109.789
 11
-34.3421
 21
109.955
  0
LINE
  8
0
 10
-34.3421
 20
109.955
 11
-34.3856
 21
110.068
  0
LINE
  8
0
 10
-34.3856
 20
110.068
 11
-34.4395
 21
110.169
  0
LINE
  8
0
 10
-34.4395
 20
110.169
 11
-34.5038
 21
110.26
  0
LINE
  8
0
 10
-34.5038
 20
110.26
 11
-34.5784
 21
110.34
  0
LINE
  8
0
 10
-34.5784
 20
110.34
 11
-34.6634
 21
110.409
  0
LINE
  8
0
 10
-34.6634
 20
110.409
 11
-34.7588
 21
110.468
  0
LINE
  8
0
 10
-34.7588
 20
110.468
 11
-34.8625
 21
110.514
  0
LINE
  8
0
 10
-34.8625
 20
110.514
 11
-34.9727
 21
110.547
  0
LINE
  8
0
 10
-34.9727
 20
110.547
 11
-35.0895
 21
110.566
  0
LINE
  8
0
 10
-35.0895
 20
110.566
 11
-35.213
 21
110.571
  0
LINE
  8
0
 10
-35.213
 20
110.571
 11
-35.343
 21
110.563
  0
LINE
  8
0
 10
-35.343
 20
110.563
 11
-35.4796
 21
110.54
  0
LINE
  8
0
 10
-35.4796
 20
110.54
 11
-35.483
 21
110.551
  0
LINE
  8
0
 10
-35.483
 20
110.551
 11
-35.3743
 21
110.619
  0
LINE
  8
0
 10
-35.3743
 20
110.619
 11
-35.278
 21
110.692
  0
LINE
  8
0
 10
-35.278
 20
110.692
 11
-35.194
 21
110.77
  0
LINE
  8
0
 10
-35.194
 20
110.77
 11
-35.1224
 21
110.852
  0
LINE
  8
0
 10
-35.1224
 20
110.852
 11
-35.0632
 21
110.939
  0
LINE
  8
0
 10
-35.0632
 20
110.939
 11
-35.0164
 21
111.031
  0
LINE
  8
0
 10
-35.0164
 20
111.031
 11
-34.9819
 21
111.126
  0
LINE
  8
0
 10
-34.9819
 20
111.126
 11
-34.9606
 21
111.226
  0
LINE
  8
0
 10
-34.9606
 20
111.226
 11
-34.9525
 21
111.329
  0
LINE
  8
0
 10
-34.9525
 20
111.329
 11
-34.9575
 21
111.436
  0
LINE
  8
0
 10
-34.9575
 20
111.436
 11
-34.9756
 21
111.547
  0
LINE
  8
0
 10
-34.9756
 20
111.547
 11
-35.0068
 21
111.661
  0
LINE
  8
0
 10
-35.0068
 20
111.661
 11
-35.0627
 21
111.805
  0
LINE
  8
0
 10
-35.0627
 20
111.805
 11
-35.1318
 21
111.932
  0
LINE
  8
0
 10
-35.1318
 20
111.932
 11
-35.2139
 21
112.042
  0
LINE
  8
0
 10
-35.2139
 20
112.042
 11
-35.3092
 21
112.136
  0
LINE
  8
0
 10
-35.3092
 20
112.136
 11
-35.4176
 21
112.213
  0
LINE
  8
0
 10
-35.4176
 20
112.213
 11
-35.5391
 21
112.274
  0
LINE
  8
0
 10
-35.5391
 20
112.274
 11
-35.6717
 21
112.317
  0
LINE
  8
0
 10
-35.6717
 20
112.317
 11
-35.8131
 21
112.341
  0
LINE
  8
0
 10
-35.8131
 20
112.341
 11
-35.9634
 21
112.347
  0
LINE
  8
0
 10
-35.9634
 20
112.347
 11
-36.1225
 21
112.335
  0
LINE
  8
0
 10
-36.1225
 20
112.335
 11
-36.2906
 21
112.304
  0
LINE
  8
0
 10
-36.2906
 20
112.304
 11
-36.4675
 21
112.254
  0
LINE
  8
0
 10
-36.4675
 20
112.254
 11
-36.626
 21
112.195
  0
LINE
  8
0
 10
-36.626
 20
112.195
 11
-36.7699
 21
112.125
  0
LINE
  8
0
 10
-36.7699
 20
112.125
 11
-36.8993
 21
112.044
  0
LINE
  8
0
 10
-36.8993
 20
112.044
 11
-37.0141
 21
111.953
  0
LINE
  8
0
 10
-37.0141
 20
111.953
 11
-37.1143
 21
111.851
  0
LINE
  8
0
 10
-37.1143
 20
111.851
 11
-37.2
 21
111.738
  0
LINE
  8
0
 10
-37.2
 20
111.738
 11
-37.2692
 21
111.617
  0
LINE
  8
0
 10
-37.2692
 20
111.617
 11
-37.3202
 21
111.49
  0
LINE
  8
0
 10
-37.3202
 20
111.49
 11
-37.3528
 21
111.357
  0
LINE
  8
0
 10
-37.3528
 20
111.357
 11
-37.3672
 21
111.218
  0
LINE
  8
0
 10
-37.3672
 20
111.218
 11
-37.3634
 21
111.072
  0
LINE
  8
0
 10
-37.3634
 20
111.072
 11
-37.3412
 21
110.921
  0
LINE
  8
0
 10
-37.3412
 20
110.921
 11
-36.8615
 21
111.037
  0
LINE
  8
0
 10
-36.8615
 20
111.037
 11
-36.877
 21
111.134
  0
LINE
  8
0
 10
-36.877
 20
111.134
 11
-36.8814
 21
111.226
  0
LINE
  8
0
 10
-36.8814
 20
111.226
 11
-36.8747
 21
111.314
  0
LINE
  8
0
 10
-36.8747
 20
111.314
 11
-36.857
 21
111.398
  0
LINE
  8
0
 10
-36.857
 20
111.398
 11
-36.8282
 21
111.477
  0
LINE
  8
0
 10
-36.8282
 20
111.477
 11
-36.7884
 21
111.553
  0
LINE
  8
0
 10
-36.7884
 20
111.553
 11
-36.7381
 21
111.622
  0
LINE
  8
0
 10
-36.7381
 20
111.622
 11
-36.6785
 21
111.685
  0
LINE
  8
0
 10
-36.6785
 20
111.685
 11
-36.6098
 21
111.741
  0
LINE
  8
0
 10
-36.6098
 20
111.741
 11
-36.5318
 21
111.791
  0
LINE
  8
0
 10
-36.5318
 20
111.791
 11
-36.4445
 21
111.834
  0
LINE
  8
0
 10
-36.4445
 20
111.834
 11
-36.348
 21
111.87
  0
LINE
  8
0
 10
-36.348
 20
111.87
 11
-36.2397
 21
111.9
  0
LINE
  8
0
 10
-36.2397
 20
111.9
 11
-36.1376
 21
111.918
  0
LINE
  8
0
 10
-36.1376
 20
111.918
 11
-36.0415
 21
111.923
  0
LINE
  8
0
 10
-36.0415
 20
111.923
 11
-35.9514
 21
111.915
  0
LINE
  8
0
 10
-35.9514
 20
111.915
 11
-35.8675
 21
111.896
  0
LINE
  8
0
 10
-35.8675
 20
111.896
 11
-35.7896
 21
111.863
  0
LINE
  8
0
 10
-35.7896
 20
111.863
 11
-35.7181
 21
111.82
  0
LINE
  8
0
 10
-35.7181
 20
111.82
 11
-35.6539
 21
111.768
  0
LINE
  8
0
 10
-35.6539
 20
111.768
 11
-35.5969
 21
111.705
  0
LINE
  8
0
 10
-35.5969
 20
111.705
 11
-35.5472
 21
111.632
  0
LINE
  8
0
 10
-35.5472
 20
111.632
 11
-35.5047
 21
111.55
  0
LINE
  8
0
 10
-35.5047
 20
111.55
 11
-35.4695
 21
111.457
  0
LINE
  8
0
 10
-35.4695
 20
111.457
 11
-35.4444
 21
111.361
  0
LINE
  8
0
 10
-35.4444
 20
111.361
 11
-35.4332
 21
111.267
  0
LINE
  8
0
 10
-35.4332
 20
111.267
 11
-35.4359
 21
111.177
  0
LINE
  8
0
 10
-35.4359
 20
111.177
 11
-35.4524
 21
111.09
  0
LINE
  8
0
 10
-35.4524
 20
111.09
 11
-35.4829
 21
111.007
  0
LINE
  8
0
 10
-35.4829
 20
111.007
 11
-35.5272
 21
110.927
  0
LINE
  8
0
 10
-35.5272
 20
110.927
 11
-35.5849
 21
110.852
  0
LINE
  8
0
 10
-35.5849
 20
110.852
 11
-35.655
 21
110.783
  0
LINE
  8
0
 10
-35.655
 20
110.783
 11
-35.7375
 21
110.72
  0
LINE
  8
0
 10
-35.7375
 20
110.72
 11
-35.8326
 21
110.664
  0
LINE
  8
0
 10
-35.8326
 20
110.664
 11
-35.94
 21
110.614
  0
LINE
  8
0
 10
-35.94
 20
110.614
 11
-36.06
 21
110.57
  0
LINE
  8
0
 10
-36.06
 20
110.57
 11
-36.3101
 21
110.488
  0
LINE
  8
0
 10
-36.3101
 20
110.488
 11
-36.1791
 21
110.085
  0
LINE
  8
0
 10
-36.1791
 20
110.085
 11
-35.9185
 21
110.17
  0
LINE
  8
0
 10
-35.9185
 20
110.17
 11
-35.7802
 21
110.209
  0
LINE
  8
0
 10
-35.7802
 20
110.209
 11
-35.65
 21
110.236
  0
LINE
  8
0
 10
-35.65
 20
110.236
 11
-35.5278
 21
110.25
  0
LINE
  8
0
 10
-35.5278
 20
110.25
 11
-35.4137
 21
110.25
  0
LINE
  8
0
 10
-35.4137
 20
110.25
 11
-35.3077
 21
110.237
  0
LINE
  8
0
 10
-35.3077
 20
110.237
 11
-35.2098
 21
110.212
  0
LINE
  8
0
 10
-35.2098
 20
110.212
 11
-35.1211
 21
110.174
  0
LINE
  8
0
 10
-35.1211
 20
110.174
 11
-35.0426
 21
110.125
  0
LINE
  8
0
 10
-35.0426
 20
110.125
 11
-34.9742
 21
110.064
  0
LINE
  8
0
 10
-34.9742
 20
110.064
 11
-34.916
 21
109.992
  0
LINE
  8
0
 10
-34.916
 20
109.992
 11
-34.868
 21
109.909
  0
LINE
  8
0
 10
-34.868
 20
109.909
 11
-34.8302
 21
109.814
  0
LINE
  8
0
 10
-34.8302
 20
109.814
 11
-34.7996
 21
109.701
  0
LINE
  8
0
 10
-34.7996
 20
109.701
 11
-34.7831
 21
109.594
  0
LINE
  8
0
 10
-34.7831
 20
109.594
 11
-34.7807
 21
109.493
  0
LINE
  8
0
 10
-34.7807
 20
109.493
 11
-34.7923
 21
109.398
  0
LINE
  8
0
 10
-34.7923
 20
109.398
 11
-34.818
 21
109.309
  0
LINE
  8
0
 10
-34.818
 20
109.309
 11
-34.8577
 21
109.225
  0
LINE
  8
0
 10
-34.8577
 20
109.225
 11
-34.9104
 21
109.149
  0
LINE
  8
0
 10
-34.9104
 20
109.149
 11
-34.9744
 21
109.079
  0
LINE
  8
0
 10
-34.9744
 20
109.079
 11
-35.05
 21
109.017
  0
LINE
  8
0
 10
-35.05
 20
109.017
 11
-35.137
 21
108.962
  0
LINE
  8
0
 10
-35.137
 20
108.962
 11
-35.2355
 21
108.913
  0
LINE
  8
0
 10
-35.2355
 20
108.913
 11
-35.3455
 21
108.872
  0
LINE
  8
0
 10
-35.3455
 20
108.872
 11
-35.5652
 21
108.821
  0
LINE
  8
0
 10
-35.5652
 20
108.821
 11
-35.7632
 21
108.816
  0
LINE
  8
0
 10
-35.7632
 20
108.816
 11
-35.9396
 21
108.858
  0
LINE
  8
0
 10
-35.9396
 20
108.858
 11
-36.0943
 21
108.946
  0
LINE
  8
0
 10
-36.0943
 20
108.946
 11
-36.2275
 21
109.081
  0
LINE
  8
0
 10
-36.2275
 20
109.081
 11
-36.339
 21
109.263
  0
LINE
  8
0
 10
-36.339
 20
109.263
 11
-36.806
 21
109.063
  0
LINE
  8
0
 10
-36.806
 20
109.063
 11
-36.7272
 21
108.916
  0
LINE
  8
0
 10
-36.7272
 20
108.916
 11
-36.6381
 21
108.787
  0
LINE
  8
0
 10
-36.6381
 20
108.787
 11
-36.5385
 21
108.676
  0
LINE
  8
0
 10
-36.5385
 20
108.676
 11
-36.4285
 21
108.583
  0
LINE
  8
0
 10
-36.4285
 20
108.583
 11
-36.3081
 21
108.508
  0
LINE
  8
0
 10
-36.3081
 20
108.508
 11
-36.1772
 21
108.452
  0
LINE
  8
0
 10
-36.1772
 20
108.452
 11
-36.0373
 21
108.413
  0
LINE
  8
0
 10
-36.0373
 20
108.413
 11
-35.8895
 21
108.392
  0
LINE
  8
0
 10
-35.8895
 20
108.392
 11
-35.7339
 21
108.389
  0
LINE
  8
0
 10
-35.7339
 20
108.389
 11
-35.5706
 21
108.404
  0
LINE
  8
0
 10
-45.6297
 20
104.61
 11
-45.9933
 21
105.426
  0
LINE
  8
0
 10
-45.9933
 20
105.426
 11
-45.5009
 21
105.646
  0
LINE
  8
0
 10
-45.5009
 20
105.646
 11
-45.6579
 21
105.998
  0
LINE
  8
0
 10
-45.6579
 20
105.998
 11
-46.1503
 21
105.779
  0
LINE
  8
0
 10
-46.1503
 20
105.779
 11
-47.1916
 21
108.118
  0
LINE
  8
0
 10
-47.1916
 20
108.118
 11
-47.6575
 21
107.91
  0
LINE
  8
0
 10
-47.6575
 20
107.91
 11
-48.2016
 21
104.857
  0
LINE
  8
0
 10
-48.2016
 20
104.857
 11
-48.0479
 21
104.512
  0
LINE
  8
0
 10
-48.0479
 20
104.512
 11
-46.4154
 21
105.239
  0
LINE
  8
0
 10
-46.4154
 20
105.239
 11
-46.0518
 21
104.422
  0
LINE
  8
0
 10
-46.0518
 20
104.422
 11
-45.6297
 21
104.61
  0
LINE
  8
0
 10
-47.7756
 20
105.115
 11
-47.724
 21
105.355
  0
LINE
  8
0
 10
-47.724
 20
105.355
 11
-47.4154
 21
107.109
  0
LINE
  8
0
 10
-47.4154
 20
107.109
 11
-47.3889
 21
107.416
  0
LINE
  8
0
 10
-47.3889
 20
107.416
 11
-47.3891
 21
107.426
  0
LINE
  8
0
 10
-47.3891
 20
107.426
 11
-46.5724
 21
105.591
  0
LINE
  8
0
 10
-46.5724
 20
105.591
 11
-47.7929
 21
105.048
  0
LINE
  8
0
 10
-47.7929
 20
105.048
 11
-47.7756
 21
105.115
  0
LINE
  8
0
 10
-57.6511
 20
98.5776
 11
-57.5094
 21
98.6068
  0
LINE
  8
0
 10
-57.5094
 20
98.6068
 11
-57.3644
 21
98.653
  0
LINE
  8
0
 10
-57.3644
 20
98.653
 11
-57.2161
 21
98.7162
  0
LINE
  8
0
 10
-57.2161
 20
98.7162
 11
-57.0645
 21
98.7962
  0
LINE
  8
0
 10
-57.0645
 20
98.7962
 11
-56.893
 21
98.9063
  0
LINE
  8
0
 10
-56.893
 20
98.9063
 11
-56.7444
 21
99.0255
  0
LINE
  8
0
 10
-56.7444
 20
99.0255
 11
-56.6188
 21
99.1537
  0
LINE
  8
0
 10
-56.6188
 20
99.1537
 11
-56.5161
 21
99.2908
  0
LINE
  8
0
 10
-56.5161
 20
99.2908
 11
-56.4365
 21
99.437
  0
LINE
  8
0
 10
-56.4365
 20
99.437
 11
-56.3798
 21
99.5922
  0
LINE
  8
0
 10
-56.3798
 20
99.5922
 11
-56.3466
 21
99.7536
  0
LINE
  8
0
 10
-56.3466
 20
99.7536
 11
-56.3379
 21
99.9174
  0
LINE
  8
0
 10
-56.3379
 20
99.9174
 11
-56.3535
 21
100.084
  0
LINE
  8
0
 10
-56.3535
 20
100.084
 11
-56.3935
 21
100.252
  0
LINE
  8
0
 10
-56.3935
 20
100.252
 11
-56.4579
 21
100.424
  0
LINE
  8
0
 10
-56.4579
 20
100.424
 11
-56.5467
 21
100.597
  0
LINE
  8
0
 10
-56.5467
 20
100.597
 11
-56.6406
 21
100.742
  0
LINE
  8
0
 10
-56.6406
 20
100.742
 11
-56.7449
 21
100.867
  0
LINE
  8
0
 10
-56.7449
 20
100.867
 11
-56.8597
 21
100.973
  0
LINE
  8
0
 10
-56.8597
 20
100.973
 11
-56.9849
 21
101.06
  0
LINE
  8
0
 10
-56.9849
 20
101.06
 11
-57.1205
 21
101.129
  0
LINE
  8
0
 10
-57.1205
 20
101.129
 11
-57.2666
 21
101.178
  0
LINE
  8
0
 10
-57.2666
 20
101.178
 11
-57.4186
 21
101.208
  0
LINE
  8
0
 10
-57.4186
 20
101.208
 11
-57.5724
 21
101.215
  0
LINE
  8
0
 10
-57.5724
 20
101.215
 11
-57.7278
 21
101.2
  0
LINE
  8
0
 10
-57.7278
 20
101.2
 11
-57.8849
 21
101.162
  0
LINE
  8
0
 10
-57.8849
 20
101.162
 11
-58.0437
 21
101.102
  0
LINE
  8
0
 10
-58.0437
 20
101.102
 11
-58.2042
 21
101.02
  0
LINE
  8
0
 10
-58.2042
 20
101.02
 11
-58.3322
 21
100.939
  0
LINE
  8
0
 10
-58.3322
 20
100.939
 11
-58.4461
 21
100.849
  0
LINE
  8
0
 10
-58.4461
 20
100.849
 11
-58.5458
 21
100.752
  0
LINE
  8
0
 10
-58.5458
 20
100.752
 11
-58.6313
 21
100.648
  0
LINE
  8
0
 10
-58.6313
 20
100.648
 11
-58.7026
 21
100.536
  0
LINE
  8
0
 10
-58.7026
 20
100.536
 11
-58.7598
 21
100.417
  0
LINE
  8
0
 10
-58.7598
 20
100.417
 11
-59.316
 21
101.524
  0
LINE
  8
0
 10
-59.316
 20
101.524
 11
-57.8316
 21
102.381
  0
LINE
  8
0
 10
-57.8316
 20
102.381
 11
-58.0396
 21
102.741
  0
LINE
  8
0
 10
-58.0396
 20
102.741
 11
-59.9102
 21
101.661
  0
LINE
  8
0
 10
-59.9102
 20
101.661
 11
-58.9787
 21
99.7937
  0
LINE
  8
0
 10
-58.9787
 20
99.7937
 11
-58.5639
 21
100.033
  0
LINE
  8
0
 10
-58.5639
 20
100.033
 11
-58.5387
 21
100.102
  0
LINE
  8
0
 10
-58.5387
 20
100.102
 11
-58.5112
 21
100.167
  0
LINE
  8
0
 10
-58.5112
 20
100.167
 11
-58.4813
 21
100.228
  0
LINE
  8
0
 10
-58.4813
 20
100.228
 11
-58.4489
 21
100.285
  0
LINE
  8
0
 10
-58.4489
 20
100.285
 11
-58.4142
 21
100.337
  0
LINE
  8
0
 10
-58.4142
 20
100.337
 11
-58.3772
 21
100.386
  0
LINE
  8
0
 10
-58.3772
 20
100.386
 11
-58.3374
 21
100.431
  0
LINE
  8
0
 10
-58.3374
 20
100.431
 11
-58.2946
 21
100.474
  0
LINE
  8
0
 10
-58.2946
 20
100.474
 11
-58.2488
 21
100.514
  0
LINE
  8
0
 10
-58.2488
 20
100.514
 11
-58.2
 21
100.553
  0
LINE
  8
0
 10
-58.2
 20
100.553
 11
-58.1482
 21
100.589
  0
LINE
  8
0
 10
-58.1482
 20
100.589
 11
-58.0934
 21
100.622
  0
LINE
  8
0
 10
-58.0934
 20
100.622
 11
-57.9855
 21
100.678
  0
LINE
  8
0
 10
-57.9855
 20
100.678
 11
-57.8789
 21
100.718
  0
LINE
  8
0
 10
-57.8789
 20
100.718
 11
-57.7735
 21
100.743
  0
LINE
  8
0
 10
-57.7735
 20
100.743
 11
-57.6694
 21
100.753
  0
LINE
  8
0
 10
-57.6694
 20
100.753
 11
-57.5665
 21
100.748
  0
LINE
  8
0
 10
-57.5665
 20
100.748
 11
-57.4649
 21
100.728
  0
LINE
  8
0
 10
-57.4649
 20
100.728
 11
-57.3675
 21
100.694
  0
LINE
  8
0
 10
-57.3675
 20
100.694
 11
-57.2769
 21
100.648
  0
LINE
  8
0
 10
-57.2769
 20
100.648
 11
-57.193
 21
100.588
  0
LINE
  8
0
 10
-57.193
 20
100.588
 11
-57.1159
 21
100.516
  0
LINE
  8
0
 10
-57.1159
 20
100.516
 11
-57.0456
 21
100.431
  0
LINE
  8
0
 10
-57.0456
 20
100.431
 11
-56.982
 21
100.333
  0
LINE
  8
0
 10
-56.982
 20
100.333
 11
-56.9206
 21
100.215
  0
LINE
  8
0
 10
-56.9206
 20
100.215
 11
-56.8747
 21
100.099
  0
LINE
  8
0
 10
-56.8747
 20
100.099
 11
-56.8443
 21
99.9848
  0
LINE
  8
0
 10
-56.8443
 20
99.9848
 11
-56.8294
 21
99.8734
  0
LINE
  8
0
 10
-56.8294
 20
99.8734
 11
-56.83
 21
99.7644
  0
LINE
  8
0
 10
-56.83
 20
99.7644
 11
-56.8461
 21
99.6579
  0
LINE
  8
0
 10
-56.8461
 20
99.6579
 11
-56.8774
 21
99.5561
  0
LINE
  8
0
 10
-56.8774
 20
99.5561
 11
-56.9235
 21
99.4611
  0
LINE
  8
0
 10
-56.9235
 20
99.4611
 11
-56.9843
 21
99.3728
  0
LINE
  8
0
 10
-56.9843
 20
99.3728
 11
-57.0598
 21
99.2912
  0
LINE
  8
0
 10
-57.0598
 20
99.2912
 11
-57.15
 21
99.2163
  0
LINE
  8
0
 10
-57.15
 20
99.2163
 11
-57.255
 21
99.1481
  0
LINE
  8
0
 10
-57.255
 20
99.1481
 11
-57.434
 21
99.0629
  0
LINE
  8
0
 10
-57.434
 20
99.0629
 11
-57.6058
 21
99.0184
  0
LINE
  8
0
 10
-57.6058
 20
99.0184
 11
-57.7702
 21
99.0146
  0
LINE
  8
0
 10
-57.7702
 20
99.0146
 11
-57.9274
 21
99.0514
  0
LINE
  8
0
 10
-57.9274
 20
99.0514
 11
-58.0772
 21
99.1289
  0
LINE
  8
0
 10
-58.0772
 20
99.1289
 11
-58.2197
 21
99.247
  0
LINE
  8
0
 10
-58.2197
 20
99.247
 11
-58.6198
 21
98.9501
  0
LINE
  8
0
 10
-58.6198
 20
98.9501
 11
-58.5183
 21
98.8449
  0
LINE
  8
0
 10
-58.5183
 20
98.8449
 11
-58.411
 21
98.7565
  0
LINE
  8
0
 10
-58.411
 20
98.7565
 11
-58.298
 21
98.6847
  0
LINE
  8
0
 10
-58.298
 20
98.6847
 11
-58.1793
 21
98.6297
  0
LINE
  8
0
 10
-58.1793
 20
98.6297
 11
-58.0548
 21
98.5914
  0
LINE
  8
0
 10
-58.0548
 20
98.5914
 11
-57.9245
 21
98.5698
  0
LINE
  8
0
 10
-57.9245
 20
98.5698
 11
-57.7895
 21
98.5653
  0
LINE
  8
0
 10
-57.7895
 20
98.5653
 11
-57.6511
 21
98.5776
  0
LINE
  8
0
 10
-67.5002
 20
92.095
 11
-67.3214
 21
92.1417
  0
LINE
  8
0
 10
-67.3214
 20
92.1417
 11
-67.145
 21
92.2201
  0
LINE
  8
0
 10
-67.145
 20
92.2201
 11
-66.9707
 21
92.3301
  0
LINE
  8
0
 10
-66.9707
 20
92.3301
 11
-66.8273
 21
92.4464
  0
LINE
  8
0
 10
-66.8273
 20
92.4464
 11
-66.7066
 21
92.5706
  0
LINE
  8
0
 10
-66.7066
 20
92.5706
 11
-66.6085
 21
92.7026
  0
LINE
  8
0
 10
-66.6085
 20
92.7026
 11
-66.5332
 21
92.8424
  0
LINE
  8
0
 10
-66.5332
 20
92.8424
 11
-66.4806
 21
92.99
  0
LINE
  8
0
 10
-66.4806
 20
92.99
 11
-66.4507
 21
93.1455
  0
LINE
  8
0
 10
-66.4507
 20
93.1455
 11
-66.4436
 21
93.3058
  0
LINE
  8
0
 10
-66.4436
 20
93.3058
 11
-66.4597
 21
93.467
  0
LINE
  8
0
 10
-66.4597
 20
93.467
 11
-66.499
 21
93.6292
  0
LINE
  8
0
 10
-66.499
 20
93.6292
 11
-66.5614
 21
93.7924
  0
LINE
  8
0
 10
-66.5614
 20
93.7924
 11
-66.647
 21
93.9565
  0
LINE
  8
0
 10
-66.647
 20
93.9565
 11
-66.7557
 21
94.1216
  0
LINE
  8
0
 10
-66.7557
 20
94.1216
 11
-66.8698
 21
94.264
  0
LINE
  8
0
 10
-66.8698
 20
94.264
 11
-66.9902
 21
94.3859
  0
LINE
  8
0
 10
-66.9902
 20
94.3859
 11
-67.117
 21
94.4874
  0
LINE
  8
0
 10
-67.117
 20
94.4874
 11
-67.25
 21
94.5684
  0
LINE
  8
0
 10
-67.25
 20
94.5684
 11
-67.3895
 21
94.6289
  0
LINE
  8
0
 10
-67.3895
 20
94.6289
 11
-67.5353
 21
94.6689
  0
LINE
  8
0
 10
-67.5353
 20
94.6689
 11
-67.6836
 21
94.6881
  0
LINE
  8
0
 10
-67.6836
 20
94.6881
 11
-67.8306
 21
94.685
  0
LINE
  8
0
 10
-67.8306
 20
94.685
 11
-67.9765
 21
94.6598
  0
LINE
  8
0
 10
-67.9765
 20
94.6598
 11
-68.1211
 21
94.6124
  0
LINE
  8
0
 10
-68.1211
 20
94.6124
 11
-68.2645
 21
94.5429
  0
LINE
  8
0
 10
-68.2645
 20
94.5429
 11
-68.4067
 21
94.4511
  0
LINE
  8
0
 10
-68.4067
 20
94.4511
 11
-68.4866
 21
94.3886
  0
LINE
  8
0
 10
-68.4866
 20
94.3886
 11
-68.5592
 21
94.3226
  0
LINE
  8
0
 10
-68.5592
 20
94.3226
 11
-68.6244
 21
94.2531
  0
LINE
  8
0
 10
-68.6244
 20
94.2531
 11
-68.6822
 21
94.1801
  0
LINE
  8
0
 10
-68.6822
 20
94.1801
 11
-68.7327
 21
94.1035
  0
LINE
  8
0
 10
-68.7327
 20
94.1035
 11
-68.7758
 21
94.0235
  0
LINE
  8
0
 10
-68.7758
 20
94.0235
 11
-68.8106
 21
93.9409
  0
LINE
  8
0
 10
-68.8106
 20
93.9409
 11
-68.8368
 21
93.8565
  0
LINE
  8
0
 10
-68.8368
 20
93.8565
 11
-68.8542
 21
93.7703
  0
LINE
  8
0
 10
-68.8542
 20
93.7703
 11
-68.863
 21
93.6822
  0
LINE
  8
0
 10
-68.863
 20
93.6822
 11
-68.863
 21
93.5922
  0
LINE
  8
0
 10
-68.863
 20
93.5922
 11
-68.8544
 21
93.5004
  0
LINE
  8
0
 10
-68.8544
 20
93.5004
 11
-68.9882
 21
93.6953
  0
LINE
  8
0
 10
-68.9882
 20
93.6953
 11
-69.1004
 21
93.8819
  0
LINE
  8
0
 10
-69.1004
 20
93.8819
 11
-69.191
 21
94.0602
  0
LINE
  8
0
 10
-69.191
 20
94.0602
 11
-69.2599
 21
94.2303
  0
LINE
  8
0
 10
-69.2599
 20
94.2303
 11
-69.3074
 21
94.3921
  0
LINE
  8
0
 10
-69.3074
 20
94.3921
 11
-69.3331
 21
94.5456
  0
LINE
  8
0
 10
-69.3331
 20
94.5456
 11
-69.3378
 21
94.6895
  0
LINE
  8
0
 10
-69.3378
 20
94.6895
 11
-69.3214
 21
94.822
  0
LINE
  8
0
 10
-69.3214
 20
94.822
 11
-69.2838
 21
94.943
  0
LINE
  8
0
 10
-69.2838
 20
94.943
 11
-69.2252
 21
95.0525
  0
LINE
  8
0
 10
-69.2252
 20
95.0525
 11
-69.1454
 21
95.1506
  0
LINE
  8
0
 10
-69.1454
 20
95.1506
 11
-69.0446
 21
95.2373
  0
LINE
  8
0
 10
-69.0446
 20
95.2373
 11
-68.9149
 21
95.3155
  0
LINE
  8
0
 10
-68.9149
 20
95.3155
 11
-68.7851
 21
95.3615
  0
LINE
  8
0
 10
-68.7851
 20
95.3615
 11
-68.6553
 21
95.3755
  0
LINE
  8
0
 10
-68.6553
 20
95.3755
 11
-68.5254
 21
95.3574
  0
LINE
  8
0
 10
-68.5254
 20
95.3574
 11
-68.3955
 21
95.3072
  0
LINE
  8
0
 10
-68.3955
 20
95.3072
 11
-68.2655
 21
95.2248
  0
LINE
  8
0
 10
-68.2655
 20
95.2248
 11
-67.9363
 21
95.5679
  0
LINE
  8
0
 10
-67.9363
 20
95.5679
 11
-68.1513
 21
95.7067
  0
LINE
  8
0
 10
-68.1513
 20
95.7067
 11
-68.3693
 21
95.7896
  0
LINE
  8
0
 10
-68.3693
 20
95.7896
 11
-68.5904
 21
95.8166
  0
LINE
  8
0
 10
-68.5904
 20
95.8166
 11
-68.8147
 21
95.7878
  0
LINE
  8
0
 10
-68.8147
 20
95.7878
 11
-69.0419
 21
95.7031
  0
LINE
  8
0
 10
-69.0419
 20
95.7031
 11
-69.2723
 21
95.5626
  0
LINE
  8
0
 10
-69.2723
 20
95.5626
 11
-69.4329
 21
95.4274
  0
LINE
  8
0
 10
-69.4329
 20
95.4274
 11
-69.5625
 21
95.278
  0
LINE
  8
0
 10
-69.5625
 20
95.278
 11
-69.6612
 21
95.1141
  0
LINE
  8
0
 10
-69.6612
 20
95.1141
 11
-69.7289
 21
94.9358
  0
LINE
  8
0
 10
-69.7289
 20
94.9358
 11
-69.7656
 21
94.7432
  0
LINE
  8
0
 10
-69.7656
 20
94.7432
 11
-69.7713
 21
94.5362
  0
LINE
  8
0
 10
-69.7713
 20
94.5362
 11
-69.746
 21
94.3178
  0
LINE
  8
0
 10
-69.746
 20
94.3178
 11
-69.6896
 21
94.0901
  0
LINE
  8
0
 10
-69.6896
 20
94.0901
 11
-69.6021
 21
93.8529
  0
LINE
  8
0
 10
-69.6021
 20
93.8529
 11
-69.4837
 21
93.6064
  0
LINE
  8
0
 10
-69.4837
 20
93.6064
 11
-69.3341
 21
93.3505
  0
LINE
  8
0
 10
-69.3341
 20
93.3505
 11
-69.1535
 21
93.0853
  0
LINE
  8
0
 10
-69.1535
 20
93.0853
 11
-68.9718
 21
92.8513
  0
LINE
  8
0
 10
-68.9718
 20
92.8513
 11
-68.7892
 21
92.6481
  0
LINE
  8
0
 10
-68.7892
 20
92.6481
 11
-68.6057
 21
92.4759
  0
LINE
  8
0
 10
-68.6057
 20
92.4759
 11
-68.4213
 21
92.3345
  0
LINE
  8
0
 10
-68.4213
 20
92.3345
 11
-68.2359
 21
92.224
  0
LINE
  8
0
 10
-68.2359
 20
92.224
 11
-68.0497
 21
92.1444
  0
LINE
  8
0
 10
-68.0497
 20
92.1444
 11
-67.8643
 21
92.0963
  0
LINE
  8
0
 10
-67.8643
 20
92.0963
 11
-67.6811
 21
92.0799
  0
LINE
  8
0
 10
-67.6811
 20
92.0799
 11
-67.5002
 21
92.095
  0
LINE
  8
0
 10
-67.7204
 20
92.5188
 11
-67.8329
 21
92.5454
  0
LINE
  8
0
 10
-67.8329
 20
92.5454
 11
-67.9454
 21
92.5879
  0
LINE
  8
0
 10
-67.9454
 20
92.5879
 11
-68.0535
 21
92.6447
  0
LINE
  8
0
 10
-68.0535
 20
92.6447
 11
-68.1571
 21
92.7159
  0
LINE
  8
0
 10
-68.1571
 20
92.7159
 11
-68.2563
 21
92.8015
  0
LINE
  8
0
 10
-68.2563
 20
92.8015
 11
-68.3511
 21
92.9013
  0
LINE
  8
0
 10
-68.3511
 20
92.9013
 11
-68.4415
 21
93.0155
  0
LINE
  8
0
 10
-68.4415
 20
93.0155
 11
-68.5042
 21
93.1117
  0
LINE
  8
0
 10
-68.5042
 20
93.1117
 11
-68.5526
 21
93.2078
  0
LINE
  8
0
 10
-68.5526
 20
93.2078
 11
-68.5866
 21
93.3037
  0
LINE
  8
0
 10
-68.5866
 20
93.3037
 11
-68.6062
 21
93.3995
  0
LINE
  8
0
 10
-68.6062
 20
93.3995
 11
-68.6115
 21
93.4952
  0
LINE
  8
0
 10
-68.6115
 20
93.4952
 11
-68.6024
 21
93.5908
  0
LINE
  8
0
 10
-68.6024
 20
93.5908
 11
-68.5798
 21
93.6838
  0
LINE
  8
0
 10
-68.5798
 20
93.6838
 11
-68.5448
 21
93.772
  0
LINE
  8
0
 10
-68.5448
 20
93.772
 11
-68.4973
 21
93.8553
  0
LINE
  8
0
 10
-68.4973
 20
93.8553
 11
-68.4373
 21
93.9337
  0
LINE
  8
0
 10
-68.4373
 20
93.9337
 11
-68.3649
 21
94.0073
  0
LINE
  8
0
 10
-68.3649
 20
94.0073
 11
-68.28
 21
94.0759
  0
LINE
  8
0
 10
-68.28
 20
94.0759
 11
-68.1827
 21
94.1387
  0
LINE
  8
0
 10
-68.1827
 20
94.1387
 11
-68.0851
 21
94.1859
  0
LINE
  8
0
 10
-68.0851
 20
94.1859
 11
-67.9871
 21
94.2176
  0
LINE
  8
0
 10
-67.9871
 20
94.2176
 11
-67.8887
 21
94.2338
  0
LINE
  8
0
 10
-67.8887
 20
94.2338
 11
-67.79
 21
94.2345
  0
LINE
  8
0
 10
-67.79
 20
94.2345
 11
-67.6909
 21
94.2196
  0
LINE
  8
0
 10
-67.6909
 20
94.2196
 11
-67.5932
 21
94.1896
  0
LINE
  8
0
 10
-67.5932
 20
94.1896
 11
-67.4982
 21
94.1443
  0
LINE
  8
0
 10
-67.4982
 20
94.1443
 11
-67.4059
 21
94.0837
  0
LINE
  8
0
 10
-67.4059
 20
94.0837
 11
-67.3162
 21
94.0078
  0
LINE
  8
0
 10
-67.3162
 20
94.0078
 11
-67.2293
 21
93.9167
  0
LINE
  8
0
 10
-67.2293
 20
93.9167
 11
-67.1451
 21
93.8103
  0
LINE
  8
0
 10
-67.1451
 20
93.8103
 11
-67.0698
 21
93.6973
  0
LINE
  8
0
 10
-67.0698
 20
93.6973
 11
-67.0094
 21
93.5859
  0
LINE
  8
0
 10
-67.0094
 20
93.5859
 11
-66.9637
 21
93.476
  0
LINE
  8
0
 10
-66.9637
 20
93.476
 11
-66.9329
 21
93.3678
  0
LINE
  8
0
 10
-66.9329
 20
93.3678
 11
-66.9169
 21
93.2612
  0
LINE
  8
0
 10
-66.9169
 20
93.2612
 11
-66.9158
 21
93.1561
  0
LINE
  8
0
 10
-66.9158
 20
93.1561
 11
-66.9291
 21
93.055
  0
LINE
  8
0
 10
-66.9291
 20
93.055
 11
-66.9571
 21
92.9599
  0
LINE
  8
0
 10
-66.9571
 20
92.9599
 11
-66.9998
 21
92.8707
  0
LINE
  8
0
 10
-66.9998
 20
92.8707
 11
-67.0572
 21
92.7875
  0
LINE
  8
0
 10
-67.0572
 20
92.7875
 11
-67.1293
 21
92.7102
  0
LINE
  8
0
 10
-67.1293
 20
92.7102
 11
-67.2161
 21
92.6388
  0
LINE
  8
0
 10
-67.2161
 20
92.6388
 11
-67.3092
 21
92.5811
  0
LINE
  8
0
 10
-67.3092
 20
92.5811
 11
-67.4061
 21
92.5401
  0
LINE
  8
0
 10
-67.4061
 20
92.5401
 11
-67.507
 21
92.5161
  0
LINE
  8
0
 10
-67.507
 20
92.5161
 11
-67.6118
 21
92.509
  0
LINE
  8
0
 10
-67.6118
 20
92.509
 11
-67.7204
 21
92.5188
  0
LINE
  8
0
 10
-76.3773
 20
84.7999
 11
-76.4929
 21
84.9332
  0
LINE
  8
0
 10
-76.4929
 20
84.9332
 11
-76.6021
 21
85.0693
  0
LINE
  8
0
 10
-76.6021
 20
85.0693
 11
-76.7052
 21
85.2085
  0
LINE
  8
0
 10
-76.7052
 20
85.2085
 11
-76.802
 21
85.3505
  0
LINE
  8
0
 10
-76.802
 20
85.3505
 11
-76.8925
 21
85.4955
  0
LINE
  8
0
 10
-76.8925
 20
85.4955
 11
-76.9768
 21
85.6435
  0
LINE
  8
0
 10
-76.9768
 20
85.6435
 11
-77.0554
 21
85.7956
  0
LINE
  8
0
 10
-77.0554
 20
85.7956
 11
-77.1297
 21
85.9527
  0
LINE
  8
0
 10
-77.1297
 20
85.9527
 11
-77.1995
 21
86.1147
  0
LINE
  8
0
 10
-77.1995
 20
86.1147
 11
-77.2649
 21
86.2817
  0
LINE
  8
0
 10
-77.2649
 20
86.2817
 11
-77.3259
 21
86.4536
  0
LINE
  8
0
 10
-77.3259
 20
86.4536
 11
-77.3824
 21
86.6305
  0
LINE
  8
0
 10
-77.3824
 20
86.6305
 11
-77.4369
 21
86.8248
  0
LINE
  8
0
 10
-77.4369
 20
86.8248
 11
-77.4919
 21
87.0478
  0
LINE
  8
0
 10
-77.4919
 20
87.0478
 11
-77.5472
 21
87.2996
  0
LINE
  8
0
 10
-77.5472
 20
87.2996
 11
-77.603
 21
87.5802
  0
LINE
  8
0
 10
-77.603
 20
87.5802
 11
-77.6592
 21
87.8896
  0
LINE
  8
0
 10
-77.6592
 20
87.8896
 11
-77.7158
 21
88.2277
  0
LINE
  8
0
 10
-77.7158
 20
88.2277
 11
-77.9814
 21
88.5228
  0
LINE
  8
0
 10
-77.9814
 20
88.5228
 11
-79.8475
 21
86.8426
  0
LINE
  8
0
 10
-79.8475
 20
86.8426
 11
-79.5691
 21
86.5334
  0
LINE
  8
0
 10
-79.5691
 20
86.5334
 11
-78.0546
 21
87.8971
  0
LINE
  8
0
 10
-78.0546
 20
87.8971
 11
-77.9928
 21
87.4865
  0
LINE
  8
0
 10
-77.9928
 20
87.4865
 11
-77.9231
 21
87.1013
  0
LINE
  8
0
 10
-77.9231
 20
87.1013
 11
-77.8455
 21
86.7417
  0
LINE
  8
0
 10
-77.8455
 20
86.7417
 11
-77.76
 21
86.4076
  0
LINE
  8
0
 10
-77.76
 20
86.4076
 11
-77.6666
 21
86.099
  0
LINE
  8
0
 10
-77.6666
 20
86.099
 11
-77.5653
 21
85.8159
  0
LINE
  8
0
 10
-77.5653
 20
85.8159
 11
-77.4552
 21
85.5529
  0
LINE
  8
0
 10
-77.4552
 20
85.5529
 11
-77.3352
 21
85.3046
  0
LINE
  8
0
 10
-77.3352
 20
85.3046
 11
-77.2054
 21
85.0709
  0
LINE
  8
0
 10
-77.2054
 20
85.0709
 11
-77.0658
 21
84.852
  0
LINE
  8
0
 10
-77.0658
 20
84.852
 11
-76.9163
 21
84.6476
  0
LINE
  8
0
 10
-76.9163
 20
84.6476
 11
-76.757
 21
84.458
  0
LINE
  8
0
 10
-76.757
 20
84.458
 11
-76.3773
 21
84.7999
  0
LINE
  8
0
 10
-85.5997
 20
75.8253
 11
-85.4524
 21
75.8569
  0
LINE
  8
0
 10
-85.4524
 20
75.8569
 11
-85.3072
 21
75.9102
  0
LINE
  8
0
 10
-85.3072
 20
75.9102
 11
-85.1641
 21
75.9851
  0
LINE
  8
0
 10
-85.1641
 20
75.9851
 11
-85.0231
 21
76.0818
  0
LINE
  8
0
 10
-85.0231
 20
76.0818
 11
-84.8841
 21
76.2001
  0
LINE
  8
0
 10
-84.8841
 20
76.2001
 11
-84.7473
 21
76.3401
  0
LINE
  8
0
 10
-84.7473
 20
76.3401
 11
-84.6191
 21
76.4946
  0
LINE
  8
0
 10
-84.6191
 20
76.4946
 11
-84.514
 21
76.648
  0
LINE
  8
0
 10
-84.514
 20
76.648
 11
-84.4319
 21
76.8003
  0
LINE
  8
0
 10
-84.4319
 20
76.8003
 11
-84.3727
 21
76.9514
  0
LINE
  8
0
 10
-84.3727
 20
76.9514
 11
-84.3365
 21
77.1014
  0
LINE
  8
0
 10
-84.3365
 20
77.1014
 11
-84.3234
 21
77.2503
  0
LINE
  8
0
 10
-84.3234
 20
77.2503
 11
-84.3327
 21
77.3964
  0
LINE
  8
0
 10
-84.3327
 20
77.3964
 11
-84.3642
 21
77.5374
  0
LINE
  8
0
 10
-84.3642
 20
77.5374
 11
-84.4176
 21
77.6732
  0
LINE
  8
0
 10
-84.4176
 20
77.6732
 11
-84.4931
 21
77.8038
  0
LINE
  8
0
 10
-84.4931
 20
77.8038
 11
-84.5905
 21
77.9291
  0
LINE
  8
0
 10
-84.5905
 20
77.9291
 11
-84.7101
 21
78.0492
  0
LINE
  8
0
 10
-84.7101
 20
78.0492
 11
-84.8042
 21
78.1264
  0
LINE
  8
0
 10
-84.8042
 20
78.1264
 11
-84.9007
 21
78.1905
  0
LINE
  8
0
 10
-84.9007
 20
78.1905
 11
-84.9995
 21
78.2415
  0
LINE
  8
0
 10
-84.9995
 20
78.2415
 11
-85.1007
 21
78.2796
  0
LINE
  8
0
 10
-85.1007
 20
78.2796
 11
-85.2044
 21
78.3046
  0
LINE
  8
0
 10
-85.2044
 20
78.3046
 11
-85.3104
 21
78.3166
  0
LINE
  8
0
 10
-85.3104
 20
78.3166
 11
-85.4164
 21
78.3154
  0
LINE
  8
0
 10
-85.4164
 20
78.3154
 11
-85.5206
 21
78.3005
  0
LINE
  8
0
 10
-85.5206
 20
78.3005
 11
-85.6229
 21
78.2717
  0
LINE
  8
0
 10
-85.6229
 20
78.2717
 11
-85.7234
 21
78.2292
  0
LINE
  8
0
 10
-85.7234
 20
78.2292
 11
-85.822
 21
78.1728
  0
LINE
  8
0
 10
-85.822
 20
78.1728
 11
-85.9187
 21
78.1027
  0
LINE
  8
0
 10
-85.9187
 20
78.1027
 11
-85.9269
 21
78.1101
  0
LINE
  8
0
 10
-85.9269
 20
78.1101
 11
-85.8792
 21
78.2026
  0
LINE
  8
0
 10
-85.8792
 20
78.2026
 11
-85.8441
 21
78.2966
  0
LINE
  8
0
 10
-85.8441
 20
78.2966
 11
-85.8215
 21
78.3919
  0
LINE
  8
0
 10
-85.8215
 20
78.3919
 11
-85.8114
 21
78.4888
  0
LINE
  8
0
 10
-85.8114
 20
78.4888
 11
-85.8139
 21
78.587
  0
LINE
  8
0
 10
-85.8139
 20
78.587
 11
-85.829
 21
78.6866
  0
LINE
  8
0
 10
-85.829
 20
78.6866
 11
-85.8557
 21
78.7851
  0
LINE
  8
0
 10
-85.8557
 20
78.7851
 11
-85.8926
 21
78.8793
  0
LINE
  8
0
 10
-85.8926
 20
78.8793
 11
-85.9399
 21
78.9692
  0
LINE
  8
0
 10
-85.9399
 20
78.9692
 11
-85.9974
 21
79.0548
  0
LINE
  8
0
 10
-85.9974
 20
79.0548
 11
-86.0652
 21
79.1362
  0
LINE
  8
0
 10
-86.0652
 20
79.1362
 11
-86.1433
 21
79.2133
  0
LINE
  8
0
 10
-86.1433
 20
79.2133
 11
-86.2603
 21
79.3065
  0
LINE
  8
0
 10
-86.2603
 20
79.3065
 11
-86.3815
 21
79.3791
  0
LINE
  8
0
 10
-86.3815
 20
79.3791
 11
-86.5069
 21
79.4312
  0
LINE
  8
0
 10
-86.5069
 20
79.4312
 11
-86.6363
 21
79.4628
  0
LINE
  8
0
 10
-86.6363
 20
79.4628
 11
-86.77
 21
79.4738
  0
LINE
  8
0
 10
-86.77
 20
79.4738
 11
-86.9077
 21
79.4642
  0
LINE
  8
0
 10
-86.9077
 20
79.4642
 11
-87.0464
 21
79.4345
  0
LINE
  8
0
 10
-87.0464
 20
79.4345
 11
-87.1826
 21
79.3848
  0
LINE
  8
0
 10
-87.1826
 20
79.3848
 11
-87.3163
 21
79.3154
  0
LINE
  8
0
 10
-87.3163
 20
79.3154
 11
-87.4476
 21
79.226
  0
LINE
  8
0
 10
-87.4476
 20
79.226
 11
-87.5764
 21
79.1168
  0
LINE
  8
0
 10
-87.5764
 20
79.1168
 11
-87.7027
 21
78.9878
  0
LINE
  8
0
 10
-87.7027
 20
78.9878
 11
-87.8151
 21
78.8515
  0
LINE
  8
0
 10
-87.8151
 20
78.8515
 11
-87.9077
 21
78.7141
  0
LINE
  8
0
 10
-87.9077
 20
78.7141
 11
-87.9805
 21
78.5755
  0
LINE
  8
0
 10
-87.9805
 20
78.5755
 11
-88.0335
 21
78.4358
  0
LINE
  8
0
 10
-88.0335
 20
78.4358
 11
-88.0668
 21
78.295
  0
LINE
  8
0
 10
-88.0668
 20
78.295
 11
-88.0803
 21
78.153
  0
LINE
  8
0
 10
-88.0803
 20
78.153
 11
-88.0746
 21
78.0143
  0
LINE
  8
0
 10
-88.0746
 20
78.0143
 11
-88.0498
 21
77.8826
  0
LINE
  8
0
 10
-88.0498
 20
77.8826
 11
-88.006
 21
77.7581
  0
LINE
  8
0
 10
-88.006
 20
77.7581
 11
-87.943
 21
77.6406
  0
LINE
  8
0
 10
-87.943
 20
77.6406
 11
-87.8609
 21
77.5303
  0
LINE
  8
0
 10
-87.8609
 20
77.5303
 11
-87.7597
 21
77.427
  0
LINE
  8
0
 10
-87.7597
 20
77.427
 11
-87.6749
 21
77.3574
  0
LINE
  8
0
 10
-87.6749
 20
77.3574
 11
-87.5871
 21
77.2983
  0
LINE
  8
0
 10
-87.5871
 20
77.2983
 11
-87.496
 21
77.2499
  0
LINE
  8
0
 10
-87.496
 20
77.2499
 11
-87.402
 21
77.212
  0
LINE
  8
0
 10
-87.402
 20
77.212
 11
-87.3048
 21
77.1847
  0
LINE
  8
0
 10
-87.3048
 20
77.1847
 11
-87.2045
 21
77.168
  0
LINE
  8
0
 10
-87.2045
 20
77.168
 11
-87.1036
 21
77.1627
  0
LINE
  8
0
 10
-87.1036
 20
77.1627
 11
-87.0051
 21
77.1694
  0
LINE
  8
0
 10
-87.0051
 20
77.1694
 11
-86.909
 21
77.1879
  0
LINE
  8
0
 10
-86.909
 20
77.1879
 11
-86.8153
 21
77.2183
  0
LINE
  8
0
 10
-86.8153
 20
77.2183
 11
-86.724
 21
77.2605
  0
LINE
  8
0
 10
-86.724
 20
77.2605
 11
-86.6351
 21
77.3146
  0
LINE
  8
0
 10
-86.6351
 20
77.3146
 11
-86.6269
 21
77.3073
  0
LINE
  8
0
 10
-86.6269
 20
77.3073
 11
-86.6812
 21
77.2117
  0
LINE
  8
0
 10
-86.6812
 20
77.2117
 11
-86.7229
 21
77.1137
  0
LINE
  8
0
 10
-86.7229
 20
77.1137
 11
-86.7518
 21
77.0131
  0
LINE
  8
0
 10
-86.7518
 20
77.0131
 11
-86.7681
 21
76.91
  0
LINE
  8
0
 10
-86.7681
 20
76.91
 11
-86.7718
 21
76.8043
  0
LINE
  8
0
 10
-86.7718
 20
76.8043
 11
-86.7627
 21
76.6962
  0
LINE
  8
0
 10
-86.7627
 20
76.6962
 11
-86.7409
 21
76.589
  0
LINE
  8
0
 10
-86.7409
 20
76.589
 11
-86.7063
 21
76.4862
  0
LINE
  8
0
 10
-86.7063
 20
76.4862
 11
-86.6589
 21
76.3878
  0
LINE
  8
0
 10
-86.6589
 20
76.3878
 11
-86.5987
 21
76.2938
  0
LINE
  8
0
 10
-86.5987
 20
76.2938
 11
-86.5258
 21
76.2042
  0
LINE
  8
0
 10
-86.5258
 20
76.2042
 11
-86.44
 21
76.119
  0
LINE
  8
0
 10
-86.44
 20
76.119
 11
-86.3068
 21
76.012
  0
LINE
  8
0
 10
-86.3068
 20
76.012
 11
-86.1709
 21
75.9282
  0
LINE
  8
0
 10
-86.1709
 20
75.9282
 11
-86.0322
 21
75.8676
  0
LINE
  8
0
 10
-86.0322
 20
75.8676
 11
-85.8908
 21
75.8303
  0
LINE
  8
0
 10
-85.8908
 20
75.8303
 11
-85.7466
 21
75.8162
  0
LINE
  8
0
 10
-85.7466
 20
75.8162
 11
-85.5997
 21
75.8253
  0
LINE
  8
0
 10
-86.9803
 20
77.5691
 11
-87.065
 21
77.5838
  0
LINE
  8
0
 10
-87.065
 20
77.5838
 11
-87.1495
 21
77.612
  0
LINE
  8
0
 10
-87.1495
 20
77.612
 11
-87.2339
 21
77.6537
  0
LINE
  8
0
 10
-87.2339
 20
77.6537
 11
-87.3181
 21
77.709
  0
LINE
  8
0
 10
-87.3181
 20
77.709
 11
-87.4021
 21
77.7779
  0
LINE
  8
0
 10
-87.4021
 20
77.7779
 11
-87.4779
 21
77.8528
  0
LINE
  8
0
 10
-87.4779
 20
77.8528
 11
-87.5402
 21
77.9289
  0
LINE
  8
0
 10
-87.5402
 20
77.9289
 11
-87.5891
 21
78.0062
  0
LINE
  8
0
 10
-87.5891
 20
78.0062
 11
-87.6246
 21
78.0847
  0
LINE
  8
0
 10
-87.6246
 20
78.0847
 11
-87.6467
 21
78.1644
  0
LINE
  8
0
 10
-87.6467
 20
78.1644
 11
-87.6553
 21
78.2454
  0
LINE
  8
0
 10
-87.6553
 20
78.2454
 11
-87.6505
 21
78.3274
  0
LINE
  8
0
 10
-87.6505
 20
78.3274
 11
-87.6329
 21
78.4098
  0
LINE
  8
0
 10
-87.6329
 20
78.4098
 11
-87.6022
 21
78.4926
  0
LINE
  8
0
 10
-87.6022
 20
78.4926
 11
-87.5587
 21
78.5759
  0
LINE
  8
0
 10
-87.5587
 20
78.5759
 11
-87.5023
 21
78.6595
  0
LINE
  8
0
 10
-87.5023
 20
78.6595
 11
-87.4329
 21
78.7435
  0
LINE
  8
0
 10
-87.4329
 20
78.7435
 11
-87.2754
 21
78.8907
  0
LINE
  8
0
 10
-87.2754
 20
78.8907
 11
-87.1163
 21
78.984
  0
LINE
  8
0
 10
-87.1163
 20
78.984
 11
-86.9558
 21
79.0234
  0
LINE
  8
0
 10
-86.9558
 20
79.0234
 11
-86.7938
 21
79.0089
  0
LINE
  8
0
 10
-86.7938
 20
79.0089
 11
-86.6303
 21
78.9405
  0
LINE
  8
0
 10
-86.6303
 20
78.9405
 11
-86.4653
 21
78.8183
  0
LINE
  8
0
 10
-86.4653
 20
78.8183
 11
-86.382
 21
78.7365
  0
LINE
  8
0
 10
-86.382
 20
78.7365
 11
-86.3136
 21
78.6549
  0
LINE
  8
0
 10
-86.3136
 20
78.6549
 11
-86.2603
 21
78.5734
  0
LINE
  8
0
 10
-86.2603
 20
78.5734
 11
-86.222
 21
78.4921
  0
LINE
  8
0
 10
-86.222
 20
78.4921
 11
-86.1987
 21
78.4109
  0
LINE
  8
0
 10
-86.1987
 20
78.4109
 11
-86.1905
 21
78.3299
  0
LINE
  8
0
 10
-86.1905
 20
78.3299
 11
-86.196
 21
78.249
  0
LINE
  8
0
 10
-86.196
 20
78.249
 11
-86.2142
 21
78.1674
  0
LINE
  8
0
 10
-86.2142
 20
78.1674
 11
-86.2453
 21
78.0853
  0
LINE
  8
0
 10
-86.2453
 20
78.0853
 11
-86.2892
 21
78.0025
  0
LINE
  8
0
 10
-86.2892
 20
78.0025
 11
-86.3458
 21
77.9192
  0
LINE
  8
0
 10
-86.3458
 20
77.9192
 11
-86.4152
 21
77.8353
  0
LINE
  8
0
 10
-86.4152
 20
77.8353
 11
-86.491
 21
77.7585
  0
LINE
  8
0
 10
-86.491
 20
77.7585
 11
-86.5685
 21
77.6946
  0
LINE
  8
0
 10
-86.5685
 20
77.6946
 11
-86.6477
 21
77.6436
  0
LINE
  8
0
 10
-86.6477
 20
77.6436
 11
-86.7286
 21
77.6055
  0
LINE
  8
0
 10
-86.7286
 20
77.6055
 11
-86.8112
 21
77.5803
  0
LINE
  8
0
 10
-86.8112
 20
77.5803
 11
-86.8954
 21
77.5679
  0
LINE
  8
0
 10
-86.8954
 20
77.5679
 11
-86.9803
 21
77.5691
  0
LINE
  8
0
 10
-85.749
 20
76.2968
 11
-85.9391
 21
76.3786
  0
LINE
  8
0
 10
-85.9391
 20
76.3786
 11
-86.1319
 21
76.5225
  0
LINE
  8
0
 10
-86.1319
 20
76.5225
 11
-86.2086
 21
76.5992
  0
LINE
  8
0
 10
-86.2086
 20
76.5992
 11
-86.2716
 21
76.679
  0
LINE
  8
0
 10
-86.2716
 20
76.679
 11
-86.3209
 21
76.762
  0
LINE
  8
0
 10
-86.3209
 20
76.762
 11
-86.3566
 21
76.8481
  0
LINE
  8
0
 10
-86.3566
 20
76.8481
 11
-86.3787
 21
76.9372
  0
LINE
  8
0
 10
-86.3787
 20
76.9372
 11
-86.3872
 21
77.0295
  0
LINE
  8
0
 10
-86.3872
 20
77.0295
 11
-86.3819
 21
77.1236
  0
LINE
  8
0
 10
-86.3819
 20
77.1236
 11
-86.3626
 21
77.2171
  0
LINE
  8
0
 10
-86.3626
 20
77.2171
 11
-86.3295
 21
77.31
  0
LINE
  8
0
 10
-86.3295
 20
77.31
 11
-86.2824
 21
77.4023
  0
LINE
  8
0
 10
-86.2824
 20
77.4023
 11
-86.2214
 21
77.494
  0
LINE
  8
0
 10
-86.2214
 20
77.494
 11
-86.1465
 21
77.5852
  0
LINE
  8
0
 10
-86.1465
 20
77.5852
 11
-86.0615
 21
77.6723
  0
LINE
  8
0
 10
-86.0615
 20
77.6723
 11
-85.9753
 21
77.7457
  0
LINE
  8
0
 10
-85.9753
 20
77.7457
 11
-85.8881
 21
77.8053
  0
LINE
  8
0
 10
-85.8881
 20
77.8053
 11
-85.7998
 21
77.8514
  0
LINE
  8
0
 10
-85.7998
 20
77.8514
 11
-85.7105
 21
77.8837
  0
LINE
  8
0
 10
-85.7105
 20
77.8837
 11
-85.6201
 21
77.9024
  0
LINE
  8
0
 10
-85.6201
 20
77.9024
 11
-85.5294
 21
77.9067
  0
LINE
  8
0
 10
-85.5294
 20
77.9067
 11
-85.4393
 21
77.8959
  0
LINE
  8
0
 10
-85.4393
 20
77.8959
 11
-85.3498
 21
77.87
  0
LINE
  8
0
 10
-85.3498
 20
77.87
 11
-85.2609
 21
77.829
  0
LINE
  8
0
 10
-85.2609
 20
77.829
 11
-85.1726
 21
77.7729
  0
LINE
  8
0
 10
-85.1726
 20
77.7729
 11
-85.0849
 21
77.7018
  0
LINE
  8
0
 10
-85.0849
 20
77.7018
 11
-84.9903
 21
77.6094
  0
LINE
  8
0
 10
-84.9903
 20
77.6094
 11
-84.9122
 21
77.5174
  0
LINE
  8
0
 10
-84.9122
 20
77.5174
 11
-84.8505
 21
77.4259
  0
LINE
  8
0
 10
-84.8505
 20
77.4259
 11
-84.8054
 21
77.3347
  0
LINE
  8
0
 10
-84.8054
 20
77.3347
 11
-84.7766
 21
77.2439
  0
LINE
  8
0
 10
-84.7766
 20
77.2439
 11
-84.7644
 21
77.1535
  0
LINE
  8
0
 10
-84.7644
 20
77.1535
 11
-84.768
 21
77.0627
  0
LINE
  8
0
 10
-84.768
 20
77.0627
 11
-84.787
 21
76.9707
  0
LINE
  8
0
 10
-84.787
 20
76.9707
 11
-84.8213
 21
76.8774
  0
LINE
  8
0
 10
-84.8213
 20
76.8774
 11
-84.8708
 21
76.7829
  0
LINE
  8
0
 10
-84.8708
 20
76.7829
 11
-84.9358
 21
76.6871
  0
LINE
  8
0
 10
-84.9358
 20
76.6871
 11
-85.016
 21
76.5902
  0
LINE
  8
0
 10
-85.016
 20
76.5902
 11
-85.1951
 21
76.4238
  0
LINE
  8
0
 10
-85.1951
 20
76.4238
 11
-85.377
 21
76.3194
  0
LINE
  8
0
 10
-85.377
 20
76.3194
 11
-85.5616
 21
76.2771
  0
LINE
  8
0
 10
-85.5616
 20
76.2771
 11
-85.749
 21
76.2968
  0
LINE
  8
0
 10
-93.0015
 20
66.4863
 11
-92.8952
 21
66.5144
  0
LINE
  8
0
 10
-92.8952
 20
66.5144
 11
-92.793
 21
66.5569
  0
LINE
  8
0
 10
-92.793
 20
66.5569
 11
-92.6934
 21
66.6136
  0
LINE
  8
0
 10
-92.6934
 20
66.6136
 11
-92.5966
 21
66.6843
  0
LINE
  8
0
 10
-92.5966
 20
66.6843
 11
-92.5025
 21
66.7691
  0
LINE
  8
0
 10
-92.5025
 20
66.7691
 11
-92.4112
 21
66.868
  0
LINE
  8
0
 10
-92.4112
 20
66.868
 11
-92.3227
 21
66.9809
  0
LINE
  8
0
 10
-92.3227
 20
66.9809
 11
-92.2103
 21
67.1608
  0
LINE
  8
0
 10
-92.2103
 20
67.1608
 11
-92.1317
 21
67.3444
  0
LINE
  8
0
 10
-92.1317
 20
67.3444
 11
-92.0871
 21
67.5319
  0
LINE
  8
0
 10
-92.0871
 20
67.5319
 11
-92.0762
 21
67.7231
  0
LINE
  8
0
 10
-92.0762
 20
67.7231
 11
-92.0992
 21
67.9182
  0
LINE
  8
0
 10
-92.0992
 20
67.9182
 11
-92.1561
 21
68.117
  0
LINE
  8
0
 10
-92.1561
 20
68.117
 11
-92.2462
 21
68.3176
  0
LINE
  8
0
 10
-92.2462
 20
68.3176
 11
-92.3686
 21
68.5172
  0
LINE
  8
0
 10
-92.3686
 20
68.5172
 11
-92.5233
 21
68.7157
  0
LINE
  8
0
 10
-92.5233
 20
68.7157
 11
-92.7105
 21
68.9131
  0
LINE
  8
0
 10
-92.7105
 20
68.9131
 11
-92.93
 21
69.1094
  0
LINE
  8
0
 10
-92.93
 20
69.1094
 11
-93.1818
 21
69.3047
  0
LINE
  8
0
 10
-93.1818
 20
69.3047
 11
-93.434
 21
69.4767
  0
LINE
  8
0
 10
-93.434
 20
69.4767
 11
-93.6752
 21
69.6183
  0
LINE
  8
0
 10
-93.6752
 20
69.6183
 11
-93.9056
 21
69.7295
  0
LINE
  8
0
 10
-93.9056
 20
69.7295
 11
-94.1252
 21
69.8105
  0
LINE
  8
0
 10
-94.1252
 20
69.8105
 11
-94.3339
 21
69.8611
  0
LINE
  8
0
 10
-94.3339
 20
69.8611
 11
-94.5318
 21
69.8813
  0
LINE
  8
0
 10
-94.5318
 20
69.8813
 11
-94.7183
 21
69.872
  0
LINE
  8
0
 10
-94.7183
 20
69.872
 11
-94.8935
 21
69.8333
  0
LINE
  8
0
 10
-94.8935
 20
69.8333
 11
-95.0573
 21
69.7653
  0
LINE
  8
0
 10
-95.0573
 20
69.7653
 11
-95.2097
 21
69.668
  0
LINE
  8
0
 10
-95.2097
 20
69.668
 11
-95.3508
 21
69.5413
  0
LINE
  8
0
 10
-95.3508
 20
69.5413
 11
-95.4805
 21
69.3852
  0
LINE
  8
0
 10
-95.4805
 20
69.3852
 11
-95.5852
 21
69.2247
  0
LINE
  8
0
 10
-95.5852
 20
69.2247
 11
-95.6656
 21
69.0644
  0
LINE
  8
0
 10
-95.6656
 20
69.0644
 11
-95.7217
 21
68.9044
  0
LINE
  8
0
 10
-95.7217
 20
68.9044
 11
-95.7536
 21
68.7448
  0
LINE
  8
0
 10
-95.7536
 20
68.7448
 11
-95.7612
 21
68.5854
  0
LINE
  8
0
 10
-95.7612
 20
68.5854
 11
-95.7446
 21
68.4263
  0
LINE
  8
0
 10
-95.7446
 20
68.4263
 11
-95.7043
 21
68.2709
  0
LINE
  8
0
 10
-95.7043
 20
68.2709
 11
-95.6414
 21
68.122
  0
LINE
  8
0
 10
-95.6414
 20
68.122
 11
-95.5559
 21
67.9796
  0
LINE
  8
0
 10
-95.5559
 20
67.9796
 11
-95.4477
 21
67.8436
  0
LINE
  8
0
 10
-95.4477
 20
67.8436
 11
-95.3169
 21
67.7142
  0
LINE
  8
0
 10
-95.3169
 20
67.7142
 11
-95.1635
 21
67.5912
  0
LINE
  8
0
 10
-95.1635
 20
67.5912
 11
-95.0035
 21
67.4856
  0
LINE
  8
0
 10
-95.0035
 20
67.4856
 11
-94.8441
 21
67.4014
  0
LINE
  8
0
 10
-94.8441
 20
67.4014
 11
-94.6851
 21
67.3386
  0
LINE
  8
0
 10
-94.6851
 20
67.3386
 11
-94.5267
 21
67.2972
  0
LINE
  8
0
 10
-94.5267
 20
67.2972
 11
-94.3687
 21
67.2773
  0
LINE
  8
0
 10
-94.3687
 20
67.2773
 11
-94.2112
 21
67.2789
  0
LINE
  8
0
 10
-94.2112
 20
67.2789
 11
-94.059
 21
67.3018
  0
LINE
  8
0
 10
-94.059
 20
67.3018
 11
-93.9162
 21
67.3456
  0
LINE
  8
0
 10
-93.9162
 20
67.3456
 11
-93.7829
 21
67.4102
  0
LINE
  8
0
 10
-93.7829
 20
67.4102
 11
-93.6591
 21
67.4958
  0
LINE
  8
0
 10
-93.6591
 20
67.4958
 11
-93.5448
 21
67.6023
  0
LINE
  8
0
 10
-93.5448
 20
67.6023
 11
-93.44
 21
67.7296
  0
LINE
  8
0
 10
-93.44
 20
67.7296
 11
-93.383
 21
67.815
  0
LINE
  8
0
 10
-93.383
 20
67.815
 11
-93.3344
 21
67.903
  0
LINE
  8
0
 10
-93.3344
 20
67.903
 11
-93.294
 21
67.9935
  0
LINE
  8
0
 10
-93.294
 20
67.9935
 11
-93.262
 21
68.0865
  0
LINE
  8
0
 10
-93.262
 20
68.0865
 11
-93.2383
 21
68.1821
  0
LINE
  8
0
 10
-93.2383
 20
68.1821
 11
-93.2229
 21
68.2802
  0
LINE
  8
0
 10
-93.2229
 20
68.2802
 11
-93.2164
 21
68.3777
  0
LINE
  8
0
 10
-93.2164
 20
68.3777
 11
-93.2192
 21
68.4715
  0
LINE
  8
0
 10
-93.2192
 20
68.4715
 11
-93.2313
 21
68.5616
  0
LINE
  8
0
 10
-93.2313
 20
68.5616
 11
-93.2529
 21
68.6481
  0
LINE
  8
0
 10
-93.2529
 20
68.6481
 11
-93.2837
 21
68.7307
  0
LINE
  8
0
 10
-93.2837
 20
68.7307
 11
-93.324
 21
68.8097
  0
LINE
  8
0
 10
-93.324
 20
68.8097
 11
-93.1437
 21
68.6668
  0
LINE
  8
0
 10
-93.1437
 20
68.6668
 11
-92.9854
 21
68.5249
  0
LINE
  8
0
 10
-92.9854
 20
68.5249
 11
-92.849
 21
68.384
  0
LINE
  8
0
 10
-92.849
 20
68.384
 11
-92.7345
 21
68.2441
  0
LINE
  8
0
 10
-92.7345
 20
68.2441
 11
-92.6419
 21
68.1053
  0
LINE
  8
0
 10
-92.6419
 20
68.1053
 11
-92.5713
 21
67.9675
  0
LINE
  8
0
 10
-92.5713
 20
67.9675
 11
-92.5234
 21
67.8322
  0
LINE
  8
0
 10
-92.5234
 20
67.8322
 11
-92.499
 21
67.7012
  0
LINE
  8
0
 10
-92.499
 20
67.7012
 11
-92.4981
 21
67.5744
  0
LINE
  8
0
 10
-92.4981
 20
67.5744
 11
-92.5208
 21
67.4517
  0
LINE
  8
0
 10
-92.5208
 20
67.4517
 11
-92.567
 21
67.3332
  0
LINE
  8
0
 10
-92.567
 20
67.3332
 11
-92.6367
 21
67.219
  0
LINE
  8
0
 10
-92.6367
 20
67.219
 11
-92.7386
 21
67.1014
  0
LINE
  8
0
 10
-92.7386
 20
67.1014
 11
-92.8505
 21
67.0151
  0
LINE
  8
0
 10
-92.8505
 20
67.0151
 11
-92.9725
 21
66.9601
  0
LINE
  8
0
 10
-92.9725
 20
66.9601
 11
-93.1046
 21
66.9365
  0
LINE
  8
0
 10
-93.1046
 20
66.9365
 11
-93.2468
 21
66.9441
  0
LINE
  8
0
 10
-93.2468
 20
66.9441
 11
-93.399
 21
66.983
  0
LINE
  8
0
 10
-93.399
 20
66.983
 11
-93.6145
 21
66.5623
  0
LINE
  8
0
 10
-93.6145
 20
66.5623
 11
-93.4809
 21
66.5183
  0
LINE
  8
0
 10
-93.4809
 20
66.5183
 11
-93.3529
 21
66.4887
  0
LINE
  8
0
 10
-93.3529
 20
66.4887
 11
-93.2303
 21
66.4735
  0
LINE
  8
0
 10
-93.2303
 20
66.4735
 11
-93.1131
 21
66.4727
  0
LINE
  8
0
 10
-93.1131
 20
66.4727
 11
-93.0015
 21
66.4863
  0
LINE
  8
0
 10
-94.3116
 20
67.7604
 11
-94.4205
 21
67.7775
  0
LINE
  8
0
 10
-94.4205
 20
67.7775
 11
-94.5309
 21
67.8094
  0
LINE
  8
0
 10
-94.5309
 20
67.8094
 11
-94.6428
 21
67.8561
  0
LINE
  8
0
 10
-94.6428
 20
67.8561
 11
-94.756
 21
67.9177
  0
LINE
  8
0
 10
-94.756
 20
67.9177
 11
-94.8707
 21
67.9941
  0
LINE
  8
0
 10
-94.8707
 20
67.9941
 11
-94.9771
 21
68.0783
  0
LINE
  8
0
 10
-94.9771
 20
68.0783
 11
-95.0689
 21
68.1658
  0
LINE
  8
0
 10
-95.0689
 20
68.1658
 11
-95.1464
 21
68.2565
  0
LINE
  8
0
 10
-95.1464
 20
68.2565
 11
-95.2094
 21
68.3506
  0
LINE
  8
0
 10
-95.2094
 20
68.3506
 11
-95.258
 21
68.4481
  0
LINE
  8
0
 10
-95.258
 20
68.4481
 11
-95.2922
 21
68.5488
  0
LINE
  8
0
 10
-95.2922
 20
68.5488
 11
-95.3115
 21
68.6507
  0
LINE
  8
0
 10
-95.3115
 20
68.6507
 11
-95.3148
 21
68.7512
  0
LINE
  8
0
 10
-95.3148
 20
68.7512
 11
-95.3022
 21
68.8502
  0
LINE
  8
0
 10
-95.3022
 20
68.8502
 11
-95.2736
 21
68.9479
  0
LINE
  8
0
 10
-95.2736
 20
68.9479
 11
-95.2292
 21
69.0441
  0
LINE
  8
0
 10
-95.2292
 20
69.0441
 11
-95.1687
 21
69.1389
  0
LINE
  8
0
 10
-95.1687
 20
69.1389
 11
-95.0958
 21
69.2257
  0
LINE
  8
0
 10
-95.0958
 20
69.2257
 11
-95.0145
 21
69.2966
  0
LINE
  8
0
 10
-95.0145
 20
69.2966
 11
-94.9249
 21
69.3517
  0
LINE
  8
0
 10
-94.9249
 20
69.3517
 11
-94.8269
 21
69.391
  0
LINE
  8
0
 10
-94.8269
 20
69.391
 11
-94.7205
 21
69.4145
  0
LINE
  8
0
 10
-94.7205
 20
69.4145
 11
-94.6058
 21
69.4221
  0
LINE
  8
0
 10
-94.6058
 20
69.4221
 11
-94.4864
 21
69.4143
  0
LINE
  8
0
 10
-94.4864
 20
69.4143
 11
-94.3656
 21
69.3911
  0
LINE
  8
0
 10
-94.3656
 20
69.3911
 11
-94.2432
 21
69.3525
  0
LINE
  8
0
 10
-94.2432
 20
69.3525
 11
-94.1194
 21
69.2984
  0
LINE
  8
0
 10
-94.1194
 20
69.2984
 11
-93.9941
 21
69.2289
  0
LINE
  8
0
 10
-93.9941
 20
69.2289
 11
-93.8673
 21
69.1439
  0
LINE
  8
0
 10
-93.8673
 20
69.1439
 11
-93.8078
 21
69.0971
  0
LINE
  8
0
 10
-93.8078
 20
69.0971
 11
-93.7539
 21
69.0474
  0
LINE
  8
0
 10
-93.7539
 20
69.0474
 11
-93.7057
 21
68.9946
  0
LINE
  8
0
 10
-93.7057
 20
68.9946
 11
-93.663
 21
68.9389
  0
LINE
  8
0
 10
-93.663
 20
68.9389
 11
-93.6259
 21
68.8801
  0
LINE
  8
0
 10
-93.6259
 20
68.8801
 11
-93.5945
 21
68.8184
  0
LINE
  8
0
 10
-93.5945
 20
68.8184
 11
-93.569
 21
68.7548
  0
LINE
  8
0
 10
-93.569
 20
68.7548
 11
-93.5497
 21
68.6904
  0
LINE
  8
0
 10
-93.5497
 20
68.6904
 11
-93.5365
 21
68.6252
  0
LINE
  8
0
 10
-93.5365
 20
68.6252
 11
-93.5296
 21
68.5592
  0
LINE
  8
0
 10
-93.5296
 20
68.5592
 11
-93.5289
 21
68.4924
  0
LINE
  8
0
 10
-93.5289
 20
68.4924
 11
-93.5343
 21
68.4249
  0
LINE
  8
0
 10
-93.5343
 20
68.4249
 11
-93.5456
 21
68.3579
  0
LINE
  8
0
 10
-93.5456
 20
68.3579
 11
-93.5623
 21
68.2929
  0
LINE
  8
0
 10
-93.5623
 20
68.2929
 11
-93.5843
 21
68.2297
  0
LINE
  8
0
 10
-93.5843
 20
68.2297
 11
-93.6118
 21
68.1686
  0
LINE
  8
0
 10
-93.6118
 20
68.1686
 11
-93.6447
 21
68.1093
  0
LINE
  8
0
 10
-93.6447
 20
68.1093
 11
-93.6829
 21
68.052
  0
LINE
  8
0
 10
-93.6829
 20
68.052
 11
-93.7534
 21
67.9668
  0
LINE
  8
0
 10
-93.7534
 20
67.9668
 11
-93.8304
 21
67.896
  0
LINE
  8
0
 10
-93.8304
 20
67.896
 11
-93.914
 21
67.8398
  0
LINE
  8
0
 10
-93.914
 20
67.8398
 11
-94.0041
 21
67.7981
  0
LINE
  8
0
 10
-94.0041
 20
67.7981
 11
-94.1008
 21
67.7709
  0
LINE
  8
0
 10
-94.1008
 20
67.7709
 11
-94.2041
 21
67.7582
  0
LINE
  8
0
 10
-94.2041
 20
67.7582
 11
-94.3116
 21
67.7604
  0
LINE
  8
0
 10
-98.7199
 20
57.8385
 11
-98.5412
 21
57.8913
  0
LINE
  8
0
 10
-98.5412
 20
57.8913
 11
-98.3774
 21
57.974
  0
LINE
  8
0
 10
-98.3774
 20
57.974
 11
-98.2284
 21
58.0867
  0
LINE
  8
0
 10
-98.2284
 20
58.0867
 11
-98.0943
 21
58.2294
  0
LINE
  8
0
 10
-98.0943
 20
58.2294
 11
-97.9751
 21
58.4019
  0
LINE
  8
0
 10
-97.9751
 20
58.4019
 11
-97.8799
 21
58.5894
  0
LINE
  8
0
 10
-97.8799
 20
58.5894
 11
-97.8181
 21
58.7759
  0
LINE
  8
0
 10
-97.8181
 20
58.7759
 11
-97.7897
 21
58.9617
  0
LINE
  8
0
 10
-97.7897
 20
58.9617
 11
-97.7948
 21
59.1465
  0
LINE
  8
0
 10
-97.7948
 20
59.1465
 11
-97.8332
 21
59.3306
  0
LINE
  8
0
 10
-97.8332
 20
59.3306
 11
-97.9051
 21
59.5138
  0
LINE
  8
0
 10
-97.9051
 20
59.5138
 11
-98.0092
 21
59.6953
  0
LINE
  8
0
 10
-98.0092
 20
59.6953
 11
-98.1447
 21
59.8739
  0
LINE
  8
0
 10
-98.1447
 20
59.8739
 11
-98.3115
 21
60.0493
  0
LINE
  8
0
 10
-98.3115
 20
60.0493
 11
-98.5097
 21
60.2218
  0
LINE
  8
0
 10
-98.5097
 20
60.2218
 11
-98.7393
 21
60.3911
  0
LINE
  8
0
 10
-98.7393
 20
60.3911
 11
-99.0002
 21
60.5575
  0
LINE
  8
0
 10
-99.0002
 20
60.5575
 11
-99.2744
 21
60.7106
  0
LINE
  8
0
 10
-99.2744
 20
60.7106
 11
-99.5349
 21
60.8347
  0
LINE
  8
0
 10
-99.5349
 20
60.8347
 11
-99.7814
 21
60.9299
  0
LINE
  8
0
 10
-99.7814
 20
60.9299
 11
-100.014
 21
60.9961
  0
LINE
  8
0
 10
-100.014
 20
60.9961
 11
-100.233
 21
61.0334
  0
LINE
  8
0
 10
-100.233
 20
61.0334
 11
-100.438
 21
61.0417
  0
LINE
  8
0
 10
-100.438
 20
61.0417
 11
-100.629
 21
61.0203
  0
LINE
  8
0
 10
-100.629
 20
61.0203
 11
-100.806
 21
60.9678
  0
LINE
  8
0
 10
-100.806
 20
60.9678
 11
-100.969
 21
60.8842
  0
LINE
  8
0
 10
-100.969
 20
60.8842
 11
-101.119
 21
60.7695
  0
LINE
  8
0
 10
-101.119
 20
60.7695
 11
-101.254
 21
60.6237
  0
LINE
  8
0
 10
-101.254
 20
60.6237
 11
-101.376
 21
60.4469
  0
LINE
  8
0
 10
-101.376
 20
60.4469
 11
-101.476
 21
60.2511
  0
LINE
  8
0
 10
-101.476
 20
60.2511
 11
-101.543
 21
60.0588
  0
LINE
  8
0
 10
-101.543
 20
60.0588
 11
-101.575
 21
59.8701
  0
LINE
  8
0
 10
-101.575
 20
59.8701
 11
-101.573
 21
59.685
  0
LINE
  8
0
 10
-101.573
 20
59.685
 11
-101.537
 21
59.5034
  0
LINE
  8
0
 10
-101.537
 20
59.5034
 11
-101.467
 21
59.3253
  0
LINE
  8
0
 10
-101.467
 20
59.3253
 11
-101.363
 21
59.1501
  0
LINE
  8
0
 10
-101.363
 20
59.1501
 11
-101.226
 21
58.9759
  0
LINE
  8
0
 10
-101.226
 20
58.9759
 11
-101.057
 21
58.8027
  0
LINE
  8
0
 10
-101.057
 20
58.8027
 11
-100.855
 21
58.6306
  0
LINE
  8
0
 10
-100.855
 20
58.6306
 11
-100.62
 21
58.4596
  0
LINE
  8
0
 10
-100.62
 20
58.4596
 11
-100.352
 21
58.2896
  0
LINE
  8
0
 10
-100.352
 20
58.2896
 11
-100.08
 21
58.1384
  0
LINE
  8
0
 10
-100.08
 20
58.1384
 11
-99.8211
 21
58.0161
  0
LINE
  8
0
 10
-99.8211
 20
58.0161
 11
-99.575
 21
57.9226
  0
LINE
  8
0
 10
-99.575
 20
57.9226
 11
-99.3417
 21
57.858
  0
LINE
  8
0
 10
-99.3417
 20
57.858
 11
-99.1212
 21
57.8224
  0
LINE
  8
0
 10
-99.1212
 20
57.8224
 11
-98.9135
 21
57.8157
  0
LINE
  8
0
 10
-98.9135
 20
57.8157
 11
-98.7199
 21
57.8385
  0
LINE
  8
0
 10
-99.1149
 20
58.287
 11
-99.2808
 21
58.3285
  0
LINE
  8
0
 10
-99.2808
 20
58.3285
 11
-99.4621
 21
58.392
  0
LINE
  8
0
 10
-99.4621
 20
58.392
 11
-99.6588
 21
58.4774
  0
LINE
  8
0
 10
-99.6588
 20
58.4774
 11
-99.8711
 21
58.5847
  0
LINE
  8
0
 10
-99.8711
 20
58.5847
 11
-100.099
 21
58.714
  0
LINE
  8
0
 10
-100.099
 20
58.714
 11
-100.327
 21
58.8563
  0
LINE
  8
0
 10
-100.327
 20
58.8563
 11
-100.527
 21
58.9944
  0
LINE
  8
0
 10
-100.527
 20
58.9944
 11
-100.699
 21
59.1282
  0
LINE
  8
0
 10
-100.699
 20
59.1282
 11
-100.843
 21
59.2576
  0
LINE
  8
0
 10
-100.843
 20
59.2576
 11
-100.958
 21
59.3828
  0
LINE
  8
0
 10
-100.958
 20
59.3828
 11
-101.045
 21
59.5036
  0
LINE
  8
0
 10
-101.045
 20
59.5036
 11
-101.105
 21
59.6233
  0
LINE
  8
0
 10
-101.105
 20
59.6233
 11
-101.141
 21
59.7445
  0
LINE
  8
0
 10
-101.141
 20
59.7445
 11
-101.151
 21
59.8671
  0
LINE
  8
0
 10
-101.151
 20
59.8671
 11
-101.137
 21
59.9911
  0
LINE
  8
0
 10
-101.137
 20
59.9911
 11
-101.098
 21
60.1167
  0
LINE
  8
0
 10
-101.098
 20
60.1167
 11
-101.035
 21
60.2437
  0
LINE
  8
0
 10
-101.035
 20
60.2437
 11
-100.955
 21
60.357
  0
LINE
  8
0
 10
-100.955
 20
60.357
 11
-100.864
 21
60.4479
  0
LINE
  8
0
 10
-100.864
 20
60.4479
 11
-100.763
 21
60.5164
  0
LINE
  8
0
 10
-100.763
 20
60.5164
 11
-100.65
 21
60.5624
  0
LINE
  8
0
 10
-100.65
 20
60.5624
 11
-100.527
 21
60.586
  0
LINE
  8
0
 10
-100.527
 20
60.586
 11
-100.392
 21
60.5872
  0
LINE
  8
0
 10
-100.392
 20
60.5872
 11
-100.244
 21
60.5665
  0
LINE
  8
0
 10
-100.244
 20
60.5665
 11
-100.079
 21
60.5237
  0
LINE
  8
0
 10
-100.079
 20
60.5237
 11
-99.8981
 21
60.4587
  0
LINE
  8
0
 10
-99.8981
 20
60.4587
 11
-99.7002
 21
60.3715
  0
LINE
  8
0
 10
-99.7002
 20
60.3715
 11
-99.4857
 21
60.2621
  0
LINE
  8
0
 10
-99.4857
 20
60.2621
 11
-99.2546
 21
60.1305
  0
LINE
  8
0
 10
-99.2546
 20
60.1305
 11
-99.0366
 21
59.9942
  0
LINE
  8
0
 10
-99.0366
 20
59.9942
 11
-98.8441
 21
59.8602
  0
LINE
  8
0
 10
-98.8441
 20
59.8602
 11
-98.6772
 21
59.7286
  0
LINE
  8
0
 10
-98.6772
 20
59.7286
 11
-98.5359
 21
59.5993
  0
LINE
  8
0
 10
-98.5359
 20
59.5993
 11
-98.4201
 21
59.4724
  0
LINE
  8
0
 10
-98.4201
 20
59.4724
 11
-98.3299
 21
59.3479
  0
LINE
  8
0
 10
-98.3299
 20
59.3479
 11
-98.2648
 21
59.2249
  0
LINE
  8
0
 10
-98.2648
 20
59.2249
 11
-98.2249
 21
59.102
  0
LINE
  8
0
 10
-98.2249
 20
59.102
 11
-98.2099
 21
58.9792
  0
LINE
  8
0
 10
-98.2099
 20
58.9792
 11
-98.2201
 21
58.8567
  0
LINE
  8
0
 10
-98.2201
 20
58.8567
 11
-98.2554
 21
58.7342
  0
LINE
  8
0
 10
-98.2554
 20
58.7342
 11
-98.3157
 21
58.6118
  0
LINE
  8
0
 10
-98.3157
 20
58.6118
 11
-98.3948
 21
58.4997
  0
LINE
  8
0
 10
-98.3948
 20
58.4997
 11
-98.4856
 21
58.4094
  0
LINE
  8
0
 10
-98.4856
 20
58.4094
 11
-98.5879
 21
58.341
  0
LINE
  8
0
 10
-98.5879
 20
58.341
 11
-98.7018
 21
58.2946
  0
LINE
  8
0
 10
-98.7018
 20
58.2946
 11
-98.8273
 21
58.27
  0
LINE
  8
0
 10
-98.8273
 20
58.27
 11
-98.9644
 21
58.2674
  0
LINE
  8
0
 10
-98.9644
 20
58.2674
 11
-99.1149
 21
58.287
  0
LINE
  8
0
 10
-98.9775
 20
56.8301
 11
-99.3406
 21
57.0331
  0
LINE
  8
0
 10
-99.3406
 20
57.0331
 11
-99.7959
 21
56.2188
  0
LINE
  8
0
 10
-99.7959
 20
56.2188
 11
-102.785
 21
57.8897
  0
LINE
  8
0
 10
-102.785
 20
57.8897
 11
-103.005
 21
57.4961
  0
LINE
  8
0
 10
-103.005
 20
57.4961
 11
-102.9
 21
56.4007
  0
LINE
  8
0
 10
-102.9
 20
56.4007
 11
-102.497
 21
56.1752
  0
LINE
  8
0
 10
-102.497
 20
56.1752
 11
-102.616
 21
57.2319
  0
LINE
  8
0
 10
-102.616
 20
57.2319
 11
-100.036
 21
55.7894
  0
LINE
  8
0
 10
-100.036
 20
55.7894
 11
-100.512
 21
54.9375
  0
LINE
  8
0
 10
-100.512
 20
54.9375
 11
-100.149
 21
54.7345
  0
LINE
  8
0
 10
-100.149
 20
54.7345
 11
-98.9775
 21
56.8301
  0
LINE
  8
0
 10
-103.062
 20
49.0342
 11
-103.44
 21
49.2086
  0
LINE
  8
0
 10
-103.44
 20
49.2086
 11
-103.831
 21
48.3616
  0
LINE
  8
0
 10
-103.831
 20
48.3616
 11
-106.94
 21
49.7973
  0
LINE
  8
0
 10
-106.94
 20
49.7973
 11
-107.129
 21
49.3879
  0
LINE
  8
0
 10
-107.129
 20
49.3879
 11
-106.94
 21
48.3038
  0
LINE
  8
0
 10
-106.94
 20
48.3038
 11
-106.521
 21
48.1101
  0
LINE
  8
0
 10
-106.521
 20
48.1101
 11
-106.721
 21
49.1544
  0
LINE
  8
0
 10
-106.721
 20
49.1544
 11
-104.038
 21
47.915
  0
LINE
  8
0
 10
-104.038
 20
47.915
 11
-104.447
 21
47.0289
  0
LINE
  8
0
 10
-104.447
 20
47.0289
 11
-104.069
 21
46.8545
  0
LINE
  8
0
 10
-104.069
 20
46.8545
 11
-103.062
 21
49.0342
  0
LINE
  8
0
 10
-104.376
 20
46.1728
 11
-104.758
 21
46.3368
  0
LINE
  8
0
 10
-104.758
 20
46.3368
 11
-105.126
 21
45.4793
  0
LINE
  8
0
 10
-105.126
 20
45.4793
 11
-108.273
 21
46.8287
  0
LINE
  8
0
 10
-108.273
 20
46.8287
 11
-108.45
 21
46.4142
  0
LINE
  8
0
 10
-108.45
 20
46.4142
 11
-108.232
 21
45.3357
  0
LINE
  8
0
 10
-108.232
 20
45.3357
 11
-107.807
 21
45.1537
  0
LINE
  8
0
 10
-107.807
 20
45.1537
 11
-108.036
 21
46.1921
  0
LINE
  8
0
 10
-108.036
 20
46.1921
 11
-105.32
 21
45.0271
  0
LINE
  8
0
 10
-105.32
 20
45.0271
 11
-105.704
 21
44.1301
  0
LINE
  8
0
 10
-105.704
 20
44.1301
 11
-105.322
 21
43.9662
  0
LINE
  8
0
 10
-105.322
 20
43.9662
 11
-104.376
 21
46.1728
  0
LINE
  8
0
 10
-107.6
 20
37.9637
 11
-107.994
 21
38.0977
  0
LINE
  8
0
 10
-107.994
 20
38.0977
 11
-108.631
 21
36.2251
  0
LINE
  8
0
 10
-108.631
 20
36.2251
 11
-108.682
 21
36.274
  0
LINE
  8
0
 10
-108.682
 20
36.274
 11
-108.732
 21
36.3285
  0
LINE
  8
0
 10
-108.732
 20
36.3285
 11
-108.781
 21
36.3886
  0
LINE
  8
0
 10
-108.781
 20
36.3886
 11
-108.829
 21
36.4544
  0
LINE
  8
0
 10
-108.829
 20
36.4544
 11
-108.876
 21
36.5258
  0
LINE
  8
0
 10
-108.876
 20
36.5258
 11
-108.922
 21
36.6029
  0
LINE
  8
0
 10
-108.922
 20
36.6029
 11
-108.968
 21
36.6866
  0
LINE
  8
0
 10
-108.968
 20
36.6866
 11
-109.014
 21
36.7778
  0
LINE
  8
0
 10
-109.014
 20
36.7778
 11
-109.06
 21
36.8766
  0
LINE
  8
0
 10
-109.06
 20
36.8766
 11
-109.107
 21
36.9828
  0
LINE
  8
0
 10
-109.107
 20
36.9828
 11
-109.154
 21
37.0966
  0
LINE
  8
0
 10
-109.154
 20
37.0966
 11
-109.285
 21
37.4336
  0
LINE
  8
0
 10
-109.285
 20
37.4336
 11
-109.362
 21
37.6259
  0
LINE
  8
0
 10
-109.362
 20
37.6259
 11
-109.432
 21
37.7948
  0
LINE
  8
0
 10
-109.432
 20
37.7948
 11
-109.496
 21
37.9401
  0
LINE
  8
0
 10
-109.496
 20
37.9401
 11
-109.554
 21
38.0619
  0
LINE
  8
0
 10
-109.554
 20
38.0619
 11
-109.606
 21
38.1601
  0
LINE
  8
0
 10
-109.606
 20
38.1601
 11
-109.655
 21
38.2441
  0
LINE
  8
0
 10
-109.655
 20
38.2441
 11
-109.706
 21
38.3229
  0
LINE
  8
0
 10
-109.706
 20
38.3229
 11
-109.759
 21
38.3965
  0
LINE
  8
0
 10
-109.759
 20
38.3965
 11
-109.813
 21
38.465
  0
LINE
  8
0
 10
-109.813
 20
38.465
 11
-109.87
 21
38.5284
  0
LINE
  8
0
 10
-109.87
 20
38.5284
 11
-109.928
 21
38.5865
  0
LINE
  8
0
 10
-109.928
 20
38.5865
 11
-109.988
 21
38.6396
  0
LINE
  8
0
 10
-109.988
 20
38.6396
 11
-110.05
 21
38.6874
  0
LINE
  8
0
 10
-110.05
 20
38.6874
 11
-110.114
 21
38.7299
  0
LINE
  8
0
 10
-110.114
 20
38.7299
 11
-110.18
 21
38.7672
  0
LINE
  8
0
 10
-110.18
 20
38.7672
 11
-110.247
 21
38.7991
  0
LINE
  8
0
 10
-110.247
 20
38.7991
 11
-110.317
 21
38.8258
  0
LINE
  8
0
 10
-110.317
 20
38.8258
 11
-110.473
 21
38.8698
  0
LINE
  8
0
 10
-110.473
 20
38.8698
 11
-110.623
 21
38.8935
  0
LINE
  8
0
 10
-110.623
 20
38.8935
 11
-110.766
 21
38.8967
  0
LINE
  8
0
 10
-110.766
 20
38.8967
 11
-110.902
 21
38.8796
  0
LINE
  8
0
 10
-110.902
 20
38.8796
 11
-111.031
 21
38.8421
  0
LINE
  8
0
 10
-111.031
 20
38.8421
 11
-111.154
 21
38.7842
  0
LINE
  8
0
 10
-111.154
 20
38.7842
 11
-111.269
 21
38.7068
  0
LINE
  8
0
 10
-111.269
 20
38.7068
 11
-111.375
 21
38.6105
  0
LINE
  8
0
 10
-111.375
 20
38.6105
 11
-111.47
 21
38.4954
  0
LINE
  8
0
 10
-111.47
 20
38.4954
 11
-111.556
 21
38.3614
  0
LINE
  8
0
 10
-111.556
 20
38.3614
 11
-111.633
 21
38.2085
  0
LINE
  8
0
 10
-111.633
 20
38.2085
 11
-111.699
 21
38.0368
  0
LINE
  8
0
 10
-111.699
 20
38.0368
 11
-111.746
 21
37.8741
  0
LINE
  8
0
 10
-111.746
 20
37.8741
 11
-111.776
 21
37.7165
  0
LINE
  8
0
 10
-111.776
 20
37.7165
 11
-111.788
 21
37.5641
  0
LINE
  8
0
 10
-111.788
 20
37.5641
 11
-111.782
 21
37.4168
  0
LINE
  8
0
 10
-111.782
 20
37.4168
 11
-111.759
 21
37.2748
  0
LINE
  8
0
 10
-111.759
 20
37.2748
 11
-111.718
 21
37.1379
  0
LINE
  8
0
 10
-111.718
 20
37.1379
 11
-111.66
 21
37.0093
  0
LINE
  8
0
 10
-111.66
 20
37.0093
 11
-111.588
 21
36.892
  0
LINE
  8
0
 10
-111.588
 20
36.892
 11
-111.5
 21
36.7859
  0
LINE
  8
0
 10
-111.5
 20
36.7859
 11
-111.398
 21
36.6912
  0
LINE
  8
0
 10
-111.398
 20
36.6912
 11
-111.281
 21
36.6078
  0
LINE
  8
0
 10
-111.281
 20
36.6078
 11
-111.149
 21
36.5358
  0
LINE
  8
0
 10
-111.149
 20
36.5358
 11
-110.945
 21
36.9943
  0
LINE
  8
0
 10
-110.945
 20
36.9943
 11
-111.033
 21
37.0415
  0
LINE
  8
0
 10
-111.033
 20
37.0415
 11
-111.111
 21
37.0949
  0
LINE
  8
0
 10
-111.111
 20
37.0949
 11
-111.179
 21
37.1546
  0
LINE
  8
0
 10
-111.179
 20
37.1546
 11
-111.237
 21
37.2204
  0
LINE
  8
0
 10
-111.237
 20
37.2204
 11
-111.284
 21
37.2925
  0
LINE
  8
0
 10
-111.284
 20
37.2925
 11
-111.321
 21
37.3707
  0
LINE
  8
0
 10
-111.321
 20
37.3707
 11
-111.348
 21
37.4534
  0
LINE
  8
0
 10
-111.348
 20
37.4534
 11
-111.364
 21
37.5387
  0
LINE
  8
0
 10
-111.364
 20
37.5387
 11
-111.369
 21
37.6267
  0
LINE
  8
0
 10
-111.369
 20
37.6267
 11
-111.363
 21
37.7173
  0
LINE
  8
0
 10
-111.363
 20
37.7173
 11
-111.346
 21
37.8105
  0
LINE
  8
0
 10
-111.346
 20
37.8105
 11
-111.319
 21
37.9064
  0
LINE
  8
0
 10
-111.319
 20
37.9064
 11
-111.281
 21
38.0036
  0
LINE
  8
0
 10
-111.281
 20
38.0036
 11
-111.236
 21
38.0902
  0
LINE
  8
0
 10
-111.236
 20
38.0902
 11
-111.184
 21
38.166
  0
LINE
  8
0
 10
-111.184
 20
38.166
 11
-111.126
 21
38.2313
  0
LINE
  8
0
 10
-111.126
 20
38.2313
 11
-111.061
 21
38.2858
  0
LINE
  8
0
 10
-111.061
 20
38.2858
 11
-110.989
 21
38.3297
  0
LINE
  8
0
 10
-110.989
 20
38.3297
 11
-110.912
 21
38.3625
  0
LINE
  8
0
 10
-110.912
 20
38.3625
 11
-110.831
 21
38.3832
  0
LINE
  8
0
 10
-110.831
 20
38.3832
 11
-110.745
 21
38.3917
  0
LINE
  8
0
 10
-110.745
 20
38.3917
 11
-110.655
 21
38.388
  0
LINE
  8
0
 10
-110.655
 20
38.388
 11
-110.561
 21
38.3722
  0
LINE
  8
0
 10
-110.561
 20
38.3722
 11
-110.463
 21
38.3441
  0
LINE
  8
0
 10
-110.463
 20
38.3441
 11
-110.391
 21
38.3165
  0
LINE
  8
0
 10
-110.391
 20
38.3165
 11
-110.324
 21
38.2842
  0
LINE
  8
0
 10
-110.324
 20
38.2842
 11
-110.261
 21
38.2471
  0
LINE
  8
0
 10
-110.261
 20
38.2471
 11
-110.202
 21
38.2052
  0
LINE
  8
0
 10
-110.202
 20
38.2052
 11
-110.149
 21
38.1586
  0
LINE
  8
0
 10
-110.149
 20
38.1586
 11
-110.099
 21
38.1072
  0
LINE
  8
0
 10
-110.099
 20
38.1072
 11
-110.053
 21
38.0523
  0
LINE
  8
0
 10
-110.053
 20
38.0523
 11
-110.009
 21
37.9942
  0
LINE
  8
0
 10
-110.009
 20
37.9942
 11
-109.967
 21
37.9329
  0
LINE
  8
0
 10
-109.967
 20
37.9329
 11
-109.927
 21
37.8684
  0
LINE
  8
0
 10
-109.927
 20
37.8684
 11
-109.889
 21
37.8006
  0
LINE
  8
0
 10
-109.889
 20
37.8006
 11
-109.853
 21
37.7297
  0
LINE
  8
0
 10
-109.853
 20
37.7297
 11
-109.784
 21
37.5804
  0
LINE
  8
0
 10
-109.784
 20
37.5804
 11
-109.719
 21
37.4222
  0
LINE
  8
0
 10
-109.719
 20
37.4222
 11
-109.592
 21
37.0823
  0
LINE
  8
0
 10
-109.592
 20
37.0823
 11
-109.523
 21
36.9065
  0
LINE
  8
0
 10
-109.523
 20
36.9065
 11
-109.448
 21
36.7279
  0
LINE
  8
0
 10
-109.448
 20
36.7279
 11
-109.407
 21
36.638
  0
LINE
  8
0
 10
-109.407
 20
36.638
 11
-109.364
 21
36.5482
  0
LINE
  8
0
 10
-109.364
 20
36.5482
 11
-109.318
 21
36.4588
  0
LINE
  8
0
 10
-109.318
 20
36.4588
 11
-109.269
 21
36.3695
  0
LINE
  8
0
 10
-109.269
 20
36.3695
 11
-109.218
 21
36.2805
  0
LINE
  8
0
 10
-109.218
 20
36.2805
 11
-109.163
 21
36.1917
  0
LINE
  8
0
 10
-109.163
 20
36.1917
 11
-109.105
 21
36.104
  0
LINE
  8
0
 10
-109.105
 20
36.104
 11
-109.042
 21
36.0181
  0
LINE
  8
0
 10
-109.042
 20
36.0181
 11
-108.973
 21
35.934
  0
LINE
  8
0
 10
-108.973
 20
35.934
 11
-108.9
 21
35.8518
  0
LINE
  8
0
 10
-108.9
 20
35.8518
 11
-108.821
 21
35.7714
  0
LINE
  8
0
 10
-108.821
 20
35.7714
 11
-108.737
 21
35.6929
  0
LINE
  8
0
 10
-108.737
 20
35.6929
 11
-108.411
 21
35.5818
  0
LINE
  8
0
 10
-108.411
 20
35.5818
 11
-107.6
 21
37.9637
  0
LINE
  8
0
 10
-108.63
 20
35.0097
 11
-109.028
 21
35.1328
  0
LINE
  8
0
 10
-109.028
 20
35.1328
 11
-109.304
 21
34.2415
  0
LINE
  8
0
 10
-109.304
 20
34.2415
 11
-112.574
 21
35.2546
  0
LINE
  8
0
 10
-112.574
 20
35.2546
 11
-112.708
 21
34.8238
  0
LINE
  8
0
 10
-112.708
 20
34.8238
 11
-112.378
 21
33.7741
  0
LINE
  8
0
 10
-112.378
 20
33.7741
 11
-111.936
 21
33.6374
  0
LINE
  8
0
 10
-111.936
 20
33.6374
 11
-112.273
 21
34.6461
  0
LINE
  8
0
 10
-112.273
 20
34.6461
 11
-109.449
 21
33.7716
  0
LINE
  8
0
 10
-109.449
 20
33.7716
 11
-109.738
 21
32.8392
  0
LINE
  8
0
 10
-109.738
 20
32.8392
 11
-109.341
 21
32.7162
  0
LINE
  8
0
 10
-109.341
 20
32.7162
 11
-108.63
 21
35.0097
  0
LINE
  8
0
 10
-112.208
 20
24.2139
 11
-112.062
 21
24.2426
  0
LINE
  8
0
 10
-112.062
 20
24.2426
 11
-111.926
 21
24.2896
  0
LINE
  8
0
 10
-111.926
 20
24.2896
 11
-111.8
 21
24.3548
  0
LINE
  8
0
 10
-111.8
 20
24.3548
 11
-111.684
 21
24.4381
  0
LINE
  8
0
 10
-111.684
 20
24.4381
 11
-111.579
 21
24.5386
  0
LINE
  8
0
 10
-111.579
 20
24.5386
 11
-111.486
 21
24.6548
  0
LINE
  8
0
 10
-111.486
 20
24.6548
 11
-111.403
 21
24.7869
  0
LINE
  8
0
 10
-111.403
 20
24.7869
 11
-111.332
 21
24.9349
  0
LINE
  8
0
 10
-111.332
 20
24.9349
 11
-111.273
 21
25.0986
  0
LINE
  8
0
 10
-111.273
 20
25.0986
 11
-111.225
 21
25.2783
  0
LINE
  8
0
 10
-111.225
 20
25.2783
 11
-111.189
 21
25.4739
  0
LINE
  8
0
 10
-111.189
 20
25.4739
 11
-111.172
 21
25.6576
  0
LINE
  8
0
 10
-111.172
 20
25.6576
 11
-111.175
 21
25.8294
  0
LINE
  8
0
 10
-111.175
 20
25.8294
 11
-111.197
 21
25.9894
  0
LINE
  8
0
 10
-111.197
 20
25.9894
 11
-111.239
 21
26.1375
  0
LINE
  8
0
 10
-111.239
 20
26.1375
 11
-111.3
 21
26.2737
  0
LINE
  8
0
 10
-111.3
 20
26.2737
 11
-111.38
 21
26.3968
  0
LINE
  8
0
 10
-111.38
 20
26.3968
 11
-111.477
 21
26.5046
  0
LINE
  8
0
 10
-111.477
 20
26.5046
 11
-111.591
 21
26.5974
  0
LINE
  8
0
 10
-111.591
 20
26.5974
 11
-111.722
 21
26.6749
  0
LINE
  8
0
 10
-111.722
 20
26.6749
 11
-111.871
 21
26.7372
  0
LINE
  8
0
 10
-111.871
 20
26.7372
 11
-112.036
 21
26.7843
  0
LINE
  8
0
 10
-112.036
 20
26.7843
 11
-112.155
 21
26.8046
  0
LINE
  8
0
 10
-112.155
 20
26.8046
 11
-112.27
 21
26.8103
  0
LINE
  8
0
 10
-112.27
 20
26.8103
 11
-112.381
 21
26.8016
  0
LINE
  8
0
 10
-112.381
 20
26.8016
 11
-112.488
 21
26.7784
  0
LINE
  8
0
 10
-112.488
 20
26.7784
 11
-112.591
 21
26.7408
  0
LINE
  8
0
 10
-112.591
 20
26.7408
 11
-112.69
 21
26.6886
  0
LINE
  8
0
 10
-112.69
 20
26.6886
 11
-112.783
 21
26.6233
  0
LINE
  8
0
 10
-112.783
 20
26.6233
 11
-112.867
 21
26.5453
  0
LINE
  8
0
 10
-112.867
 20
26.5453
 11
-112.943
 21
26.4547
  0
LINE
  8
0
 10
-112.943
 20
26.4547
 11
-113.011
 21
26.3514
  0
LINE
  8
0
 10
-113.011
 20
26.3514
 11
-113.07
 21
26.2354
  0
LINE
  8
0
 10
-113.07
 20
26.2354
 11
-113.121
 21
26.1067
  0
LINE
  8
0
 10
-113.121
 20
26.1067
 11
-113.132
 21
26.1092
  0
LINE
  8
0
 10
-113.132
 20
26.1092
 11
-113.135
 21
26.2375
  0
LINE
  8
0
 10
-113.135
 20
26.2375
 11
-113.149
 21
26.3576
  0
LINE
  8
0
 10
-113.149
 20
26.3576
 11
-113.172
 21
26.4695
  0
LINE
  8
0
 10
-113.172
 20
26.4695
 11
-113.206
 21
26.5731
  0
LINE
  8
0
 10
-113.206
 20
26.5731
 11
-113.251
 21
26.6684
  0
LINE
  8
0
 10
-113.251
 20
26.6684
 11
-113.305
 21
26.7555
  0
LINE
  8
0
 10
-113.305
 20
26.7555
 11
-113.37
 21
26.8341
  0
LINE
  8
0
 10
-113.37
 20
26.8341
 11
-113.444
 21
26.9034
  0
LINE
  8
0
 10
-113.444
 20
26.9034
 11
-113.529
 21
26.9632
  0
LINE
  8
0
 10
-113.529
 20
26.9632
 11
-113.624
 21
27.0137
  0
LINE
  8
0
 10
-113.624
 20
27.0137
 11
-113.728
 21
27.0549
  0
LINE
  8
0
 10
-113.728
 20
27.0549
 11
-113.842
 21
27.0866
  0
LINE
  8
0
 10
-113.842
 20
27.0866
 11
-113.994
 21
27.1121
  0
LINE
  8
0
 10
-113.994
 20
27.1121
 11
-114.139
 21
27.1178
  0
LINE
  8
0
 10
-114.139
 20
27.1178
 11
-114.275
 21
27.1037
  0
LINE
  8
0
 10
-114.275
 20
27.1037
 11
-114.405
 21
27.0699
  0
LINE
  8
0
 10
-114.405
 20
27.0699
 11
-114.527
 21
27.0163
  0
LINE
  8
0
 10
-114.527
 20
27.0163
 11
-114.641
 21
26.9429
  0
LINE
  8
0
 10
-114.641
 20
26.9429
 11
-114.746
 21
26.851
  0
LINE
  8
0
 10
-114.746
 20
26.851
 11
-114.839
 21
26.7421
  0
LINE
  8
0
 10
-114.839
 20
26.7421
 11
-114.921
 21
26.6161
  0
LINE
  8
0
 10
-114.921
 20
26.6161
 11
-114.992
 21
26.4729
  0
LINE
  8
0
 10
-114.992
 20
26.4729
 11
-115.051
 21
26.3126
  0
LINE
  8
0
 10
-115.051
 20
26.3126
 11
-115.099
 21
26.1353
  0
LINE
  8
0
 10
-115.099
 20
26.1353
 11
-115.129
 21
25.9688
  0
LINE
  8
0
 10
-115.129
 20
25.9688
 11
-115.143
 21
25.8094
  0
LINE
  8
0
 10
-115.143
 20
25.8094
 11
-115.14
 21
25.657
  0
LINE
  8
0
 10
-115.14
 20
25.657
 11
-115.12
 21
25.5116
  0
LINE
  8
0
 10
-115.12
 20
25.5116
 11
-115.084
 21
25.3733
  0
LINE
  8
0
 10
-115.084
 20
25.3733
 11
-115.031
 21
25.2421
  0
LINE
  8
0
 10
-115.031
 20
25.2421
 11
-114.963
 21
25.1207
  0
LINE
  8
0
 10
-114.963
 20
25.1207
 11
-114.879
 21
25.0118
  0
LINE
  8
0
 10
-114.879
 20
25.0118
 11
-114.782
 21
24.9155
  0
LINE
  8
0
 10
-114.782
 20
24.9155
 11
-114.669
 21
24.8318
  0
LINE
  8
0
 10
-114.669
 20
24.8318
 11
-114.542
 21
24.7607
  0
LINE
  8
0
 10
-114.542
 20
24.7607
 11
-114.401
 21
24.7022
  0
LINE
  8
0
 10
-114.401
 20
24.7022
 11
-114.255
 21
25.1736
  0
LINE
  8
0
 10
-114.255
 20
25.1736
 11
-114.346
 21
25.2099
  0
LINE
  8
0
 10
-114.346
 20
25.2099
 11
-114.428
 21
25.2535
  0
LINE
  8
0
 10
-114.428
 20
25.2535
 11
-114.5
 21
25.3043
  0
LINE
  8
0
 10
-114.5
 20
25.3043
 11
-114.563
 21
25.3625
  0
LINE
  8
0
 10
-114.563
 20
25.3625
 11
-114.617
 21
25.4278
  0
LINE
  8
0
 10
-114.617
 20
25.4278
 11
-114.661
 21
25.5005
  0
LINE
  8
0
 10
-114.661
 20
25.5005
 11
-114.695
 21
25.5794
  0
LINE
  8
0
 10
-114.695
 20
25.5794
 11
-114.718
 21
25.6627
  0
LINE
  8
0
 10
-114.718
 20
25.6627
 11
-114.732
 21
25.7506
  0
LINE
  8
0
 10
-114.732
 20
25.7506
 11
-114.734
 21
25.843
  0
LINE
  8
0
 10
-114.734
 20
25.843
 11
-114.726
 21
25.94
  0
LINE
  8
0
 10
-114.726
 20
25.94
 11
-114.708
 21
26.0414
  0
LINE
  8
0
 10
-114.708
 20
26.0414
 11
-114.678
 21
26.1497
  0
LINE
  8
0
 10
-114.678
 20
26.1497
 11
-114.641
 21
26.2464
  0
LINE
  8
0
 10
-114.641
 20
26.2464
 11
-114.596
 21
26.3316
  0
LINE
  8
0
 10
-114.596
 20
26.3316
 11
-114.544
 21
26.4052
  0
LINE
  8
0
 10
-114.544
 20
26.4052
 11
-114.484
 21
26.4672
  0
LINE
  8
0
 10
-114.484
 20
26.4672
 11
-114.416
 21
26.5176
  0
LINE
  8
0
 10
-114.416
 20
26.5176
 11
-114.343
 21
26.557
  0
LINE
  8
0
 10
-114.343
 20
26.557
 11
-114.265
 21
26.5852
  0
LINE
  8
0
 10
-114.265
 20
26.5852
 11
-114.182
 21
26.602
  0
LINE
  8
0
 10
-114.182
 20
26.602
 11
-114.094
 21
26.6076
  0
LINE
  8
0
 10
-114.094
 20
26.6076
 11
-114.001
 21
26.6018
  0
LINE
  8
0
 10
-114.001
 20
26.6018
 11
-113.904
 21
26.5848
  0
LINE
  8
0
 10
-113.904
 20
26.5848
 11
-113.808
 21
26.5568
  0
LINE
  8
0
 10
-113.808
 20
26.5568
 11
-113.722
 21
26.5185
  0
LINE
  8
0
 10
-113.722
 20
26.5185
 11
-113.646
 21
26.4701
  0
LINE
  8
0
 10
-113.646
 20
26.4701
 11
-113.58
 21
26.4114
  0
LINE
  8
0
 10
-113.58
 20
26.4114
 11
-113.523
 21
26.3425
  0
LINE
  8
0
 10
-113.523
 20
26.3425
 11
-113.477
 21
26.2635
  0
LINE
  8
0
 10
-113.477
 20
26.2635
 11
-113.443
 21
26.1756
  0
LINE
  8
0
 10
-113.443
 20
26.1756
 11
-113.419
 21
26.0802
  0
LINE
  8
0
 10
-113.419
 20
26.0802
 11
-113.408
 21
25.9772
  0
LINE
  8
0
 10
-113.408
 20
25.9772
 11
-113.408
 21
25.8667
  0
LINE
  8
0
 10
-113.408
 20
25.8667
 11
-113.42
 21
25.7486
  0
LINE
  8
0
 10
-113.42
 20
25.7486
 11
-113.443
 21
25.623
  0
LINE
  8
0
 10
-113.443
 20
25.623
 11
-113.502
 21
25.3666
  0
LINE
  8
0
 10
-113.502
 20
25.3666
 11
-113.088
 21
25.2727
  0
LINE
  8
0
 10
-113.088
 20
25.2727
 11
-113.027
 21
25.5399
  0
LINE
  8
0
 10
-113.027
 20
25.5399
 11
-112.991
 21
25.679
  0
LINE
  8
0
 10
-112.991
 20
25.679
 11
-112.947
 21
25.8045
  0
LINE
  8
0
 10
-112.947
 20
25.8045
 11
-112.896
 21
25.9164
  0
LINE
  8
0
 10
-112.896
 20
25.9164
 11
-112.838
 21
26.0146
  0
LINE
  8
0
 10
-112.838
 20
26.0146
 11
-112.773
 21
26.0992
  0
LINE
  8
0
 10
-112.773
 20
26.0992
 11
-112.701
 21
26.1702
  0
LINE
  8
0
 10
-112.701
 20
26.1702
 11
-112.623
 21
26.2271
  0
LINE
  8
0
 10
-112.623
 20
26.2271
 11
-112.541
 21
26.2694
  0
LINE
  8
0
 10
-112.541
 20
26.2694
 11
-112.454
 21
26.2971
  0
LINE
  8
0
 10
-112.454
 20
26.2971
 11
-112.362
 21
26.3102
  0
LINE
  8
0
 10
-112.362
 20
26.3102
 11
-112.265
 21
26.3087
  0
LINE
  8
0
 10
-112.265
 20
26.3087
 11
-112.164
 21
26.2925
  0
LINE
  8
0
 10
-112.164
 20
26.2925
 11
-112.052
 21
26.261
  0
LINE
  8
0
 10
-112.052
 20
26.261
 11
-111.952
 21
26.2205
  0
LINE
  8
0
 10
-111.952
 20
26.2205
 11
-111.864
 21
26.1709
  0
LINE
  8
0
 10
-111.864
 20
26.1709
 11
-111.788
 21
26.1122
  0
LINE
  8
0
 10
-111.788
 20
26.1122
 11
-111.724
 21
26.0445
  0
LINE
  8
0
 10
-111.724
 20
26.0445
 11
-111.673
 21
25.9677
  0
LINE
  8
0
 10
-111.673
 20
25.9677
 11
-111.634
 21
25.8833
  0
LINE
  8
0
 10
-111.634
 20
25.8833
 11
-111.607
 21
25.7927
  0
LINE
  8
0
 10
-111.607
 20
25.7927
 11
-111.593
 21
25.6958
  0
LINE
  8
0
 10
-111.593
 20
25.6958
 11
-111.59
 21
25.5928
  0
LINE
  8
0
 10
-111.59
 20
25.5928
 11
-111.599
 21
25.4835
  0
LINE
  8
0
 10
-111.599
 20
25.4835
 11
-111.62
 21
25.3679
  0
LINE
  8
0
 10
-111.62
 20
25.3679
 11
-111.688
 21
25.1529
  0
LINE
  8
0
 10
-111.688
 20
25.1529
 11
-111.785
 21
24.9803
  0
LINE
  8
0
 10
-111.785
 20
24.9803
 11
-111.911
 21
24.8502
  0
LINE
  8
0
 10
-111.911
 20
24.8502
 11
-112.066
 21
24.7625
  0
LINE
  8
0
 10
-112.066
 20
24.7625
 11
-112.251
 21
24.7174
  0
LINE
  8
0
 10
-112.251
 20
24.7174
 11
-112.464
 21
24.7147
  0
LINE
  8
0
 10
-112.464
 20
24.7147
 11
-112.531
 21
24.2111
  0
LINE
  8
0
 10
-112.531
 20
24.2111
 11
-112.365
 21
24.2034
  0
LINE
  8
0
 10
-112.365
 20
24.2034
 11
-112.208
 21
24.2139
  0
LINE
  8
0
 10
-111.695
 20
23.4629
 11
-112.103
 21
23.5438
  0
LINE
  8
0
 10
-112.103
 20
23.5438
 11
-112.284
 21
22.6286
  0
LINE
  8
0
 10
-112.284
 20
22.6286
 11
-115.643
 21
23.2942
  0
LINE
  8
0
 10
-115.643
 20
23.2942
 11
-115.73
 21
22.8518
  0
LINE
  8
0
 10
-115.73
 20
22.8518
 11
-115.292
 21
21.8424
  0
LINE
  8
0
 10
-115.292
 20
21.8424
 11
-114.839
 21
21.7526
  0
LINE
  8
0
 10
-114.839
 20
21.7526
 11
-115.279
 21
22.7206
  0
LINE
  8
0
 10
-115.279
 20
22.7206
 11
-112.38
 21
22.146
  0
LINE
  8
0
 10
-112.38
 20
22.146
 11
-112.569
 21
21.1886
  0
LINE
  8
0
 10
-112.569
 20
21.1886
 11
-112.161
 21
21.1077
  0
LINE
  8
0
 10
-112.161
 20
21.1077
 11
-111.695
 21
23.4629
  0
LINE
  8
0
 10
-114.165
 20
13.9983
 11
-113.277
 21
13.8926
  0
LINE
  8
0
 10
-113.277
 20
13.8926
 11
-113.222
 21
14.3514
  0
LINE
  8
0
 10
-113.222
 20
14.3514
 11
-114.11
 21
14.4571
  0
LINE
  8
0
 10
-114.11
 20
14.4571
 11
-114.046
 21
14.9923
  0
LINE
  8
0
 10
-114.046
 20
14.9923
 11
-114.43
 21
15.0379
  0
LINE
  8
0
 10
-114.43
 20
15.0379
 11
-114.493
 21
14.5027
  0
LINE
  8
0
 10
-114.493
 20
14.5027
 11
-117.035
 21
14.8054
  0
LINE
  8
0
 10
-117.035
 20
14.8054
 11
-117.096
 21
14.299
  0
LINE
  8
0
 10
-117.096
 20
14.299
 11
-114.751
 21
12.2686
  0
LINE
  8
0
 10
-114.751
 20
12.2686
 11
-114.376
 21
12.2239
  0
LINE
  8
0
 10
-114.376
 20
12.2239
 11
-114.165
 21
13.9983
  0
LINE
  8
0
 10
-114.755
 20
12.7664
 11
-114.935
 21
12.9339
  0
LINE
  8
0
 10
-114.935
 20
12.9339
 11
-116.283
 21
14.0967
  0
LINE
  8
0
 10
-116.283
 20
14.0967
 11
-116.534
 21
14.2769
  0
LINE
  8
0
 10
-116.534
 20
14.2769
 11
-116.542
 21
14.2814
  0
LINE
  8
0
 10
-116.542
 20
14.2814
 11
-114.548
 21
14.0439
  0
LINE
  8
0
 10
-114.548
 20
14.0439
 11
-114.706
 21
12.7173
  0
LINE
  8
0
 10
-114.706
 20
12.7173
 11
-114.755
 21
12.7664
  0
LINE
  8
0
 10
-113.535
 20
11.6591
 11
-113.95
 21
11.6969
  0
LINE
  8
0
 10
-113.95
 20
11.6969
 11
-114.034
 21
10.7677
  0
LINE
  8
0
 10
-114.034
 20
10.7677
 11
-117.444
 21
11.0786
  0
LINE
  8
0
 10
-117.444
 20
11.0786
 11
-117.485
 21
10.6295
  0
LINE
  8
0
 10
-117.485
 20
10.6295
 11
-116.944
 21
9.67142
  0
LINE
  8
0
 10
-116.944
 20
9.67142
 11
-116.484
 21
9.62947
  0
LINE
  8
0
 10
-116.484
 20
9.62947
 11
-117.023
 21
10.5462
  0
LINE
  8
0
 10
-117.023
 20
10.5462
 11
-114.079
 21
10.2778
  0
LINE
  8
0
 10
-114.079
 20
10.2778
 11
-114.168
 21
9.30582
  0
LINE
  8
0
 10
-114.168
 20
9.30582
 11
-113.753
 21
9.26805
  0
LINE
  8
0
 10
-113.753
 20
9.26805
 11
-113.535
 21
11.6591
  0
ENDSEC
  0
SECTION
  2
OBJECTS
  0
DICTIONARY
  0
ENDSEC
  0
EOF
