  0
SECTION
  2
BLOCKS
  0
ENDSEC
  0
SECTION
  2
ENTITIES
  0
LINE
  8
0
 10
-0.362686
 20
54.3126
 11
-0.408554
 21
55.1434
  0
LINE
  8
0
 10
-0.408554
 20
55.1434
 11
-2.27072
 21
55.0405
  0
LINE
  8
0
 10
-2.27072
 20
55.0405
 11
-2.64836
 21
61.8781
  0
LINE
  8
0
 10
-2.64836
 20
61.8781
 11
-3.54997
 21
61.8283
  0
LINE
  8
0
 10
-3.54997
 20
61.8283
 11
-5.28915
 21
60.4783
  0
LINE
  8
0
 10
-5.28915
 20
60.4783
 11
-5.2382
 21
59.5558
  0
LINE
  8
0
 10
-5.2382
 20
59.5558
 11
-3.58028
 21
60.8902
  0
LINE
  8
0
 10
-3.58028
 20
60.8902
 11
-3.25421
 21
54.9862
  0
LINE
  8
0
 10
-3.25421
 20
54.9862
 11
-5.20325
 21
54.8786
  0
LINE
  8
0
 10
-5.20325
 20
54.8786
 11
-5.15736
 21
54.0478
  0
LINE
  8
0
 10
-5.15736
 20
54.0478
 11
-0.362686
 21
54.3126
  0
LINE
  8
0
 10
5.66635
 20
54.853
 11
3.80418
 21
54.9558
  0
LINE
  8
0
 10
3.80418
 20
54.9558
 11
4.18182
 21
61.7934
  0
LINE
  8
0
 10
4.18182
 20
61.7934
 11
3.28021
 21
61.8432
  0
LINE
  8
0
 10
3.28021
 20
61.8432
 11
1.40292
 21
60.693
  0
LINE
  8
0
 10
1.40292
 20
60.693
 11
1.35197
 21
59.7704
  0
LINE
  8
0
 10
1.35197
 20
59.7704
 11
3.14677
 21
60.9142
  0
LINE
  8
0
 10
3.14677
 20
60.9142
 11
2.82069
 21
55.0101
  0
LINE
  8
0
 10
2.82069
 20
55.0101
 11
0.871674
 21
55.1178
  0
LINE
  8
0
 10
0.871674
 20
55.1178
 11
0.82579
 21
54.2871
  0
LINE
  8
0
 10
0.82579
 20
54.2871
 11
5.62047
 21
54.0223
  0
LINE
  8
0
 10
5.62047
 20
54.0223
 11
5.66635
 21
54.853
  0
LINE
  8
0
 10
-22.1306
 20
49.5314
 11
-22.5062
 21
50.2738
  0
LINE
  8
0
 10
-22.5062
 20
50.2738
 11
-26.0718
 21
48.4697
  0
LINE
  8
0
 10
-26.0718
 20
48.4697
 11
-26.076
 21
48.6112
  0
LINE
  8
0
 10
-26.076
 20
48.6112
 11
-26.0708
 21
48.7594
  0
LINE
  8
0
 10
-26.0708
 20
48.7594
 11
-26.056
 21
48.9142
  0
LINE
  8
0
 10
-26.056
 20
48.9142
 11
-26.0317
 21
49.0757
  0
LINE
  8
0
 10
-26.0317
 20
49.0757
 11
-25.9979
 21
49.2439
  0
LINE
  8
0
 10
-25.9979
 20
49.2439
 11
-25.9547
 21
49.4188
  0
LINE
  8
0
 10
-25.9547
 20
49.4188
 11
-25.9017
 21
49.603
  0
LINE
  8
0
 10
-25.9017
 20
49.603
 11
-25.8387
 21
49.7987
  0
LINE
  8
0
 10
-25.8387
 20
49.7987
 11
-25.7655
 21
50.0057
  0
LINE
  8
0
 10
-25.7655
 20
50.0057
 11
-25.6822
 21
50.2241
  0
LINE
  8
0
 10
-25.6822
 20
50.2241
 11
-25.5889
 21
50.4539
  0
LINE
  8
0
 10
-25.5889
 20
50.4539
 11
-25.4854
 21
50.6952
  0
LINE
  8
0
 10
-25.4854
 20
50.6952
 11
-25.2993
 21
51.1209
  0
LINE
  8
0
 10
-25.2993
 20
51.1209
 11
-25.1373
 21
51.5041
  0
LINE
  8
0
 10
-25.1373
 20
51.5041
 11
-24.9996
 21
51.8448
  0
LINE
  8
0
 10
-24.9996
 20
51.8448
 11
-24.8861
 21
52.1431
  0
LINE
  8
0
 10
-24.8861
 20
52.1431
 11
-24.7967
 21
52.3988
  0
LINE
  8
0
 10
-24.7967
 20
52.3988
 11
-24.7316
 21
52.612
  0
LINE
  8
0
 10
-24.7316
 20
52.612
 11
-24.6833
 21
52.8019
  0
LINE
  8
0
 10
-24.6833
 20
52.8019
 11
-24.6449
 21
52.9867
  0
LINE
  8
0
 10
-24.6449
 20
52.9867
 11
-24.6163
 21
53.1665
  0
LINE
  8
0
 10
-24.6163
 20
53.1665
 11
-24.5975
 21
53.3413
  0
LINE
  8
0
 10
-24.5975
 20
53.3413
 11
-24.5886
 21
53.511
  0
LINE
  8
0
 10
-24.5886
 20
53.511
 11
-24.5895
 21
53.6757
  0
LINE
  8
0
 10
-24.5895
 20
53.6757
 11
-24.6006
 21
53.8357
  0
LINE
  8
0
 10
-24.6006
 20
53.8357
 11
-24.622
 21
53.9909
  0
LINE
  8
0
 10
-24.622
 20
53.9909
 11
-24.6536
 21
54.1412
  0
LINE
  8
0
 10
-24.6536
 20
54.1412
 11
-24.6954
 21
54.2866
  0
LINE
  8
0
 10
-24.6954
 20
54.2866
 11
-24.7475
 21
54.4271
  0
LINE
  8
0
 10
-24.7475
 20
54.4271
 11
-24.8098
 21
54.5628
  0
LINE
  8
0
 10
-24.8098
 20
54.5628
 11
-24.9716
 21
54.8443
  0
LINE
  8
0
 10
-24.9716
 20
54.8443
 11
-25.1527
 21
55.0871
  0
LINE
  8
0
 10
-25.1527
 20
55.0871
 11
-25.353
 21
55.2915
  0
LINE
  8
0
 10
-25.353
 20
55.2915
 11
-25.5727
 21
55.4574
  0
LINE
  8
0
 10
-25.5727
 20
55.4574
 11
-25.8117
 21
55.5847
  0
LINE
  8
0
 10
-25.8117
 20
55.5847
 11
-26.07
 21
55.6735
  0
LINE
  8
0
 10
-26.07
 20
55.6735
 11
-26.344
 21
55.7229
  0
LINE
  8
0
 10
-26.344
 20
55.7229
 11
-26.6308
 21
55.7315
  0
LINE
  8
0
 10
-26.6308
 20
55.7315
 11
-26.9304
 21
55.6996
  0
LINE
  8
0
 10
-26.9304
 20
55.6996
 11
-27.2429
 21
55.627
  0
LINE
  8
0
 10
-27.2429
 20
55.627
 11
-27.5681
 21
55.5137
  0
LINE
  8
0
 10
-27.5681
 20
55.5137
 11
-27.9061
 21
55.3597
  0
LINE
  8
0
 10
-27.9061
 20
55.3597
 11
-28.2036
 21
55.1923
  0
LINE
  8
0
 10
-28.2036
 20
55.1923
 11
-28.4684
 21
55.0075
  0
LINE
  8
0
 10
-28.4684
 20
55.0075
 11
-28.7006
 21
54.8053
  0
LINE
  8
0
 10
-28.7006
 20
54.8053
 11
-28.9002
 21
54.5858
  0
LINE
  8
0
 10
-28.9002
 20
54.5858
 11
-29.0671
 21
54.3489
  0
LINE
  8
0
 10
-29.0671
 20
54.3489
 11
-29.2014
 21
54.0946
  0
LINE
  8
0
 10
-29.2014
 20
54.0946
 11
-29.3005
 21
53.8296
  0
LINE
  8
0
 10
-29.3005
 20
53.8296
 11
-29.3623
 21
53.5601
  0
LINE
  8
0
 10
-29.3623
 20
53.5601
 11
-29.3869
 21
53.286
  0
LINE
  8
0
 10
-29.3869
 20
53.286
 11
-29.3741
 21
53.0076
  0
LINE
  8
0
 10
-29.3741
 20
53.0076
 11
-29.3242
 21
52.7245
  0
LINE
  8
0
 10
-29.3242
 20
52.7245
 11
-29.2369
 21
52.4371
  0
LINE
  8
0
 10
-29.2369
 20
52.4371
 11
-28.3031
 21
52.8065
  0
LINE
  8
0
 10
-28.3031
 20
52.8065
 11
-28.3627
 21
52.9971
  0
LINE
  8
0
 10
-28.3627
 20
52.9971
 11
-28.3988
 21
53.1826
  0
LINE
  8
0
 10
-28.3988
 20
53.1826
 11
-28.4115
 21
53.3629
  0
LINE
  8
0
 10
-28.4115
 20
53.3629
 11
-28.4008
 21
53.538
  0
LINE
  8
0
 10
-28.4008
 20
53.538
 11
-28.3667
 21
53.7079
  0
LINE
  8
0
 10
-28.3667
 20
53.7079
 11
-28.3091
 21
53.8726
  0
LINE
  8
0
 10
-28.3091
 20
53.8726
 11
-28.2301
 21
54.029
  0
LINE
  8
0
 10
-28.2301
 20
54.029
 11
-28.1316
 21
54.1741
  0
LINE
  8
0
 10
-28.1316
 20
54.1741
 11
-28.0138
 21
54.3078
  0
LINE
  8
0
 10
-28.0138
 20
54.3078
 11
-27.8764
 21
54.4302
  0
LINE
  8
0
 10
-27.8764
 20
54.4302
 11
-27.7197
 21
54.5413
  0
LINE
  8
0
 10
-27.7197
 20
54.5413
 11
-27.5435
 21
54.641
  0
LINE
  8
0
 10
-27.5435
 20
54.641
 11
-27.3506
 21
54.7277
  0
LINE
  8
0
 10
-27.3506
 20
54.7277
 11
-27.1631
 21
54.7898
  0
LINE
  8
0
 10
-27.1631
 20
54.7898
 11
-26.981
 21
54.8273
  0
LINE
  8
0
 10
-26.981
 20
54.8273
 11
-26.8045
 21
54.8401
  0
LINE
  8
0
 10
-26.8045
 20
54.8401
 11
-26.6334
 21
54.8283
  0
LINE
  8
0
 10
-26.6334
 20
54.8283
 11
-26.4678
 21
54.7919
  0
LINE
  8
0
 10
-26.4678
 20
54.7919
 11
-26.3107
 21
54.7318
  0
LINE
  8
0
 10
-26.3107
 20
54.7318
 11
-26.1647
 21
54.6483
  0
LINE
  8
0
 10
-26.1647
 20
54.6483
 11
-26.03
 21
54.5413
  0
LINE
  8
0
 10
-26.03
 20
54.5413
 11
-25.9065
 21
54.411
  0
LINE
  8
0
 10
-25.9065
 20
54.411
 11
-25.7941
 21
54.2572
  0
LINE
  8
0
 10
-25.7941
 20
54.2572
 11
-25.693
 21
54.0801
  0
LINE
  8
0
 10
-25.693
 20
54.0801
 11
-25.6288
 21
53.94
  0
LINE
  8
0
 10
-25.6288
 20
53.94
 11
-25.5777
 21
53.7994
  0
LINE
  8
0
 10
-25.5777
 20
53.7994
 11
-25.5398
 21
53.6583
  0
LINE
  8
0
 10
-25.5398
 20
53.6583
 11
-25.515
 21
53.5166
  0
LINE
  8
0
 10
-25.515
 20
53.5166
 11
-25.5033
 21
53.3744
  0
LINE
  8
0
 10
-25.5033
 20
53.3744
 11
-25.5047
 21
53.2317
  0
LINE
  8
0
 10
-25.5047
 20
53.2317
 11
-25.5165
 21
53.0881
  0
LINE
  8
0
 10
-25.5165
 20
53.0881
 11
-25.5357
 21
52.9428
  0
LINE
  8
0
 10
-25.5357
 20
52.9428
 11
-25.5623
 21
52.7957
  0
LINE
  8
0
 10
-25.5623
 20
52.7957
 11
-25.5963
 21
52.6469
  0
LINE
  8
0
 10
-25.5963
 20
52.6469
 11
-25.6377
 21
52.4963
  0
LINE
  8
0
 10
-25.6377
 20
52.4963
 11
-25.6864
 21
52.344
  0
LINE
  8
0
 10
-25.6864
 20
52.344
 11
-25.7412
 21
52.19
  0
LINE
  8
0
 10
-25.7412
 20
52.19
 11
-25.8
 21
52.0339
  0
LINE
  8
0
 10
-25.8
 20
52.0339
 11
-25.863
 21
51.8756
  0
LINE
  8
0
 10
-25.863
 20
51.8756
 11
-25.9301
 21
51.7151
  0
LINE
  8
0
 10
-25.9301
 20
51.7151
 11
-26.0014
 21
51.5525
  0
LINE
  8
0
 10
-26.0014
 20
51.5525
 11
-26.0768
 21
51.3878
  0
LINE
  8
0
 10
-26.0768
 20
51.3878
 11
-26.1539
 21
51.2207
  0
LINE
  8
0
 10
-26.1539
 20
51.2207
 11
-26.23
 21
51.0505
  0
LINE
  8
0
 10
-26.23
 20
51.0505
 11
-26.3051
 21
50.8772
  0
LINE
  8
0
 10
-26.3051
 20
50.8772
 11
-26.3792
 21
50.7008
  0
LINE
  8
0
 10
-26.3792
 20
50.7008
 11
-26.4523
 21
50.5213
  0
LINE
  8
0
 10
-26.4523
 20
50.5213
 11
-26.5243
 21
50.3387
  0
LINE
  8
0
 10
-26.5243
 20
50.3387
 11
-26.5935
 21
50.1529
  0
LINE
  8
0
 10
-26.5935
 20
50.1529
 11
-26.6582
 21
49.9635
  0
LINE
  8
0
 10
-26.6582
 20
49.9635
 11
-26.7188
 21
49.7705
  0
LINE
  8
0
 10
-26.7188
 20
49.7705
 11
-26.7749
 21
49.5739
  0
LINE
  8
0
 10
-26.7749
 20
49.5739
 11
-26.8268
 21
49.3736
  0
LINE
  8
0
 10
-26.8268
 20
49.3736
 11
-26.8743
 21
49.1698
  0
LINE
  8
0
 10
-26.8743
 20
49.1698
 11
-26.9147
 21
48.962
  0
LINE
  8
0
 10
-26.9147
 20
48.962
 11
-26.9453
 21
48.7498
  0
LINE
  8
0
 10
-26.9453
 20
48.7498
 11
-26.9661
 21
48.5333
  0
LINE
  8
0
 10
-26.9661
 20
48.5333
 11
-26.9769
 21
48.3124
  0
LINE
  8
0
 10
-26.9769
 20
48.3124
 11
-26.9779
 21
48.0872
  0
LINE
  8
0
 10
-26.9779
 20
48.0872
 11
-26.9691
 21
47.8577
  0
LINE
  8
0
 10
-26.9691
 20
47.8577
 11
-26.6571
 21
47.2411
  0
LINE
  8
0
 10
-26.6571
 20
47.2411
 11
-22.1306
 21
49.5314
  0
LINE
  8
0
 10
31.4086
 20
45.0138
 11
31.8021
 21
45.1461
  0
LINE
  8
0
 10
31.8021
 20
45.1461
 11
32.1952
 21
45.345
  0
LINE
  8
0
 10
32.1952
 20
45.345
 11
32.5826
 21
45.6084
  0
LINE
  8
0
 10
32.5826
 20
45.6084
 11
32.9645
 21
45.9365
  0
LINE
  8
0
 10
32.9645
 20
45.9365
 11
33.3407
 21
46.3292
  0
LINE
  8
0
 10
33.3407
 20
46.3292
 11
33.7112
 21
46.7865
  0
LINE
  8
0
 10
33.7112
 20
46.7865
 11
34.0761
 21
47.3083
  0
LINE
  8
0
 10
34.0761
 20
47.3083
 11
34.3945
 21
47.829
  0
LINE
  8
0
 10
34.3945
 20
47.829
 11
34.6532
 21
48.3252
  0
LINE
  8
0
 10
34.6532
 20
48.3252
 11
34.8522
 21
48.7968
  0
LINE
  8
0
 10
34.8522
 20
48.7968
 11
34.9915
 21
49.2438
  0
LINE
  8
0
 10
34.9915
 20
49.2438
 11
35.071
 21
49.6662
  0
LINE
  8
0
 10
35.071
 20
49.6662
 11
35.0908
 21
50.0641
  0
LINE
  8
0
 10
35.0908
 20
50.0641
 11
35.0521
 21
50.4373
  0
LINE
  8
0
 10
35.0521
 20
50.4373
 11
34.9555
 21
50.785
  0
LINE
  8
0
 10
34.9555
 20
50.785
 11
34.8012
 21
51.1072
  0
LINE
  8
0
 10
34.8012
 20
51.1072
 11
34.5891
 21
51.4039
  0
LINE
  8
0
 10
34.5891
 20
51.4039
 11
34.3191
 21
51.6751
  0
LINE
  8
0
 10
34.3191
 20
51.6751
 11
33.9914
 21
51.9209
  0
LINE
  8
0
 10
33.9914
 20
51.9209
 11
33.658
 21
52.1158
  0
LINE
  8
0
 10
33.658
 20
52.1158
 11
33.3281
 21
52.2626
  0
LINE
  8
0
 10
33.3281
 20
52.2626
 11
33.0016
 21
52.3613
  0
LINE
  8
0
 10
33.0016
 20
52.3613
 11
32.6786
 21
52.4118
  0
LINE
  8
0
 10
32.6786
 20
52.4118
 11
32.3591
 21
52.4143
  0
LINE
  8
0
 10
32.3591
 20
52.4143
 11
32.043
 21
52.3686
  0
LINE
  8
0
 10
32.043
 20
52.3686
 11
31.7368
 21
52.2764
  0
LINE
  8
0
 10
31.7368
 20
52.2764
 11
31.4462
 21
52.1398
  0
LINE
  8
0
 10
31.4462
 20
52.1398
 11
31.1713
 21
51.9587
  0
LINE
  8
0
 10
31.1713
 20
51.9587
 11
30.912
 21
51.733
  0
LINE
  8
0
 10
30.912
 20
51.733
 11
30.6685
 21
51.463
  0
LINE
  8
0
 10
30.6685
 20
51.463
 11
30.4406
 21
51.1484
  0
LINE
  8
0
 10
30.4406
 20
51.1484
 11
30.2478
 21
50.8219
  0
LINE
  8
0
 10
30.2478
 20
50.8219
 11
30.098
 21
50.4982
  0
LINE
  8
0
 10
30.098
 20
50.4982
 11
29.9912
 21
50.1773
  0
LINE
  8
0
 10
29.9912
 20
50.1773
 11
29.9273
 21
49.8592
  0
LINE
  8
0
 10
29.9273
 20
49.8592
 11
29.9064
 21
49.5438
  0
LINE
  8
0
 10
29.9064
 20
49.5438
 11
29.9285
 21
49.2313
  0
LINE
  8
0
 10
29.9285
 20
49.2313
 11
29.9924
 21
48.9303
  0
LINE
  8
0
 10
29.9924
 20
48.9303
 11
30.0972
 21
48.6499
  0
LINE
  8
0
 10
30.0972
 20
48.6499
 11
30.2427
 21
48.3899
  0
LINE
  8
0
 10
30.2427
 20
48.3899
 11
30.429
 21
48.1503
  0
LINE
  8
0
 10
30.429
 20
48.1503
 11
30.6561
 21
47.9313
  0
LINE
  8
0
 10
30.6561
 20
47.9313
 11
30.9239
 21
47.7327
  0
LINE
  8
0
 10
30.9239
 20
47.7327
 11
31.1021
 21
47.6261
  0
LINE
  8
0
 10
31.1021
 20
47.6261
 11
31.2844
 21
47.5365
  0
LINE
  8
0
 10
31.2844
 20
47.5365
 11
31.4709
 21
47.4637
  0
LINE
  8
0
 10
31.4709
 20
47.4637
 11
31.6615
 21
47.4079
  0
LINE
  8
0
 10
31.6615
 20
47.4079
 11
31.8563
 21
47.369
  0
LINE
  8
0
 10
31.8563
 20
47.369
 11
32.0552
 21
47.3471
  0
LINE
  8
0
 10
32.0552
 20
47.3471
 11
32.2524
 21
47.3429
  0
LINE
  8
0
 10
32.2524
 20
47.3429
 11
32.4409
 21
47.3571
  0
LINE
  8
0
 10
32.4409
 20
47.3571
 11
32.6208
 21
47.3896
  0
LINE
  8
0
 10
32.6208
 20
47.3896
 11
32.7921
 21
47.4406
  0
LINE
  8
0
 10
32.7921
 20
47.4406
 11
32.9548
 21
47.5099
  0
LINE
  8
0
 10
32.9548
 20
47.5099
 11
33.1088
 21
47.5976
  0
LINE
  8
0
 10
33.1088
 20
47.5976
 11
32.8356
 21
47.2151
  0
LINE
  8
0
 10
32.8356
 20
47.2151
 11
32.5623
 21
46.8774
  0
LINE
  8
0
 10
32.5623
 20
46.8774
 11
32.2891
 21
46.5844
  0
LINE
  8
0
 10
32.2891
 20
46.5844
 11
32.0159
 21
46.3362
  0
LINE
  8
0
 10
32.0159
 20
46.3362
 11
31.7428
 21
46.1326
  0
LINE
  8
0
 10
31.7428
 20
46.1326
 11
31.4696
 21
45.9738
  0
LINE
  8
0
 10
31.4696
 20
45.9738
 11
31.1998
 21
45.8617
  0
LINE
  8
0
 10
31.1998
 20
45.8617
 11
30.9363
 21
45.798
  0
LINE
  8
0
 10
30.9363
 20
45.798
 11
30.679
 21
45.7826
  0
LINE
  8
0
 10
30.679
 20
45.7826
 11
30.4281
 21
45.8155
  0
LINE
  8
0
 10
30.4281
 20
45.8155
 11
30.1834
 21
45.8967
  0
LINE
  8
0
 10
30.1834
 20
45.8967
 11
29.9451
 21
46.0262
  0
LINE
  8
0
 10
29.9451
 20
46.0262
 11
29.697
 21
46.2201
  0
LINE
  8
0
 10
29.697
 20
46.2201
 11
29.5108
 21
46.4371
  0
LINE
  8
0
 10
29.5108
 20
46.4371
 11
29.3867
 21
46.6772
  0
LINE
  8
0
 10
29.3867
 20
46.6772
 11
29.3244
 21
46.9404
  0
LINE
  8
0
 10
29.3244
 20
46.9404
 11
29.3242
 21
47.2266
  0
LINE
  8
0
 10
29.3242
 20
47.2266
 11
29.3858
 21
47.536
  0
LINE
  8
0
 10
29.3858
 20
47.536
 11
28.5227
 21
47.9244
  0
LINE
  8
0
 10
28.5227
 20
47.9244
 11
28.4485
 21
47.6526
  0
LINE
  8
0
 10
28.4485
 20
47.6526
 11
28.4027
 21
47.3932
  0
LINE
  8
0
 10
28.4027
 20
47.3932
 11
28.3853
 21
47.146
  0
LINE
  8
0
 10
28.3853
 20
47.146
 11
28.3963
 21
46.9112
  0
LINE
  8
0
 10
28.3963
 20
46.9112
 11
28.4358
 21
46.6886
  0
LINE
  8
0
 10
28.4358
 20
46.6886
 11
28.5036
 21
46.4783
  0
LINE
  8
0
 10
28.5036
 20
46.4783
 11
28.5997
 21
46.2776
  0
LINE
  8
0
 10
28.5997
 20
46.2776
 11
28.7238
 21
46.0836
  0
LINE
  8
0
 10
28.7238
 20
46.0836
 11
28.8759
 21
45.8964
  0
LINE
  8
0
 10
28.8759
 20
45.8964
 11
29.0561
 21
45.7159
  0
LINE
  8
0
 10
29.0561
 20
45.7159
 11
29.2643
 21
45.5423
  0
LINE
  8
0
 10
29.2643
 20
45.5423
 11
29.5006
 21
45.3753
  0
LINE
  8
0
 10
29.5006
 20
45.3753
 11
29.8743
 21
45.1666
  0
LINE
  8
0
 10
29.8743
 20
45.1666
 11
30.2519
 21
45.026
  0
LINE
  8
0
 10
30.2519
 20
45.026
 11
30.6335
 21
44.9537
  0
LINE
  8
0
 10
30.6335
 20
44.9537
 11
31.0191
 21
44.9496
  0
LINE
  8
0
 10
31.0191
 20
44.9496
 11
31.4086
 21
45.0138
  0
LINE
  8
0
 10
32.3078
 20
47.9824
 11
32.1725
 21
48
  0
LINE
  8
0
 10
32.1725
 20
48
 11
32.0402
 21
48.0285
  0
LINE
  8
0
 10
32.0402
 20
48.0285
 11
31.911
 21
48.0679
  0
LINE
  8
0
 10
31.911
 20
48.0679
 11
31.7849
 21
48.1181
  0
LINE
  8
0
 10
31.7849
 20
48.1181
 11
31.6619
 21
48.1791
  0
LINE
  8
0
 10
31.6619
 20
48.1791
 11
31.5421
 21
48.251
  0
LINE
  8
0
 10
31.5421
 20
48.251
 11
31.362
 21
48.3849
  0
LINE
  8
0
 10
31.362
 20
48.3849
 11
31.2102
 21
48.5329
  0
LINE
  8
0
 10
31.2102
 20
48.5329
 11
31.0867
 21
48.6949
  0
LINE
  8
0
 10
31.0867
 20
48.6949
 11
30.9915
 21
48.8709
  0
LINE
  8
0
 10
30.9915
 20
48.8709
 11
30.9246
 21
49.061
  0
LINE
  8
0
 10
30.9246
 20
49.061
 11
30.8859
 21
49.2651
  0
LINE
  8
0
 10
30.8859
 20
49.2651
 11
30.8763
 21
49.4782
  0
LINE
  8
0
 10
30.8763
 20
49.4782
 11
30.8963
 21
49.6953
  0
LINE
  8
0
 10
30.8963
 20
49.6953
 11
30.946
 21
49.9165
  0
LINE
  8
0
 10
30.946
 20
49.9165
 11
31.0255
 21
50.1417
  0
LINE
  8
0
 10
31.0255
 20
50.1417
 11
31.1346
 21
50.3709
  0
LINE
  8
0
 10
31.1346
 20
50.3709
 11
31.2735
 21
50.6041
  0
LINE
  8
0
 10
31.2735
 20
50.6041
 11
31.4284
 21
50.8205
  0
LINE
  8
0
 10
31.4284
 20
50.8205
 11
31.5919
 21
51.0085
  0
LINE
  8
0
 10
31.5919
 20
51.0085
 11
31.7639
 21
51.1682
  0
LINE
  8
0
 10
31.7639
 20
51.1682
 11
31.9446
 21
51.2997
  0
LINE
  8
0
 10
31.9446
 20
51.2997
 11
32.1338
 21
51.4028
  0
LINE
  8
0
 10
32.1338
 20
51.4028
 11
32.3316
 21
51.4776
  0
LINE
  8
0
 10
32.3316
 20
51.4776
 11
32.5335
 21
51.5227
  0
LINE
  8
0
 10
32.5335
 20
51.5227
 11
32.7344
 21
51.5363
  0
LINE
  8
0
 10
32.7344
 20
51.5363
 11
32.9345
 21
51.5182
  0
LINE
  8
0
 10
32.9345
 20
51.5182
 11
33.1337
 21
51.4685
  0
LINE
  8
0
 10
33.1337
 20
51.4685
 11
33.332
 21
51.3872
  0
LINE
  8
0
 10
33.332
 20
51.3872
 11
33.5295
 21
51.2743
  0
LINE
  8
0
 10
33.5295
 20
51.2743
 11
33.7131
 21
51.1355
  0
LINE
  8
0
 10
33.7131
 20
51.1355
 11
33.866
 21
50.9791
  0
LINE
  8
0
 10
33.866
 20
50.9791
 11
33.9883
 21
50.8051
  0
LINE
  8
0
 10
33.9883
 20
50.8051
 11
34.0799
 21
50.6136
  0
LINE
  8
0
 10
34.0799
 20
50.6136
 11
34.1409
 21
50.4044
  0
LINE
  8
0
 10
34.1409
 20
50.4044
 11
34.1711
 21
50.1777
  0
LINE
  8
0
 10
34.1711
 20
50.1777
 11
34.1709
 21
49.9404
  0
LINE
  8
0
 10
34.1709
 20
49.9404
 11
34.1397
 21
49.699
  0
LINE
  8
0
 10
34.1397
 20
49.699
 11
34.0778
 21
49.4535
  0
LINE
  8
0
 10
34.0778
 20
49.4535
 11
33.9851
 21
49.204
  0
LINE
  8
0
 10
33.9851
 20
49.204
 11
33.8616
 21
48.9503
  0
LINE
  8
0
 10
33.8616
 20
48.9503
 11
33.7072
 21
48.6926
  0
LINE
  8
0
 10
33.7072
 20
48.6926
 11
33.6211
 21
48.5713
  0
LINE
  8
0
 10
33.6211
 20
48.5713
 11
33.5281
 21
48.4611
  0
LINE
  8
0
 10
33.5281
 20
48.4611
 11
33.4283
 21
48.3617
  0
LINE
  8
0
 10
33.4283
 20
48.3617
 11
33.3218
 21
48.2733
  0
LINE
  8
0
 10
33.3218
 20
48.2733
 11
33.2085
 21
48.1959
  0
LINE
  8
0
 10
33.2085
 20
48.1959
 11
33.0884
 21
48.1293
  0
LINE
  8
0
 10
33.0884
 20
48.1293
 11
32.9642
 21
48.0745
  0
LINE
  8
0
 10
32.9642
 20
48.0745
 11
32.8376
 21
48.0317
  0
LINE
  8
0
 10
32.8376
 20
48.0317
 11
32.7087
 21
48.0012
  0
LINE
  8
0
 10
32.7087
 20
48.0012
 11
32.5774
 21
47.9828
  0
LINE
  8
0
 10
32.5774
 20
47.9828
 11
32.4438
 21
47.9765
  0
LINE
  8
0
 10
32.4438
 20
47.9765
 11
32.3078
 21
47.9824
  0
LINE
  8
0
 10
-27.4704
 20
46.8548
 11
-27.9255
 21
47.5513
  0
LINE
  8
0
 10
-27.9255
 20
47.5513
 11
-29.4868
 21
46.5311
  0
LINE
  8
0
 10
-29.4868
 20
46.5311
 11
-33.2326
 21
52.2638
  0
LINE
  8
0
 10
-33.2326
 20
52.2638
 11
-33.9885
 21
51.7699
  0
LINE
  8
0
 10
-33.9885
 20
51.7699
 11
-34.8197
 21
49.7312
  0
LINE
  8
0
 10
-34.8197
 20
49.7312
 11
-34.3143
 21
48.9577
  0
LINE
  8
0
 10
-34.3143
 20
48.9577
 11
-33.5457
 21
50.9423
  0
LINE
  8
0
 10
-33.5457
 20
50.9423
 11
-30.3113
 21
45.9923
  0
LINE
  8
0
 10
-30.3113
 20
45.9923
 11
-31.9454
 21
44.9246
  0
LINE
  8
0
 10
-31.9454
 20
44.9246
 11
-31.4903
 21
44.2281
  0
LINE
  8
0
 10
-31.4903
 20
44.2281
 11
-27.4704
 21
46.8548
  0
LINE
  8
0
 10
-43.9314
 20
31.8302
 11
-44.6279
 21
32.2853
  0
LINE
  8
0
 10
-44.6279
 20
32.2853
 11
-46.8137
 21
28.9401
  0
LINE
  8
0
 10
-46.8137
 20
28.9401
 11
-46.8881
 21
29.0605
  0
LINE
  8
0
 10
-46.8881
 20
29.0605
 11
-46.9576
 21
29.1915
  0
LINE
  8
0
 10
-46.9576
 20
29.1915
 11
-47.0223
 21
29.3329
  0
LINE
  8
0
 10
-47.0223
 20
29.3329
 11
-47.082
 21
29.485
  0
LINE
  8
0
 10
-47.082
 20
29.485
 11
-47.1369
 21
29.6475
  0
LINE
  8
0
 10
-47.1369
 20
29.6475
 11
-47.1868
 21
29.8206
  0
LINE
  8
0
 10
-47.1868
 20
29.8206
 11
-47.2331
 21
30.0066
  0
LINE
  8
0
 10
-47.2331
 20
30.0066
 11
-47.2763
 21
30.2076
  0
LINE
  8
0
 10
-47.2763
 20
30.2076
 11
-47.3164
 21
30.4234
  0
LINE
  8
0
 10
-47.3164
 20
30.4234
 11
-47.3535
 21
30.6542
  0
LINE
  8
0
 10
-47.3535
 20
30.6542
 11
-47.3876
 21
30.9
  0
LINE
  8
0
 10
-47.3876
 20
30.9
 11
-47.4186
 21
31.1606
  0
LINE
  8
0
 10
-47.4186
 20
31.1606
 11
-47.4703
 21
31.6224
  0
LINE
  8
0
 10
-47.4703
 20
31.6224
 11
-47.5216
 21
32.0352
  0
LINE
  8
0
 10
-47.5216
 20
32.0352
 11
-47.5727
 21
32.3991
  0
LINE
  8
0
 10
-47.5727
 20
32.3991
 11
-47.6235
 21
32.7142
  0
LINE
  8
0
 10
-47.6235
 20
32.7142
 11
-47.674
 21
32.9803
  0
LINE
  8
0
 10
-47.674
 20
32.9803
 11
-47.7242
 21
33.1975
  0
LINE
  8
0
 10
-47.7242
 20
33.1975
 11
-47.7773
 21
33.3861
  0
LINE
  8
0
 10
-47.7773
 20
33.3861
 11
-47.8364
 21
33.5654
  0
LINE
  8
0
 10
-47.8364
 20
33.5654
 11
-47.9016
 21
33.7354
  0
LINE
  8
0
 10
-47.9016
 20
33.7354
 11
-47.9727
 21
33.8961
  0
LINE
  8
0
 10
-47.9727
 20
33.8961
 11
-48.0499
 21
34.0476
  0
LINE
  8
0
 10
-48.0499
 20
34.0476
 11
-48.133
 21
34.1897
  0
LINE
  8
0
 10
-48.133
 20
34.1897
 11
-48.2226
 21
34.3228
  0
LINE
  8
0
 10
-48.2226
 20
34.3228
 11
-48.3187
 21
34.4465
  0
LINE
  8
0
 10
-48.3187
 20
34.4465
 11
-48.4212
 21
34.5608
  0
LINE
  8
0
 10
-48.4212
 20
34.5608
 11
-48.5301
 21
34.6658
  0
LINE
  8
0
 10
-48.5301
 20
34.6658
 11
-48.6455
 21
34.7616
  0
LINE
  8
0
 10
-48.6455
 20
34.7616
 11
-48.7673
 21
34.8479
  0
LINE
  8
0
 10
-48.7673
 20
34.8479
 11
-49.0481
 21
35.0107
  0
LINE
  8
0
 10
-49.0481
 20
35.0107
 11
-49.3264
 21
35.1305
  0
LINE
  8
0
 10
-49.3264
 20
35.1305
 11
-49.6022
 21
35.2074
  0
LINE
  8
0
 10
-49.6022
 20
35.2074
 11
-49.8753
 21
35.2411
  0
LINE
  8
0
 10
-49.8753
 20
35.2411
 11
-50.1459
 21
35.2319
  0
LINE
  8
0
 10
-50.1459
 20
35.2319
 11
-50.414
 21
35.1797
  0
LINE
  8
0
 10
-50.414
 20
35.1797
 11
-50.676
 21
35.0854
  0
LINE
  8
0
 10
-50.676
 20
35.0854
 11
-50.9287
 21
34.9495
  0
LINE
  8
0
 10
-50.9287
 20
34.9495
 11
-51.1722
 21
34.772
  0
LINE
  8
0
 10
-51.1722
 20
34.772
 11
-51.4065
 21
34.5529
  0
LINE
  8
0
 10
-51.4065
 20
34.5529
 11
-51.6315
 21
34.2922
  0
LINE
  8
0
 10
-51.6315
 20
34.2922
 11
-51.8473
 21
33.9899
  0
LINE
  8
0
 10
-51.8473
 20
33.9899
 11
-52.0211
 21
33.6961
  0
LINE
  8
0
 10
-52.0211
 20
33.6961
 11
-52.1581
 21
33.4037
  0
LINE
  8
0
 10
-52.1581
 20
33.4037
 11
-52.2581
 21
33.1125
  0
LINE
  8
0
 10
-52.2581
 20
33.1125
 11
-52.3212
 21
32.8226
  0
LINE
  8
0
 10
-52.3212
 20
32.8226
 11
-52.3473
 21
32.5339
  0
LINE
  8
0
 10
-52.3473
 20
32.5339
 11
-52.3365
 21
32.2466
  0
LINE
  8
0
 10
-52.3365
 20
32.2466
 11
-52.2898
 21
31.9675
  0
LINE
  8
0
 10
-52.2898
 20
31.9675
 11
-52.2086
 21
31.7032
  0
LINE
  8
0
 10
-52.2086
 20
31.7032
 11
-52.0928
 21
31.4536
  0
LINE
  8
0
 10
-52.0928
 20
31.4536
 11
-51.9425
 21
31.2188
  0
LINE
  8
0
 10
-51.9425
 20
31.2188
 11
-51.7578
 21
30.9987
  0
LINE
  8
0
 10
-51.7578
 20
30.9987
 11
-51.5384
 21
30.7934
  0
LINE
  8
0
 10
-51.5384
 20
30.7934
 11
-50.9144
 21
31.5802
  0
LINE
  8
0
 10
-50.9144
 20
31.5802
 11
-51.0614
 21
31.7155
  0
LINE
  8
0
 10
-51.0614
 20
31.7155
 11
-51.1854
 21
31.8581
  0
LINE
  8
0
 10
-51.1854
 20
31.8581
 11
-51.2866
 21
32.0079
  0
LINE
  8
0
 10
-51.2866
 20
32.0079
 11
-51.3648
 21
32.1649
  0
LINE
  8
0
 10
-51.3648
 20
32.1649
 11
-51.4202
 21
32.3291
  0
LINE
  8
0
 10
-51.4202
 20
32.3291
 11
-51.4527
 21
32.5005
  0
LINE
  8
0
 10
-51.4527
 20
32.5005
 11
-51.4625
 21
32.6754
  0
LINE
  8
0
 10
-51.4625
 20
32.6754
 11
-51.4498
 21
32.8503
  0
LINE
  8
0
 10
-51.4498
 20
32.8503
 11
-51.4145
 21
33.0251
  0
LINE
  8
0
 10
-51.4145
 20
33.0251
 11
-51.3568
 21
33.1997
  0
LINE
  8
0
 10
-51.3568
 20
33.1997
 11
-51.2766
 21
33.3743
  0
LINE
  8
0
 10
-51.2766
 20
33.3743
 11
-51.1739
 21
33.5487
  0
LINE
  8
0
 10
-51.1739
 20
33.5487
 11
-51.0501
 21
33.7203
  0
LINE
  8
0
 10
-51.0501
 20
33.7203
 11
-50.9188
 21
33.8678
  0
LINE
  8
0
 10
-50.9188
 20
33.8678
 11
-50.7799
 21
33.9913
  0
LINE
  8
0
 10
-50.7799
 20
33.9913
 11
-50.6334
 21
34.0907
  0
LINE
  8
0
 10
-50.6334
 20
34.0907
 11
-50.4794
 21
34.166
  0
LINE
  8
0
 10
-50.4794
 20
34.166
 11
-50.3178
 21
34.2173
  0
LINE
  8
0
 10
-50.3178
 20
34.2173
 11
-50.1516
 21
34.2438
  0
LINE
  8
0
 10
-50.1516
 20
34.2438
 11
-49.9835
 21
34.2444
  0
LINE
  8
0
 10
-49.9835
 20
34.2444
 11
-49.8133
 21
34.2192
  0
LINE
  8
0
 10
-49.8133
 20
34.2192
 11
-49.6411
 21
34.1681
  0
LINE
  8
0
 10
-49.6411
 20
34.1681
 11
-49.467
 21
34.0911
  0
LINE
  8
0
 10
-49.467
 20
34.0911
 11
-49.2908
 21
33.9882
  0
LINE
  8
0
 10
-49.2908
 20
33.9882
 11
-49.1652
 21
33.899
  0
LINE
  8
0
 10
-49.1652
 20
33.899
 11
-49.0507
 21
33.8028
  0
LINE
  8
0
 10
-49.0507
 20
33.8028
 11
-48.9473
 21
33.6995
  0
LINE
  8
0
 10
-48.9473
 20
33.6995
 11
-48.8549
 21
33.5893
  0
LINE
  8
0
 10
-48.8549
 20
33.5893
 11
-48.7737
 21
33.472
  0
LINE
  8
0
 10
-48.7737
 20
33.472
 11
-48.7035
 21
33.3477
  0
LINE
  8
0
 10
-48.7035
 20
33.3477
 11
-48.642
 21
33.2174
  0
LINE
  8
0
 10
-48.642
 20
33.2174
 11
-48.5859
 21
33.082
  0
LINE
  8
0
 10
-48.5859
 20
33.082
 11
-48.5354
 21
32.9413
  0
LINE
  8
0
 10
-48.5354
 20
32.9413
 11
-48.4905
 21
32.7954
  0
LINE
  8
0
 10
-48.4905
 20
32.7954
 11
-48.451
 21
32.6443
  0
LINE
  8
0
 10
-48.451
 20
32.6443
 11
-48.4171
 21
32.488
  0
LINE
  8
0
 10
-48.4171
 20
32.488
 11
-48.3875
 21
32.3273
  0
LINE
  8
0
 10
-48.3875
 20
32.3273
 11
-48.3604
 21
32.1627
  0
LINE
  8
0
 10
-48.3604
 20
32.1627
 11
-48.3358
 21
31.9941
  0
LINE
  8
0
 10
-48.3358
 20
31.9941
 11
-48.3137
 21
31.8216
  0
LINE
  8
0
 10
-48.3137
 20
31.8216
 11
-48.2941
 21
31.6451
  0
LINE
  8
0
 10
-48.2941
 20
31.6451
 11
-48.277
 21
31.4647
  0
LINE
  8
0
 10
-48.277
 20
31.4647
 11
-48.2603
 21
31.2815
  0
LINE
  8
0
 10
-48.2603
 20
31.2815
 11
-48.2411
 21
31.096
  0
LINE
  8
0
 10
-48.2411
 20
31.096
 11
-48.2195
 21
30.9084
  0
LINE
  8
0
 10
-48.2195
 20
30.9084
 11
-48.1954
 21
30.7186
  0
LINE
  8
0
 10
-48.1954
 20
30.7186
 11
-48.169
 21
30.5266
  0
LINE
  8
0
 10
-48.169
 20
30.5266
 11
-48.1401
 21
30.3324
  0
LINE
  8
0
 10
-48.1401
 20
30.3324
 11
-48.1071
 21
30.137
  0
LINE
  8
0
 10
-48.1071
 20
30.137
 11
-48.0685
 21
29.9405
  0
LINE
  8
0
 10
-48.0685
 20
29.9405
 11
-48.0244
 21
29.7431
  0
LINE
  8
0
 10
-48.0244
 20
29.7431
 11
-47.9747
 21
29.5448
  0
LINE
  8
0
 10
-47.9747
 20
29.5448
 11
-47.9195
 21
29.3454
  0
LINE
  8
0
 10
-47.9195
 20
29.3454
 11
-47.8587
 21
29.1451
  0
LINE
  8
0
 10
-47.8587
 20
29.1451
 11
-47.7898
 21
28.9449
  0
LINE
  8
0
 10
-47.7898
 20
28.9449
 11
-47.7103
 21
28.7459
  0
LINE
  8
0
 10
-47.7103
 20
28.7459
 11
-47.6199
 21
28.548
  0
LINE
  8
0
 10
-47.6199
 20
28.548
 11
-47.5189
 21
28.3513
  0
LINE
  8
0
 10
-47.5189
 20
28.3513
 11
-47.4072
 21
28.1558
  0
LINE
  8
0
 10
-47.4072
 20
28.1558
 11
-47.2847
 21
27.9614
  0
LINE
  8
0
 10
-47.2847
 20
27.9614
 11
-46.7063
 21
27.5834
  0
LINE
  8
0
 10
-46.7063
 20
27.5834
 11
-43.9314
 21
31.8302
  0
LINE
  8
0
 10
51.92
 20
23.0769
 11
51.4337
 21
24.0379
  0
LINE
  8
0
 10
51.4337
 20
24.0379
 11
56.0593
 21
26.3784
  0
LINE
  8
0
 10
56.0593
 20
26.3784
 11
55.5956
 21
27.2948
  0
LINE
  8
0
 10
55.5956
 20
27.2948
 11
49.3805
 21
28.0803
  0
LINE
  8
0
 10
49.3805
 20
28.0803
 11
48.6979
 21
27.735
  0
LINE
  8
0
 10
48.6979
 20
27.735
 11
50.3277
 21
24.5138
  0
LINE
  8
0
 10
50.3277
 20
24.5138
 11
48.7894
 21
23.7355
  0
LINE
  8
0
 10
48.7894
 20
23.7355
 11
49.2066
 21
22.911
  0
LINE
  8
0
 10
49.2066
 20
22.911
 11
50.7449
 21
23.6894
  0
LINE
  8
0
 10
50.7449
 20
23.6894
 11
51.2312
 21
22.7284
  0
LINE
  8
0
 10
51.2312
 20
22.7284
 11
51.92
 21
23.0769
  0
LINE
  8
0
 10
49.794
 20
27.2787
 11
49.9314
 21
27.2507
  0
LINE
  8
0
 10
49.9314
 20
27.2507
 11
50.4255
 21
27.1712
  0
LINE
  8
0
 10
50.4255
 20
27.1712
 11
53.9118
 21
26.7353
  0
LINE
  8
0
 10
53.9118
 20
26.7353
 11
53.958
 21
26.7303
  0
LINE
  8
0
 10
53.958
 20
26.7303
 11
54.0135
 21
26.7256
  0
LINE
  8
0
 10
54.0135
 20
26.7256
 11
54.0784
 21
26.7212
  0
LINE
  8
0
 10
54.0784
 20
26.7212
 11
54.1526
 21
26.7172
  0
LINE
  8
0
 10
54.1526
 20
26.7172
 11
54.2363
 21
26.7134
  0
LINE
  8
0
 10
54.2363
 20
26.7134
 11
54.3292
 21
26.71
  0
LINE
  8
0
 10
54.3292
 20
26.71
 11
54.4201
 21
26.707
  0
LINE
  8
0
 10
54.4201
 20
26.707
 11
54.4966
 21
26.7049
  0
LINE
  8
0
 10
54.4966
 20
26.7049
 11
54.5586
 21
26.7036
  0
LINE
  8
0
 10
54.5586
 20
26.7036
 11
54.6061
 21
26.7032
  0
LINE
  8
0
 10
54.6061
 20
26.7032
 11
54.6393
 21
26.7036
  0
LINE
  8
0
 10
54.6393
 20
26.7036
 11
54.658
 21
26.7049
  0
LINE
  8
0
 10
54.658
 20
26.7049
 11
51.0166
 21
24.8624
  0
LINE
  8
0
 10
51.0166
 20
24.8624
 11
49.794
 21
27.2787
  0
LINE
  8
0
 10
-56.9498
 20
0.632996
 11
-56.427
 21
0.69635
  0
LINE
  8
0
 10
-56.427
 20
0.69635
 11
-55.9537
 21
0.799332
  0
LINE
  8
0
 10
-55.9537
 20
0.799332
 11
-55.5301
 21
0.94194
  0
LINE
  8
0
 10
-55.5301
 20
0.94194
 11
-55.1559
 21
1.12416
  0
LINE
  8
0
 10
-55.1559
 20
1.12416
 11
-54.834
 21
1.34633
  0
LINE
  8
0
 10
-54.834
 20
1.34633
 11
-54.5661
 21
1.60805
  0
LINE
  8
0
 10
-54.5661
 20
1.60805
 11
-54.3524
 21
1.90929
  0
LINE
  8
0
 10
-54.3524
 20
1.90929
 11
-54.1928
 21
2.25011
  0
LINE
  8
0
 10
-54.1928
 20
2.25011
 11
-54.0874
 21
2.63045
  0
LINE
  8
0
 10
-54.0874
 20
2.63045
 11
-54.036
 21
3.05032
  0
LINE
  8
0
 10
-54.036
 20
3.05032
 11
-54.041
 21
3.47368
  0
LINE
  8
0
 10
-54.041
 20
3.47368
 11
-54.1043
 21
3.86444
  0
LINE
  8
0
 10
-54.1043
 20
3.86444
 11
-54.2262
 21
4.2226
  0
LINE
  8
0
 10
-54.2262
 20
4.2226
 11
-54.4064
 21
4.54814
  0
LINE
  8
0
 10
-54.4064
 20
4.54814
 11
-54.6451
 21
4.84108
  0
LINE
  8
0
 10
-54.6451
 20
4.84108
 11
-54.9423
 21
5.10143
  0
LINE
  8
0
 10
-54.9423
 20
5.10143
 11
-55.295
 21
5.32808
  0
LINE
  8
0
 10
-55.295
 20
5.32808
 11
-55.7006
 21
5.51999
  0
LINE
  8
0
 10
-55.7006
 20
5.51999
 11
-56.1589
 21
5.67714
  0
LINE
  8
0
 10
-56.1589
 20
5.67714
 11
-56.67
 21
5.79953
  0
LINE
  8
0
 10
-56.67
 20
5.79953
 11
-57.2338
 21
5.88716
  0
LINE
  8
0
 10
-57.2338
 20
5.88716
 11
-57.8504
 21
5.94006
  0
LINE
  8
0
 10
-57.8504
 20
5.94006
 11
-58.4787
 21
5.95682
  0
LINE
  8
0
 10
-58.4787
 20
5.95682
 11
-59.0555
 21
5.93484
  0
LINE
  8
0
 10
-59.0555
 20
5.93484
 11
-59.5807
 21
5.87413
  0
LINE
  8
0
 10
-59.5807
 20
5.87413
 11
-60.0545
 21
5.77469
  0
LINE
  8
0
 10
-60.0545
 20
5.77469
 11
-60.4767
 21
5.63651
  0
LINE
  8
0
 10
-60.4767
 20
5.63651
 11
-60.8475
 21
5.45961
  0
LINE
  8
0
 10
-60.8475
 20
5.45961
 11
-61.1661
 21
5.24248
  0
LINE
  8
0
 10
-61.1661
 20
5.24248
 11
-61.4313
 21
4.98296
  0
LINE
  8
0
 10
-61.4313
 20
4.98296
 11
-61.6432
 21
4.68105
  0
LINE
  8
0
 10
-61.6432
 20
4.68105
 11
-61.8015
 21
4.33672
  0
LINE
  8
0
 10
-61.8015
 20
4.33672
 11
-61.9065
 21
3.95001
  0
LINE
  8
0
 10
-61.9065
 20
3.95001
 11
-61.9581
 21
3.5209
  0
LINE
  8
0
 10
-61.9581
 20
3.5209
 11
-61.9551
 21
3.07683
  0
LINE
  8
0
 10
-61.9551
 20
3.07683
 11
-61.8947
 21
2.67113
  0
LINE
  8
0
 10
-61.8947
 20
2.67113
 11
-61.7772
 21
2.30383
  0
LINE
  8
0
 10
-61.7772
 20
2.30383
 11
-61.6024
 21
1.97495
  0
LINE
  8
0
 10
-61.6024
 20
1.97495
 11
-61.3703
 21
1.68445
  0
LINE
  8
0
 10
-61.3703
 20
1.68445
 11
-61.0809
 21
1.43236
  0
LINE
  8
0
 10
-61.0809
 20
1.43236
 11
-60.7346
 21
1.21616
  0
LINE
  8
0
 10
-60.7346
 20
1.21616
 11
-60.3311
 21
1.03264
  0
LINE
  8
0
 10
-60.3311
 20
1.03264
 11
-59.8702
 21
0.88176
  0
LINE
  8
0
 10
-59.8702
 20
0.88176
 11
-59.3521
 21
0.763565
  0
LINE
  8
0
 10
-59.3521
 20
0.763565
 11
-58.7767
 21
0.67804
  0
LINE
  8
0
 10
-58.7767
 20
0.67804
 11
-58.144
 21
0.625183
  0
LINE
  8
0
 10
-58.144
 20
0.625183
 11
-57.5221
 21
0.609283
  0
LINE
  8
0
 10
-57.5221
 20
0.609283
 11
-56.9498
 21
0.632996
  0
LINE
  8
0
 10
-58.0894
 20
1.61366
 11
-58.6261
 21
1.65428
  0
LINE
  8
0
 10
-58.6261
 20
1.65428
 11
-59.1087
 21
1.71381
  0
LINE
  8
0
 10
-59.1087
 20
1.71381
 11
-59.5372
 21
1.7923
  0
LINE
  8
0
 10
-59.5372
 20
1.7923
 11
-59.9116
 21
1.88968
  0
LINE
  8
0
 10
-59.9116
 20
1.88968
 11
-60.2318
 21
2.00603
  0
LINE
  8
0
 10
-60.2318
 20
2.00603
 11
-60.498
 21
2.14128
  0
LINE
  8
0
 10
-60.498
 20
2.14128
 11
-60.7157
 21
2.29901
  0
LINE
  8
0
 10
-60.7157
 20
2.29901
 11
-60.8908
 21
2.4827
  0
LINE
  8
0
 10
-60.8908
 20
2.4827
 11
-61.0234
 21
2.69235
  0
LINE
  8
0
 10
-61.0234
 20
2.69235
 11
-61.1133
 21
2.92798
  0
LINE
  8
0
 10
-61.1133
 20
2.92798
 11
-61.1606
 21
3.18958
  0
LINE
  8
0
 10
-61.1606
 20
3.18958
 11
-61.1653
 21
3.47711
  0
LINE
  8
0
 10
-61.1653
 20
3.47711
 11
-61.1291
 21
3.75507
  0
LINE
  8
0
 10
-61.1291
 20
3.75507
 11
-61.0527
 21
4.00314
  0
LINE
  8
0
 10
-61.0527
 20
4.00314
 11
-60.9362
 21
4.22136
  0
LINE
  8
0
 10
-60.9362
 20
4.22136
 11
-60.7795
 21
4.4097
  0
LINE
  8
0
 10
-60.7795
 20
4.4097
 11
-60.5827
 21
4.56818
  0
LINE
  8
0
 10
-60.5827
 20
4.56818
 11
-60.3458
 21
4.69678
  0
LINE
  8
0
 10
-60.3458
 20
4.69678
 11
-60.0638
 21
4.79871
  0
LINE
  8
0
 10
-60.0638
 20
4.79871
 11
-59.7319
 21
4.87654
  0
LINE
  8
0
 10
-59.7319
 20
4.87654
 11
-59.3502
 21
4.93022
  0
LINE
  8
0
 10
-59.3502
 20
4.93022
 11
-58.9185
 21
4.95979
  0
LINE
  8
0
 10
-58.9185
 20
4.95979
 11
-58.4369
 21
4.96524
  0
LINE
  8
0
 10
-58.4369
 20
4.96524
 11
-57.9053
 21
4.94656
  0
LINE
  8
0
 10
-57.9053
 20
4.94656
 11
-57.3925
 21
4.90704
  0
LINE
  8
0
 10
-57.3925
 20
4.90704
 11
-56.9272
 21
4.84772
  0
LINE
  8
0
 10
-56.9272
 20
4.84772
 11
-56.5093
 21
4.76859
  0
LINE
  8
0
 10
-56.5093
 20
4.76859
 11
-56.1388
 21
4.66963
  0
LINE
  8
0
 10
-56.1388
 20
4.66963
 11
-55.8158
 21
4.55089
  0
LINE
  8
0
 10
-55.8158
 20
4.55089
 11
-55.5402
 21
4.41234
  0
LINE
  8
0
 10
-55.5402
 20
4.41234
 11
-55.3109
 21
4.25262
  0
LINE
  8
0
 10
-55.3109
 20
4.25262
 11
-55.1262
 21
4.06967
  0
LINE
  8
0
 10
-55.1262
 20
4.06967
 11
-54.9861
 21
3.86346
  0
LINE
  8
0
 10
-54.9861
 20
3.86346
 11
-54.8906
 21
3.63399
  0
LINE
  8
0
 10
-54.8906
 20
3.63399
 11
-54.8396
 21
3.3813
  0
LINE
  8
0
 10
-54.8396
 20
3.3813
 11
-54.8332
 21
3.10536
  0
LINE
  8
0
 10
-54.8332
 20
3.10536
 11
-54.8696
 21
2.83002
  0
LINE
  8
0
 10
-54.8696
 20
2.83002
 11
-54.9468
 21
2.58307
  0
LINE
  8
0
 10
-54.9468
 20
2.58307
 11
-55.0649
 21
2.36453
  0
LINE
  8
0
 10
-55.0649
 20
2.36453
 11
-55.2238
 21
2.17439
  0
LINE
  8
0
 10
-55.2238
 20
2.17439
 11
-55.4235
 21
2.01266
  0
LINE
  8
0
 10
-55.4235
 20
2.01266
 11
-55.6641
 21
1.87933
  0
LINE
  8
0
 10
-55.6641
 20
1.87933
 11
-55.9489
 21
1.77295
  0
LINE
  8
0
 10
-55.9489
 20
1.77295
 11
-56.2815
 21
1.69142
  0
LINE
  8
0
 10
-56.2815
 20
1.69142
 11
-56.6618
 21
1.63474
  0
LINE
  8
0
 10
-56.6618
 20
1.63474
 11
-57.0899
 21
1.60287
  0
LINE
  8
0
 10
-57.0899
 20
1.60287
 11
-57.5658
 21
1.59586
  0
LINE
  8
0
 10
-57.5658
 20
1.59586
 11
-58.0894
 21
1.61366
  0
LINE
  8
0
 10
-59.5558
 20
-5.2382
 11
-60.8902
 21
-3.58028
  0
LINE
  8
0
 10
-60.8902
 20
-3.58028
 11
-54.9862
 21
-3.25421
  0
LINE
  8
0
 10
-54.9862
 20
-3.25421
 11
-54.8786
 21
-5.20325
  0
LINE
  8
0
 10
-54.8786
 20
-5.20325
 11
-54.0478
 21
-5.15736
  0
LINE
  8
0
 10
-54.0478
 20
-5.15736
 11
-54.3126
 21
-0.362686
  0
LINE
  8
0
 10
-54.3126
 20
-0.362686
 11
-55.1434
 21
-0.408554
  0
LINE
  8
0
 10
-55.1434
 20
-0.408554
 11
-55.0405
 21
-2.27072
  0
LINE
  8
0
 10
-55.0405
 20
-2.27072
 11
-61.8781
 21
-2.64836
  0
LINE
  8
0
 10
-61.8781
 20
-2.64836
 11
-61.8283
 21
-3.54997
  0
LINE
  8
0
 10
-61.8283
 20
-3.54997
 11
-60.4783
 21
-5.28915
  0
LINE
  8
0
 10
-60.4783
 20
-5.28915
 11
-59.5558
 21
-5.2382
  0
LINE
  8
0
 10
61.9706
 20
-0.972733
 11
61.1399
 21
-0.926849
  0
LINE
  8
0
 10
61.1399
 20
-0.926849
 11
60.9129
 21
-5.03658
  0
LINE
  8
0
 10
60.9129
 20
-5.03658
 11
60.2462
 21
-4.53653
  0
LINE
  8
0
 10
60.2462
 20
-4.53653
 11
59.6042
 21
-4.08427
  0
LINE
  8
0
 10
59.6042
 20
-4.08427
 11
58.9871
 21
-3.67979
  0
LINE
  8
0
 10
58.9871
 20
-3.67979
 11
58.3947
 21
-3.32309
  0
LINE
  8
0
 10
58.3947
 20
-3.32309
 11
57.8271
 21
-3.01418
  0
LINE
  8
0
 10
57.8271
 20
-3.01418
 11
57.2844
 21
-2.75302
  0
LINE
  8
0
 10
57.2844
 20
-2.75302
 11
56.7576
 21
-2.53357
  0
LINE
  8
0
 10
56.7576
 20
-2.53357
 11
56.2376
 21
-2.34912
  0
LINE
  8
0
 10
56.2376
 20
-2.34912
 11
55.7242
 21
-2.19963
  0
LINE
  8
0
 10
55.7242
 20
-2.19963
 11
55.2176
 21
-2.08514
  0
LINE
  8
0
 10
55.2176
 20
-2.08514
 11
54.7176
 21
-2.00562
  0
LINE
  8
0
 10
54.7176
 20
-2.00562
 11
54.2244
 21
-1.96106
  0
LINE
  8
0
 10
54.2244
 20
-1.96106
 11
54.168
 21
-2.98151
  0
LINE
  8
0
 10
54.168
 20
-2.98151
 11
54.5195
 21
-3.00766
  0
LINE
  8
0
 10
54.5195
 20
-3.00766
 11
54.8662
 21
-3.04698
  0
LINE
  8
0
 10
54.8662
 20
-3.04698
 11
55.2083
 21
-3.09953
  0
LINE
  8
0
 10
55.2083
 20
-3.09953
 11
55.5457
 21
-3.1653
  0
LINE
  8
0
 10
55.5457
 20
-3.1653
 11
55.8785
 21
-3.24428
  0
LINE
  8
0
 10
55.8785
 20
-3.24428
 11
56.2065
 21
-3.33646
  0
LINE
  8
0
 10
56.2065
 20
-3.33646
 11
56.5329
 21
-3.442
  0
LINE
  8
0
 10
56.5329
 20
-3.442
 11
56.86
 21
-3.56105
  0
LINE
  8
0
 10
56.86
 20
-3.56105
 11
57.1878
 21
-3.6936
  0
LINE
  8
0
 10
57.1878
 20
-3.6936
 11
57.5163
 21
-3.83966
  0
LINE
  8
0
 10
57.5163
 20
-3.83966
 11
57.8455
 21
-3.99924
  0
LINE
  8
0
 10
57.8455
 20
-3.99924
 11
58.1754
 21
-4.17229
  0
LINE
  8
0
 10
58.1754
 20
-4.17229
 11
58.5266
 21
-4.37245
  0
LINE
  8
0
 10
58.5266
 20
-4.37245
 11
58.9188
 21
-4.6133
  0
LINE
  8
0
 10
58.9188
 20
-4.6133
 11
59.3521
 21
-4.89478
  0
LINE
  8
0
 10
59.3521
 20
-4.89478
 11
59.8266
 21
-5.21693
  0
LINE
  8
0
 10
59.8266
 20
-5.21693
 11
60.3421
 21
-5.57974
  0
LINE
  8
0
 10
60.3421
 20
-5.57974
 11
60.8987
 21
-5.98323
  0
LINE
  8
0
 10
60.8987
 20
-5.98323
 11
61.6915
 21
-6.02701
  0
LINE
  8
0
 10
61.6915
 20
-6.02701
 11
61.9706
 21
-0.972733
  0
LINE
  8
0
 10
-52.7218
 20
-29.069
 11
-52.225
 21
-28.9727
  0
LINE
  8
0
 10
-52.225
 20
-28.9727
 11
-51.6998
 21
-28.8178
  0
LINE
  8
0
 10
-51.6998
 20
-28.8178
 11
-51.1463
 21
-28.6042
  0
LINE
  8
0
 10
-51.1463
 20
-28.6042
 11
-50.5644
 21
-28.332
  0
LINE
  8
0
 10
-50.5644
 20
-28.332
 11
-50.0446
 21
-28.0476
  0
LINE
  8
0
 10
-50.0446
 20
-28.0476
 11
-49.5856
 21
-27.7514
  0
LINE
  8
0
 10
-49.5856
 20
-27.7514
 11
-49.1875
 21
-27.4433
  0
LINE
  8
0
 10
-49.1875
 20
-27.4433
 11
-48.8503
 21
-27.1234
  0
LINE
  8
0
 10
-48.8503
 20
-27.1234
 11
-48.5739
 21
-26.7917
  0
LINE
  8
0
 10
-48.5739
 20
-26.7917
 11
-48.3584
 21
-26.448
  0
LINE
  8
0
 10
-48.3584
 20
-26.448
 11
-48.2052
 21
-26.0956
  0
LINE
  8
0
 10
-48.2052
 20
-26.0956
 11
-48.1152
 21
-25.7374
  0
LINE
  8
0
 10
-48.1152
 20
-25.7374
 11
-48.0886
 21
-25.3732
  0
LINE
  8
0
 10
-48.0886
 20
-25.3732
 11
-48.1252
 21
-25.0031
  0
LINE
  8
0
 10
-48.1252
 20
-25.0031
 11
-48.225
 21
-24.6271
  0
LINE
  8
0
 10
-48.225
 20
-24.6271
 11
-48.3881
 21
-24.2452
  0
LINE
  8
0
 10
-48.3881
 20
-24.2452
 11
-48.5737
 21
-23.922
  0
LINE
  8
0
 10
-48.5737
 20
-23.922
 11
-48.7819
 21
-23.6415
  0
LINE
  8
0
 10
-48.7819
 20
-23.6415
 11
-49.0126
 21
-23.4035
  0
LINE
  8
0
 10
-49.0126
 20
-23.4035
 11
-49.266
 21
-23.208
  0
LINE
  8
0
 10
-49.266
 20
-23.208
 11
-49.542
 21
-23.0552
  0
LINE
  8
0
 10
-49.542
 20
-23.0552
 11
-49.8406
 21
-22.9449
  0
LINE
  8
0
 10
-49.8406
 20
-22.9449
 11
-50.1553
 21
-22.8788
  0
LINE
  8
0
 10
-50.1553
 20
-22.8788
 11
-50.4792
 21
-22.8583
  0
LINE
  8
0
 10
-50.4792
 20
-22.8583
 11
-50.812
 21
-22.8834
  0
LINE
  8
0
 10
-50.812
 20
-22.8834
 11
-51.154
 21
-22.954
  0
LINE
  8
0
 10
-51.154
 20
-22.954
 11
-51.505
 21
-23.0701
  0
LINE
  8
0
 10
-51.505
 20
-23.0701
 11
-51.8651
 21
-23.2318
  0
LINE
  8
0
 10
-51.8651
 20
-23.2318
 11
-52.1829
 21
-23.412
  0
LINE
  8
0
 10
-52.1829
 20
-23.412
 11
-52.4621
 21
-23.6115
  0
LINE
  8
0
 10
-52.4621
 20
-23.6115
 11
-52.7027
 21
-23.8302
  0
LINE
  8
0
 10
-52.7027
 20
-23.8302
 11
-52.9048
 21
-24.0682
  0
LINE
  8
0
 10
-52.9048
 20
-24.0682
 11
-53.0684
 21
-24.3256
  0
LINE
  8
0
 10
-53.0684
 20
-24.3256
 11
-53.1935
 21
-24.6022
  0
LINE
  8
0
 10
-53.1935
 20
-24.6022
 11
-53.2774
 21
-24.8906
  0
LINE
  8
0
 10
-53.2774
 20
-24.8906
 11
-53.317
 21
-25.1839
  0
LINE
  8
0
 10
-53.317
 20
-25.1839
 11
-53.3123
 21
-25.4821
  0
LINE
  8
0
 10
-53.3123
 20
-25.4821
 11
-53.2634
 21
-25.7852
  0
LINE
  8
0
 10
-53.2634
 20
-25.7852
 11
-53.1703
 21
-26.0931
  0
LINE
  8
0
 10
-53.1703
 20
-26.0931
 11
-53.0329
 21
-26.406
  0
LINE
  8
0
 10
-53.0329
 20
-26.406
 11
-52.934
 21
-26.5854
  0
LINE
  8
0
 10
-52.934
 20
-26.5854
 11
-52.8259
 21
-26.7513
  0
LINE
  8
0
 10
-52.8259
 20
-26.7513
 11
-52.7085
 21
-26.9036
  0
LINE
  8
0
 10
-52.7085
 20
-26.9036
 11
-52.5818
 21
-27.0424
  0
LINE
  8
0
 10
-52.5818
 20
-27.0424
 11
-52.4458
 21
-27.1677
  0
LINE
  8
0
 10
-52.4458
 20
-27.1677
 11
-52.3006
 21
-27.2794
  0
LINE
  8
0
 10
-52.3006
 20
-27.2794
 11
-52.1479
 21
-27.3762
  0
LINE
  8
0
 10
-52.1479
 20
-27.3762
 11
-51.9889
 21
-27.4562
  0
LINE
  8
0
 10
-51.9889
 20
-27.4562
 11
-51.8236
 21
-27.5194
  0
LINE
  8
0
 10
-51.8236
 20
-27.5194
 11
-51.6521
 21
-27.5659
  0
LINE
  8
0
 10
-51.6521
 20
-27.5659
 11
-51.4742
 21
-27.5957
  0
LINE
  8
0
 10
-51.4742
 20
-27.5957
 11
-51.2901
 21
-27.6087
  0
LINE
  8
0
 10
-51.2901
 20
-27.6087
 11
-51.7176
 21
-27.8107
  0
LINE
  8
0
 10
-51.7176
 20
-27.8107
 11
-52.122
 21
-27.9725
  0
LINE
  8
0
 10
-52.122
 20
-27.9725
 11
-52.5034
 21
-28.094
  0
LINE
  8
0
 10
-52.5034
 20
-28.094
 11
-52.8618
 21
-28.1753
  0
LINE
  8
0
 10
-52.8618
 20
-28.1753
 11
-53.1971
 21
-28.2164
  0
LINE
  8
0
 10
-53.1971
 20
-28.2164
 11
-53.5094
 21
-28.2172
  0
LINE
  8
0
 10
-53.5094
 20
-28.2172
 11
-53.7958
 21
-28.1785
  0
LINE
  8
0
 10
-53.7958
 20
-28.1785
 11
-54.053
 21
-28.1016
  0
LINE
  8
0
 10
-54.053
 20
-28.1016
 11
-54.281
 21
-27.9865
  0
LINE
  8
0
 10
-54.281
 20
-27.9865
 11
-54.4798
 21
-27.8331
  0
LINE
  8
0
 10
-54.4798
 20
-27.8331
 11
-54.6496
 21
-27.6415
  0
LINE
  8
0
 10
-54.6496
 20
-27.6415
 11
-54.7901
 21
-27.4117
  0
LINE
  8
0
 10
-54.7901
 20
-27.4117
 11
-54.9049
 21
-27.1272
  0
LINE
  8
0
 10
-54.9049
 20
-27.1272
 11
-54.9561
 21
-26.8534
  0
LINE
  8
0
 10
-54.9561
 20
-26.8534
 11
-54.9438
 21
-26.5901
  0
LINE
  8
0
 10
-54.9438
 20
-26.5901
 11
-54.868
 21
-26.3373
  0
LINE
  8
0
 10
-54.868
 20
-26.3373
 11
-54.7285
 21
-26.0951
  0
LINE
  8
0
 10
-54.7285
 20
-26.0951
 11
-54.5256
 21
-25.8635
  0
LINE
  8
0
 10
-54.5256
 20
-25.8635
 11
-55.0985
 21
-25.1055
  0
LINE
  8
0
 10
-55.0985
 20
-25.1055
 11
-55.4398
 21
-25.4866
  0
LINE
  8
0
 10
-55.4398
 20
-25.4866
 11
-55.6717
 21
-25.8923
  0
LINE
  8
0
 10
-55.6717
 20
-25.8923
 11
-55.7939
 21
-26.3226
  0
LINE
  8
0
 10
-55.7939
 20
-26.3226
 11
-55.8067
 21
-26.7773
  0
LINE
  8
0
 10
-55.8067
 20
-26.7773
 11
-55.7099
 21
-27.2565
  0
LINE
  8
0
 10
-55.7099
 20
-27.2565
 11
-55.5035
 21
-27.7603
  0
LINE
  8
0
 10
-55.5035
 20
-27.7603
 11
-55.2866
 21
-28.123
  0
LINE
  8
0
 10
-55.2866
 20
-28.123
 11
-55.0316
 21
-28.429
  0
LINE
  8
0
 10
-55.0316
 20
-28.429
 11
-54.7384
 21
-28.6783
  0
LINE
  8
0
 10
-54.7384
 20
-28.6783
 11
-54.4072
 21
-28.8707
  0
LINE
  8
0
 10
-54.4072
 20
-28.8707
 11
-54.0379
 21
-29.0065
  0
LINE
  8
0
 10
-54.0379
 20
-29.0065
 11
-53.6305
 21
-29.0854
  0
LINE
  8
0
 10
-53.6305
 20
-29.0854
 11
-53.1904
 21
-29.1065
  0
LINE
  8
0
 10
-53.1904
 20
-29.1065
 11
-52.7218
 21
-29.069
  0
LINE
  8
0
 10
-51.2042
 20
-27.1277
 11
-51.3906
 21
-27.0779
  0
LINE
  8
0
 10
-51.3906
 20
-27.0779
 11
-51.5681
 21
-27.0018
  0
LINE
  8
0
 10
-51.5681
 20
-27.0018
 11
-51.7321
 21
-26.9026
  0
LINE
  8
0
 10
-51.7321
 20
-26.9026
 11
-51.8825
 21
-26.7801
  0
LINE
  8
0
 10
-51.8825
 20
-26.7801
 11
-52.0194
 21
-26.6345
  0
LINE
  8
0
 10
-52.0194
 20
-26.6345
 11
-52.1428
 21
-26.4655
  0
LINE
  8
0
 10
-52.1428
 20
-26.4655
 11
-52.2526
 21
-26.2734
  0
LINE
  8
0
 10
-52.2526
 20
-26.2734
 11
-52.3468
 21
-26.0591
  0
LINE
  8
0
 10
-52.3468
 20
-26.0591
 11
-52.4102
 21
-25.8491
  0
LINE
  8
0
 10
-52.4102
 20
-25.8491
 11
-52.4428
 21
-25.6434
  0
LINE
  8
0
 10
-52.4428
 20
-25.6434
 11
-52.4447
 21
-25.4421
  0
LINE
  8
0
 10
-52.4447
 20
-25.4421
 11
-52.4157
 21
-25.2452
  0
LINE
  8
0
 10
-52.4157
 20
-25.2452
 11
-52.356
 21
-25.0526
  0
LINE
  8
0
 10
-52.356
 20
-25.0526
 11
-52.2664
 21
-24.8676
  0
LINE
  8
0
 10
-52.2664
 20
-24.8676
 11
-52.1474
 21
-24.693
  0
LINE
  8
0
 10
-52.1474
 20
-24.693
 11
-51.9989
 21
-24.529
  0
LINE
  8
0
 10
-51.9989
 20
-24.529
 11
-51.821
 21
-24.3754
  0
LINE
  8
0
 10
-51.821
 20
-24.3754
 11
-51.6136
 21
-24.2324
  0
LINE
  8
0
 10
-51.6136
 20
-24.2324
 11
-51.3767
 21
-24.0998
  0
LINE
  8
0
 10
-51.3767
 20
-24.0998
 11
-51.129
 21
-23.987
  0
LINE
  8
0
 10
-51.129
 20
-23.987
 11
-50.8891
 21
-23.9033
  0
LINE
  8
0
 10
-50.8891
 20
-23.9033
 11
-50.6571
 21
-23.8486
  0
LINE
  8
0
 10
-50.6571
 20
-23.8486
 11
-50.4328
 21
-23.823
  0
LINE
  8
0
 10
-50.4328
 20
-23.823
 11
-50.2165
 21
-23.8264
  0
LINE
  8
0
 10
-50.2165
 20
-23.8264
 11
-50.008
 21
-23.8589
  0
LINE
  8
0
 10
-50.008
 20
-23.8589
 11
-49.812
 21
-23.9194
  0
LINE
  8
0
 10
-49.812
 20
-23.9194
 11
-49.6322
 21
-24.0071
  0
LINE
  8
0
 10
-49.6322
 20
-24.0071
 11
-49.4688
 21
-24.1221
  0
LINE
  8
0
 10
-49.4688
 20
-24.1221
 11
-49.3217
 21
-24.2643
  0
LINE
  8
0
 10
-49.3217
 20
-24.2643
 11
-49.1909
 21
-24.4337
  0
LINE
  8
0
 10
-49.1909
 20
-24.4337
 11
-49.0763
 21
-24.6304
  0
LINE
  8
0
 10
-49.0763
 20
-24.6304
 11
-48.9906
 21
-24.8352
  0
LINE
  8
0
 10
-48.9906
 20
-24.8352
 11
-48.9395
 21
-25.0422
  0
LINE
  8
0
 10
-48.9395
 20
-25.0422
 11
-48.9232
 21
-25.2514
  0
LINE
  8
0
 10
-48.9232
 20
-25.2514
 11
-48.9415
 21
-25.4628
  0
LINE
  8
0
 10
-48.9415
 20
-25.4628
 11
-48.9946
 21
-25.6763
  0
LINE
  8
0
 10
-48.9946
 20
-25.6763
 11
-49.0824
 21
-25.892
  0
LINE
  8
0
 10
-49.0824
 20
-25.892
 11
-49.2012
 21
-26.1018
  0
LINE
  8
0
 10
-49.2012
 20
-26.1018
 11
-49.3471
 21
-26.2981
  0
LINE
  8
0
 10
-49.3471
 20
-26.2981
 11
-49.5202
 21
-26.4809
  0
LINE
  8
0
 10
-49.5202
 20
-26.4809
 11
-49.7204
 21
-26.6502
  0
LINE
  8
0
 10
-49.7204
 20
-26.6502
 11
-49.9476
 21
-26.806
  0
LINE
  8
0
 10
-49.9476
 20
-26.806
 11
-50.2021
 21
-26.9483
  0
LINE
  8
0
 10
-50.2021
 20
-26.9483
 11
-50.4118
 21
-27.0413
  0
LINE
  8
0
 10
-50.4118
 20
-27.0413
 11
-50.6169
 21
-27.1058
  0
LINE
  8
0
 10
-50.6169
 20
-27.1058
 11
-50.8173
 21
-27.1417
  0
LINE
  8
0
 10
-50.8173
 20
-27.1417
 11
-51.013
 21
-27.149
  0
LINE
  8
0
 10
-51.013
 20
-27.149
 11
-51.2042
 21
-27.1277
  0
LINE
  8
0
 10
50.2257
 20
-35.2626
 11
50.4934
 21
-35.1981
  0
LINE
  8
0
 10
50.4934
 20
-35.1981
 11
50.7569
 21
-35.0936
  0
LINE
  8
0
 10
50.7569
 20
-35.0936
 11
51.01
 21
-34.9508
  0
LINE
  8
0
 10
51.01
 20
-34.9508
 11
51.2526
 21
-34.7696
  0
LINE
  8
0
 10
51.2526
 20
-34.7696
 11
51.4849
 21
-34.55
  0
LINE
  8
0
 10
51.4849
 20
-34.55
 11
51.7068
 21
-34.292
  0
LINE
  8
0
 10
51.7068
 20
-34.292
 11
51.9182
 21
-33.9956
  0
LINE
  8
0
 10
51.9182
 20
-33.9956
 11
52.0998
 21
-33.6899
  0
LINE
  8
0
 10
52.0998
 20
-33.6899
 11
52.2424
 21
-33.3884
  0
LINE
  8
0
 10
52.2424
 20
-33.3884
 11
52.3461
 21
-33.0911
  0
LINE
  8
0
 10
52.3461
 20
-33.0911
 11
52.4108
 21
-32.798
  0
LINE
  8
0
 10
52.4108
 20
-32.798
 11
52.4365
 21
-32.5091
  0
LINE
  8
0
 10
52.4365
 20
-32.5091
 11
52.4232
 21
-32.2244
  0
LINE
  8
0
 10
52.4232
 20
-32.2244
 11
52.3726
 21
-31.9523
  0
LINE
  8
0
 10
52.3726
 20
-31.9523
 11
52.2866
 21
-31.7005
  0
LINE
  8
0
 10
52.2866
 20
-31.7005
 11
52.1652
 21
-31.469
  0
LINE
  8
0
 10
52.1652
 20
-31.469
 11
52.0084
 21
-31.2578
  0
LINE
  8
0
 10
52.0084
 20
-31.2578
 11
51.8162
 21
-31.0671
  0
LINE
  8
0
 10
51.8162
 20
-31.0671
 11
51.5886
 21
-30.8966
  0
LINE
  8
0
 10
51.5886
 20
-30.8966
 11
51.4029
 21
-30.7872
  0
LINE
  8
0
 10
51.4029
 20
-30.7872
 11
51.214
 21
-30.6998
  0
LINE
  8
0
 10
51.214
 20
-30.6998
 11
51.0219
 21
-30.6341
  0
LINE
  8
0
 10
51.0219
 20
-30.6341
 11
50.8267
 21
-30.5904
  0
LINE
  8
0
 10
50.8267
 20
-30.5904
 11
50.6283
 21
-30.5686
  0
LINE
  8
0
 10
50.6283
 20
-30.5686
 11
50.4268
 21
-30.5687
  0
LINE
  8
0
 10
50.4268
 20
-30.5687
 11
50.2278
 21
-30.5916
  0
LINE
  8
0
 10
50.2278
 20
-30.5916
 11
50.0367
 21
-30.6371
  0
LINE
  8
0
 10
50.0367
 20
-30.6371
 11
49.8536
 21
-30.7055
  0
LINE
  8
0
 10
49.8536
 20
-30.7055
 11
49.6785
 21
-30.7965
  0
LINE
  8
0
 10
49.6785
 20
-30.7965
 11
49.5114
 21
-30.9103
  0
LINE
  8
0
 10
49.5114
 20
-30.9103
 11
49.3522
 21
-31.0468
  0
LINE
  8
0
 10
49.3522
 20
-31.0468
 11
49.3338
 21
-31.0348
  0
LINE
  8
0
 10
49.3338
 20
-31.0348
 11
49.412
 21
-30.8274
  0
LINE
  8
0
 10
49.412
 20
-30.8274
 11
49.4641
 21
-30.6189
  0
LINE
  8
0
 10
49.4641
 20
-30.6189
 11
49.49
 21
-30.4091
  0
LINE
  8
0
 10
49.49
 20
-30.4091
 11
49.4898
 21
-30.198
  0
LINE
  8
0
 10
49.4898
 20
-30.198
 11
49.4635
 21
-29.9858
  0
LINE
  8
0
 10
49.4635
 20
-29.9858
 11
49.4109
 21
-29.7724
  0
LINE
  8
0
 10
49.4109
 20
-29.7724
 11
49.3333
 21
-29.565
  0
LINE
  8
0
 10
49.3333
 20
-29.565
 11
49.2314
 21
-29.3703
  0
LINE
  8
0
 10
49.2314
 20
-29.3703
 11
49.1052
 21
-29.1882
  0
LINE
  8
0
 10
49.1052
 20
-29.1882
 11
48.9547
 21
-29.0187
  0
LINE
  8
0
 10
48.9547
 20
-29.0187
 11
48.7799
 21
-28.8618
  0
LINE
  8
0
 10
48.7799
 20
-28.8618
 11
48.5808
 21
-28.7174
  0
LINE
  8
0
 10
48.5808
 20
-28.7174
 11
48.2801
 21
-28.5439
  0
LINE
  8
0
 10
48.2801
 20
-28.5439
 11
47.9813
 21
-28.4177
  0
LINE
  8
0
 10
47.9813
 20
-28.4177
 11
47.6844
 21
-28.3387
  0
LINE
  8
0
 10
47.6844
 20
-28.3387
 11
47.3895
 21
-28.307
  0
LINE
  8
0
 10
47.3895
 20
-28.307
 11
47.0965
 21
-28.3224
  0
LINE
  8
0
 10
47.0965
 20
-28.3224
 11
46.8054
 21
-28.3852
  0
LINE
  8
0
 10
46.8054
 20
-28.3852
 11
46.5207
 21
-28.4929
  0
LINE
  8
0
 10
46.5207
 20
-28.4929
 11
46.2471
 21
-28.6434
  0
LINE
  8
0
 10
46.2471
 20
-28.6434
 11
45.9844
 21
-28.8367
  0
LINE
  8
0
 10
45.9844
 20
-28.8367
 11
45.7328
 21
-29.0727
  0
LINE
  8
0
 10
45.7328
 20
-29.0727
 11
45.4922
 21
-29.3515
  0
LINE
  8
0
 10
45.4922
 20
-29.3515
 11
45.2626
 21
-29.6731
  0
LINE
  8
0
 10
45.2626
 20
-29.6731
 11
45.0554
 21
-30.0206
  0
LINE
  8
0
 10
45.0554
 20
-30.0206
 11
44.8938
 21
-30.359
  0
LINE
  8
0
 10
44.8938
 20
-30.359
 11
44.7779
 21
-30.6882
  0
LINE
  8
0
 10
44.7779
 20
-30.6882
 11
44.7077
 21
-31.0083
  0
LINE
  8
0
 10
44.7077
 20
-31.0083
 11
44.6831
 21
-31.3192
  0
LINE
  8
0
 10
44.6831
 20
-31.3192
 11
44.7043
 21
-31.6208
  0
LINE
  8
0
 10
44.7043
 20
-31.6208
 11
44.7694
 21
-31.9095
  0
LINE
  8
0
 10
44.7694
 20
-31.9095
 11
44.877
 21
-32.181
  0
LINE
  8
0
 10
44.877
 20
-32.181
 11
45.0269
 21
-32.4355
  0
LINE
  8
0
 10
45.0269
 20
-32.4355
 11
45.2193
 21
-32.673
  0
LINE
  8
0
 10
45.2193
 20
-32.673
 11
45.454
 21
-32.8935
  0
LINE
  8
0
 10
45.454
 20
-32.8935
 11
45.7311
 21
-33.0969
  0
LINE
  8
0
 10
45.7311
 20
-33.0969
 11
45.9443
 21
-33.2227
  0
LINE
  8
0
 10
45.9443
 20
-33.2227
 11
46.1579
 21
-33.3217
  0
LINE
  8
0
 10
46.1579
 20
-33.3217
 11
46.3721
 21
-33.3939
  0
LINE
  8
0
 10
46.3721
 20
-33.3939
 11
46.5867
 21
-33.4394
  0
LINE
  8
0
 10
46.5867
 20
-33.4394
 11
46.8018
 21
-33.4581
  0
LINE
  8
0
 10
46.8018
 20
-33.4581
 11
47.0174
 21
-33.4501
  0
LINE
  8
0
 10
47.0174
 20
-33.4501
 11
47.2291
 21
-33.4155
  0
LINE
  8
0
 10
47.2291
 20
-33.4155
 11
47.4328
 21
-33.3539
  0
LINE
  8
0
 10
47.4328
 20
-33.3539
 11
47.6284
 21
-33.2654
  0
LINE
  8
0
 10
47.6284
 20
-33.2654
 11
47.816
 21
-33.15
  0
LINE
  8
0
 10
47.816
 20
-33.15
 11
47.9957
 21
-33.0077
  0
LINE
  8
0
 10
47.9957
 20
-33.0077
 11
48.1673
 21
-32.8384
  0
LINE
  8
0
 10
48.1673
 20
-32.8384
 11
48.1857
 21
-32.8504
  0
LINE
  8
0
 10
48.1857
 20
-32.8504
 11
48.1183
 21
-33.0488
  0
LINE
  8
0
 10
48.1183
 20
-33.0488
 11
48.0761
 21
-33.2459
  0
LINE
  8
0
 10
48.0761
 20
-33.2459
 11
48.0589
 21
-33.4416
  0
LINE
  8
0
 10
48.0589
 20
-33.4416
 11
48.0668
 21
-33.636
  0
LINE
  8
0
 10
48.0668
 20
-33.636
 11
48.0998
 21
-33.8291
  0
LINE
  8
0
 10
48.0998
 20
-33.8291
 11
48.1579
 21
-34.0209
  0
LINE
  8
0
 10
48.1579
 20
-34.0209
 11
48.2381
 21
-34.2061
  0
LINE
  8
0
 10
48.2381
 20
-34.2061
 11
48.3372
 21
-34.3795
  0
LINE
  8
0
 10
48.3372
 20
-34.3795
 11
48.4552
 21
-34.5412
  0
LINE
  8
0
 10
48.4552
 20
-34.5412
 11
48.5923
 21
-34.6912
  0
LINE
  8
0
 10
48.5923
 20
-34.6912
 11
48.7482
 21
-34.8293
  0
LINE
  8
0
 10
48.7482
 20
-34.8293
 11
48.9232
 21
-34.9557
  0
LINE
  8
0
 10
48.9232
 20
-34.9557
 11
49.1789
 21
-35.101
  0
LINE
  8
0
 10
49.1789
 20
-35.101
 11
49.437
 21
-35.2044
  0
LINE
  8
0
 10
49.437
 20
-35.2044
 11
49.6975
 21
-35.2657
  0
LINE
  8
0
 10
49.6975
 20
-35.2657
 11
49.9604
 21
-35.2852
  0
LINE
  8
0
 10
49.9604
 20
-35.2852
 11
50.2257
 21
-35.2626
  0
LINE
  8
0
 10
46.9511
 20
-32.5538
 11
46.759
 21
-32.4986
  0
LINE
  8
0
 10
46.759
 20
-32.4986
 11
46.5632
 21
-32.4129
  0
LINE
  8
0
 10
46.5632
 20
-32.4129
 11
46.3639
 21
-32.2967
  0
LINE
  8
0
 10
46.3639
 20
-32.2967
 11
46.1441
 21
-32.1401
  0
LINE
  8
0
 10
46.1441
 20
-32.1401
 11
45.9577
 21
-31.9793
  0
LINE
  8
0
 10
45.9577
 20
-31.9793
 11
45.8045
 21
-31.8141
  0
LINE
  8
0
 10
45.8045
 20
-31.8141
 11
45.6845
 21
-31.6447
  0
LINE
  8
0
 10
45.6845
 20
-31.6447
 11
45.5978
 21
-31.471
  0
LINE
  8
0
 10
45.5978
 20
-31.471
 11
45.5444
 21
-31.293
  0
LINE
  8
0
 10
45.5444
 20
-31.293
 11
45.5227
 21
-31.1096
  0
LINE
  8
0
 10
45.5227
 20
-31.1096
 11
45.5314
 21
-30.9189
  0
LINE
  8
0
 10
45.5314
 20
-30.9189
 11
45.5706
 21
-30.7209
  0
LINE
  8
0
 10
45.5706
 20
-30.7209
 11
45.6403
 21
-30.5158
  0
LINE
  8
0
 10
45.6403
 20
-30.5158
 11
45.7405
 21
-30.3034
  0
LINE
  8
0
 10
45.7405
 20
-30.3034
 11
45.8711
 21
-30.0838
  0
LINE
  8
0
 10
45.8711
 20
-30.0838
 11
46.1782
 21
-29.695
  0
LINE
  8
0
 10
46.1782
 20
-29.695
 11
46.5108
 21
-29.43
  0
LINE
  8
0
 10
46.5108
 20
-29.43
 11
46.8687
 21
-29.2887
  0
LINE
  8
0
 10
46.8687
 20
-29.2887
 11
47.252
 21
-29.2712
  0
LINE
  8
0
 10
47.252
 20
-29.2712
 11
47.6607
 21
-29.3775
  0
LINE
  8
0
 10
47.6607
 20
-29.3775
 11
48.0947
 21
-29.6075
  0
LINE
  8
0
 10
48.0947
 20
-29.6075
 11
48.2735
 21
-29.7383
  0
LINE
  8
0
 10
48.2735
 20
-29.7383
 11
48.4258
 21
-29.8795
  0
LINE
  8
0
 10
48.4258
 20
-29.8795
 11
48.5516
 21
-30.0312
  0
LINE
  8
0
 10
48.5516
 20
-30.0312
 11
48.651
 21
-30.1935
  0
LINE
  8
0
 10
48.651
 20
-30.1935
 11
48.724
 21
-30.3663
  0
LINE
  8
0
 10
48.724
 20
-30.3663
 11
48.7705
 21
-30.5496
  0
LINE
  8
0
 10
48.7705
 20
-30.5496
 11
48.7899
 21
-30.74
  0
LINE
  8
0
 10
48.7899
 20
-30.74
 11
48.7811
 21
-30.9335
  0
LINE
  8
0
 10
48.7811
 20
-30.9335
 11
48.7441
 21
-31.1302
  0
LINE
  8
0
 10
48.7441
 20
-31.1302
 11
48.6788
 21
-31.3302
  0
LINE
  8
0
 10
48.6788
 20
-31.3302
 11
48.5853
 21
-31.5332
  0
LINE
  8
0
 10
48.5853
 20
-31.5332
 11
48.4636
 21
-31.7395
  0
LINE
  8
0
 10
48.4636
 20
-31.7395
 11
48.3205
 21
-31.94
  0
LINE
  8
0
 10
48.3205
 20
-31.94
 11
48.1707
 21
-32.1134
  0
LINE
  8
0
 10
48.1707
 20
-32.1134
 11
48.0144
 21
-32.2598
  0
LINE
  8
0
 10
48.0144
 20
-32.2598
 11
47.8514
 21
-32.3791
  0
LINE
  8
0
 10
47.8514
 20
-32.3791
 11
47.6819
 21
-32.4713
  0
LINE
  8
0
 10
47.6819
 20
-32.4713
 11
47.5058
 21
-32.5364
  0
LINE
  8
0
 10
47.5058
 20
-32.5364
 11
47.3245
 21
-32.5727
  0
LINE
  8
0
 10
47.3245
 20
-32.5727
 11
47.1396
 21
-32.5785
  0
LINE
  8
0
 10
47.1396
 20
-32.5785
 11
46.9511
 21
-32.5538
  0
LINE
  8
0
 10
49.7903
 20
-34.2602
 11
49.4343
 21
-34.0748
  0
LINE
  8
0
 10
49.4343
 20
-34.0748
 11
49.2492
 21
-33.9419
  0
LINE
  8
0
 10
49.2492
 20
-33.9419
 11
49.0935
 21
-33.8041
  0
LINE
  8
0
 10
49.0935
 20
-33.8041
 11
48.9673
 21
-33.6616
  0
LINE
  8
0
 10
48.9673
 20
-33.6616
 11
48.8705
 21
-33.5142
  0
LINE
  8
0
 10
48.8705
 20
-33.5142
 11
48.803
 21
-33.3621
  0
LINE
  8
0
 10
48.803
 20
-33.3621
 11
48.765
 21
-33.2051
  0
LINE
  8
0
 10
48.765
 20
-33.2051
 11
48.754
 21
-33.0432
  0
LINE
  8
0
 10
48.754
 20
-33.0432
 11
48.7679
 21
-32.8757
  0
LINE
  8
0
 10
48.7679
 20
-32.8757
 11
48.8067
 21
-32.7025
  0
LINE
  8
0
 10
48.8067
 20
-32.7025
 11
48.8704
 21
-32.5238
  0
LINE
  8
0
 10
48.8704
 20
-32.5238
 11
48.9591
 21
-32.3394
  0
LINE
  8
0
 10
48.9591
 20
-32.3394
 11
49.0726
 21
-32.1494
  0
LINE
  8
0
 10
49.0726
 20
-32.1494
 11
49.1998
 21
-31.9723
  0
LINE
  8
0
 10
49.1998
 20
-31.9723
 11
49.3339
 21
-31.82
  0
LINE
  8
0
 10
49.3339
 20
-31.82
 11
49.4748
 21
-31.6925
  0
LINE
  8
0
 10
49.4748
 20
-31.6925
 11
49.6225
 21
-31.5897
  0
LINE
  8
0
 10
49.6225
 20
-31.5897
 11
49.7771
 21
-31.5117
  0
LINE
  8
0
 10
49.7771
 20
-31.5117
 11
49.9385
 21
-31.4585
  0
LINE
  8
0
 10
49.9385
 20
-31.4585
 11
50.1048
 21
-31.4315
  0
LINE
  8
0
 10
50.1048
 20
-31.4315
 11
50.2745
 21
-31.4312
  0
LINE
  8
0
 10
50.2745
 20
-31.4312
 11
50.4475
 21
-31.4579
  0
LINE
  8
0
 10
50.4475
 20
-31.4579
 11
50.6239
 21
-31.5114
  0
LINE
  8
0
 10
50.6239
 20
-31.5114
 11
50.8036
 21
-31.5918
  0
LINE
  8
0
 10
50.8036
 20
-31.5918
 11
50.9867
 21
-31.699
  0
LINE
  8
0
 10
50.9867
 20
-31.699
 11
51.1553
 21
-31.8212
  0
LINE
  8
0
 10
51.1553
 20
-31.8212
 11
51.298
 21
-31.9504
  0
LINE
  8
0
 10
51.298
 20
-31.9504
 11
51.4147
 21
-32.0865
  0
LINE
  8
0
 10
51.4147
 20
-32.0865
 11
51.5054
 21
-32.2296
  0
LINE
  8
0
 10
51.5054
 20
-32.2296
 11
51.5701
 21
-32.3797
  0
LINE
  8
0
 10
51.5701
 20
-32.3797
 11
51.6087
 21
-32.5368
  0
LINE
  8
0
 10
51.6087
 20
-32.5368
 11
51.6216
 21
-32.7003
  0
LINE
  8
0
 10
51.6216
 20
-32.7003
 11
51.6093
 21
-32.8691
  0
LINE
  8
0
 10
51.6093
 20
-32.8691
 11
51.5717
 21
-33.0432
  0
LINE
  8
0
 10
51.5717
 20
-33.0432
 11
51.5088
 21
-33.2227
  0
LINE
  8
0
 10
51.5088
 20
-33.2227
 11
51.4207
 21
-33.4075
  0
LINE
  8
0
 10
51.4207
 20
-33.4075
 11
51.3074
 21
-33.5977
  0
LINE
  8
0
 10
51.3074
 20
-33.5977
 11
51.039
 21
-33.9421
  0
LINE
  8
0
 10
51.039
 20
-33.9421
 11
50.7531
 21
-34.1805
  0
LINE
  8
0
 10
50.7531
 20
-34.1805
 11
50.4496
 21
-34.313
  0
LINE
  8
0
 10
50.4496
 20
-34.313
 11
50.1287
 21
-34.3396
  0
LINE
  8
0
 10
50.1287
 20
-34.3396
 11
49.7903
 21
-34.2602
  0
LINE
  8
0
 10
-29.6663
 20
-49.6947
 11
-30.4674
 21
-49.1712
  0
LINE
  8
0
 10
-30.4674
 20
-49.1712
 11
-30.615
 21
-49.1881
  0
LINE
  8
0
 10
-30.615
 20
-49.1881
 11
-30.7572
 21
-49.1969
  0
LINE
  8
0
 10
-30.7572
 20
-49.1969
 11
-30.8941
 21
-49.1976
  0
LINE
  8
0
 10
-30.8941
 20
-49.1976
 11
-31.0257
 21
-49.1903
  0
LINE
  8
0
 10
-31.0257
 20
-49.1903
 11
-31.1519
 21
-49.1749
  0
LINE
  8
0
 10
-31.1519
 20
-49.1749
 11
-31.2728
 21
-49.1514
  0
LINE
  8
0
 10
-31.2728
 20
-49.1514
 11
-31.3906
 21
-49.1201
  0
LINE
  8
0
 10
-31.3906
 20
-49.1201
 11
-31.5072
 21
-49.0812
  0
LINE
  8
0
 10
-31.5072
 20
-49.0812
 11
-31.6225
 21
-49.0349
  0
LINE
  8
0
 10
-31.6225
 20
-49.0349
 11
-31.7365
 21
-48.9812
  0
LINE
  8
0
 10
-31.7365
 20
-48.9812
 11
-31.8492
 21
-48.92
  0
LINE
  8
0
 10
-31.8492
 20
-48.92
 11
-31.9606
 21
-48.8513
  0
LINE
  8
0
 10
-31.9606
 20
-48.8513
 11
-32.1589
 21
-48.7069
  0
LINE
  8
0
 10
-32.1589
 20
-48.7069
 11
-32.3291
 21
-48.5513
  0
LINE
  8
0
 10
-32.3291
 20
-48.5513
 11
-32.4712
 21
-48.3845
  0
LINE
  8
0
 10
-32.4712
 20
-48.3845
 11
-32.5851
 21
-48.2065
  0
LINE
  8
0
 10
-32.5851
 20
-48.2065
 11
-32.671
 21
-48.0172
  0
LINE
  8
0
 10
-32.671
 20
-48.0172
 11
-32.7288
 21
-47.8167
  0
LINE
  8
0
 10
-32.7288
 20
-47.8167
 11
-32.7583
 21
-47.611
  0
LINE
  8
0
 10
-32.7583
 20
-47.611
 11
-32.7585
 21
-47.4061
  0
LINE
  8
0
 10
-32.7585
 20
-47.4061
 11
-32.7294
 21
-47.202
  0
LINE
  8
0
 10
-32.7294
 20
-47.202
 11
-32.671
 21
-46.9986
  0
LINE
  8
0
 10
-32.671
 20
-46.9986
 11
-32.5833
 21
-46.796
  0
LINE
  8
0
 10
-32.5833
 20
-46.796
 11
-32.4663
 21
-46.5941
  0
LINE
  8
0
 10
-32.4663
 20
-46.5941
 11
-32.3098
 21
-46.3773
  0
LINE
  8
0
 10
-32.3098
 20
-46.3773
 11
-32.1434
 21
-46.1906
  0
LINE
  8
0
 10
-32.1434
 20
-46.1906
 11
-31.9671
 21
-46.034
  0
LINE
  8
0
 10
-31.9671
 20
-46.034
 11
-31.7808
 21
-45.9074
  0
LINE
  8
0
 10
-31.7808
 20
-45.9074
 11
-31.5846
 21
-45.8111
  0
LINE
  8
0
 10
-31.5846
 20
-45.8111
 11
-31.3785
 21
-45.7448
  0
LINE
  8
0
 10
-31.3785
 20
-45.7448
 11
-31.1667
 21
-45.7098
  0
LINE
  8
0
 10
-31.1667
 20
-45.7098
 11
-30.9535
 21
-45.7073
  0
LINE
  8
0
 10
-30.9535
 20
-45.7073
 11
-30.7387
 21
-45.7373
  0
LINE
  8
0
 10
-30.7387
 20
-45.7373
 11
-30.5225
 21
-45.7997
  0
LINE
  8
0
 10
-30.5225
 20
-45.7997
 11
-30.3049
 21
-45.8947
  0
LINE
  8
0
 10
-30.3049
 20
-45.8947
 11
-30.0857
 21
-46.0221
  0
LINE
  8
0
 10
-30.0857
 20
-46.0221
 11
-29.7676
 21
-46.2677
  0
LINE
  8
0
 10
-29.7676
 20
-46.2677
 11
-29.5293
 21
-46.5366
  0
LINE
  8
0
 10
-29.5293
 20
-46.5366
 11
-29.3708
 21
-46.8288
  0
LINE
  8
0
 10
-29.3708
 20
-46.8288
 11
-29.2921
 21
-47.1443
  0
LINE
  8
0
 10
-29.2921
 20
-47.1443
 11
-29.2932
 21
-47.4832
  0
LINE
  8
0
 10
-29.2932
 20
-47.4832
 11
-29.3741
 21
-47.8453
  0
LINE
  8
0
 10
-29.3741
 20
-47.8453
 11
-28.483
 21
-48.2914
  0
LINE
  8
0
 10
-28.483
 20
-48.2914
 11
-28.3874
 21
-48.0145
  0
LINE
  8
0
 10
-28.3874
 20
-48.0145
 11
-28.3271
 21
-47.7425
  0
LINE
  8
0
 10
-28.3271
 20
-47.7425
 11
-28.302
 21
-47.4752
  0
LINE
  8
0
 10
-28.302
 20
-47.4752
 11
-28.3122
 21
-47.2127
  0
LINE
  8
0
 10
-28.3122
 20
-47.2127
 11
-28.3576
 21
-46.9549
  0
LINE
  8
0
 10
-28.3576
 20
-46.9549
 11
-28.4383
 21
-46.702
  0
LINE
  8
0
 10
-28.4383
 20
-46.702
 11
-28.5535
 21
-46.4563
  0
LINE
  8
0
 10
-28.5535
 20
-46.4563
 11
-28.702
 21
-46.2197
  0
LINE
  8
0
 10
-28.702
 20
-46.2197
 11
-28.884
 21
-45.9924
  0
LINE
  8
0
 10
-28.884
 20
-45.9924
 11
-29.0993
 21
-45.7742
  0
LINE
  8
0
 10
-29.0993
 20
-45.7742
 11
-29.3481
 21
-45.5651
  0
LINE
  8
0
 10
-29.3481
 20
-45.5651
 11
-29.6302
 21
-45.3653
  0
LINE
  8
0
 10
-29.6302
 20
-45.3653
 11
-29.9844
 21
-45.1569
  0
LINE
  8
0
 10
-29.9844
 20
-45.1569
 11
-30.3338
 21
-44.9978
  0
LINE
  8
0
 10
-30.3338
 20
-44.9978
 11
-30.6783
 21
-44.888
  0
LINE
  8
0
 10
-30.6783
 20
-44.888
 11
-31.0181
 21
-44.8274
  0
LINE
  8
0
 10
-31.0181
 20
-44.8274
 11
-31.3529
 21
-44.8162
  0
LINE
  8
0
 10
-31.3529
 20
-44.8162
 11
-31.683
 21
-44.8542
  0
LINE
  8
0
 10
-31.683
 20
-44.8542
 11
-32.0021
 21
-44.9399
  0
LINE
  8
0
 10
-32.0021
 20
-44.9399
 11
-32.3034
 21
-45.0714
  0
LINE
  8
0
 10
-32.3034
 20
-45.0714
 11
-32.5868
 21
-45.2488
  0
LINE
  8
0
 10
-32.5868
 20
-45.2488
 11
-32.8523
 21
-45.4721
  0
LINE
  8
0
 10
-32.8523
 20
-45.4721
 11
-33.0999
 21
-45.7412
  0
LINE
  8
0
 10
-33.0999
 20
-45.7412
 11
-33.3297
 21
-46.0562
  0
LINE
  8
0
 10
-33.3297
 20
-46.0562
 11
-33.5021
 21
-46.3543
  0
LINE
  8
0
 10
-33.5021
 20
-46.3543
 11
-33.6311
 21
-46.654
  0
LINE
  8
0
 10
-33.6311
 20
-46.654
 11
-33.7165
 21
-46.9553
  0
LINE
  8
0
 10
-33.7165
 20
-46.9553
 11
-33.7584
 21
-47.2584
  0
LINE
  8
0
 10
-33.7584
 20
-47.2584
 11
-33.7569
 21
-47.5631
  0
LINE
  8
0
 10
-33.7569
 20
-47.5631
 11
-33.7118
 21
-47.8695
  0
LINE
  8
0
 10
-33.7118
 20
-47.8695
 11
-33.6247
 21
-48.1685
  0
LINE
  8
0
 10
-33.6247
 20
-48.1685
 11
-33.496
 21
-48.4505
  0
LINE
  8
0
 10
-33.496
 20
-48.4505
 11
-33.3258
 21
-48.7157
  0
LINE
  8
0
 10
-33.3258
 20
-48.7157
 11
-33.114
 21
-48.9641
  0
LINE
  8
0
 10
-33.114
 20
-48.9641
 11
-32.8607
 21
-49.1956
  0
LINE
  8
0
 10
-32.8607
 20
-49.1956
 11
-32.5659
 21
-49.4102
  0
LINE
  8
0
 10
-32.5659
 20
-49.4102
 11
-32.3015
 21
-49.5668
  0
LINE
  8
0
 10
-32.3015
 20
-49.5668
 11
-32.0366
 21
-49.6912
  0
LINE
  8
0
 10
-32.0366
 20
-49.6912
 11
-31.7714
 21
-49.7834
  0
LINE
  8
0
 10
-31.7714
 20
-49.7834
 11
-31.5057
 21
-49.8434
  0
LINE
  8
0
 10
-31.5057
 20
-49.8434
 11
-31.2397
 21
-49.8712
  0
LINE
  8
0
 10
-31.2397
 20
-49.8712
 11
-30.9733
 21
-49.8668
  0
LINE
  8
0
 10
-30.9733
 20
-49.8668
 11
-32.4491
 21
-51.8566
  0
LINE
  8
0
 10
-32.4491
 20
-51.8566
 11
-35.3489
 21
-49.9618
  0
LINE
  8
0
 10
-35.3489
 20
-49.9618
 11
-35.804
 21
-50.6583
  0
LINE
  8
0
 10
-35.804
 20
-50.6583
 11
-32.1574
 21
-53.041
  0
LINE
  8
0
 10
-32.1574
 20
-53.041
 11
-29.6663
 21
-49.6947
  0
LINE
  8
0
 10
27.0041
 20
-55.736
 11
27.3167
 21
-55.6612
  0
LINE
  8
0
 10
27.3167
 20
-55.6612
 11
27.6414
 21
-55.547
  0
LINE
  8
0
 10
27.6414
 20
-55.547
 11
27.978
 21
-55.3934
  0
LINE
  8
0
 10
27.978
 20
-55.3934
 11
28.2757
 21
-55.2263
  0
LINE
  8
0
 10
28.2757
 20
-55.2263
 11
28.5411
 21
-55.0427
  0
LINE
  8
0
 10
28.5411
 20
-55.0427
 11
28.7744
 21
-54.8425
  0
LINE
  8
0
 10
28.7744
 20
-54.8425
 11
28.9753
 21
-54.6257
  0
LINE
  8
0
 10
28.9753
 20
-54.6257
 11
29.1441
 21
-54.3924
  0
LINE
  8
0
 10
29.1441
 20
-54.3924
 11
29.2806
 21
-54.1425
  0
LINE
  8
0
 10
29.2806
 20
-54.1425
 11
29.3817
 21
-53.8816
  0
LINE
  8
0
 10
29.3817
 20
-53.8816
 11
29.4447
 21
-53.6142
  0
LINE
  8
0
 10
29.4447
 20
-53.6142
 11
29.4693
 21
-53.3404
  0
LINE
  8
0
 10
29.4693
 20
-53.3404
 11
29.4557
 21
-53.0602
  0
LINE
  8
0
 10
29.4557
 20
-53.0602
 11
29.4039
 21
-52.7736
  0
LINE
  8
0
 10
29.4039
 20
-52.7736
 11
29.3138
 21
-52.4805
  0
LINE
  8
0
 10
29.3138
 20
-52.4805
 11
28.4015
 21
-52.8569
  0
LINE
  8
0
 10
28.4015
 20
-52.8569
 11
28.4613
 21
-53.0438
  0
LINE
  8
0
 10
28.4613
 20
-53.0438
 11
28.4977
 21
-53.2256
  0
LINE
  8
0
 10
28.4977
 20
-53.2256
 11
28.5107
 21
-53.4022
  0
LINE
  8
0
 10
28.5107
 20
-53.4022
 11
28.5001
 21
-53.5736
  0
LINE
  8
0
 10
28.5001
 20
-53.5736
 11
28.4662
 21
-53.74
  0
LINE
  8
0
 10
28.4662
 20
-53.74
 11
28.4087
 21
-53.9012
  0
LINE
  8
0
 10
28.4087
 20
-53.9012
 11
28.3294
 21
-54.055
  0
LINE
  8
0
 10
28.3294
 20
-54.055
 11
28.2296
 21
-54.1985
  0
LINE
  8
0
 10
28.2296
 20
-54.1985
 11
28.1091
 21
-54.3318
  0
LINE
  8
0
 10
28.1091
 20
-54.3318
 11
27.9681
 21
-54.4549
  0
LINE
  8
0
 10
27.9681
 20
-54.4549
 11
27.8065
 21
-54.5676
  0
LINE
  8
0
 10
27.8065
 20
-54.5676
 11
27.6244
 21
-54.6701
  0
LINE
  8
0
 10
27.6244
 20
-54.6701
 11
27.4169
 21
-54.764
  0
LINE
  8
0
 10
27.4169
 20
-54.764
 11
27.2178
 21
-54.8314
  0
LINE
  8
0
 10
27.2178
 20
-54.8314
 11
27.0271
 21
-54.8723
  0
LINE
  8
0
 10
27.0271
 20
-54.8723
 11
26.8449
 21
-54.8867
  0
LINE
  8
0
 10
26.8449
 20
-54.8867
 11
26.6711
 21
-54.8746
  0
LINE
  8
0
 10
26.6711
 20
-54.8746
 11
26.5058
 21
-54.836
  0
LINE
  8
0
 10
26.5058
 20
-54.836
 11
26.3503
 21
-54.7736
  0
LINE
  8
0
 10
26.3503
 20
-54.7736
 11
26.2062
 21
-54.6894
  0
LINE
  8
0
 10
26.2062
 20
-54.6894
 11
26.0736
 21
-54.5832
  0
LINE
  8
0
 10
26.0736
 20
-54.5832
 11
25.9524
 21
-54.455
  0
LINE
  8
0
 10
25.9524
 20
-54.455
 11
25.8427
 21
-54.305
  0
LINE
  8
0
 10
25.8427
 20
-54.305
 11
25.7444
 21
-54.133
  0
LINE
  8
0
 10
25.7444
 20
-54.133
 11
25.6653
 21
-53.9495
  0
LINE
  8
0
 10
25.6653
 20
-53.9495
 11
25.615
 21
-53.7682
  0
LINE
  8
0
 10
25.615
 20
-53.7682
 11
25.5933
 21
-53.5892
  0
LINE
  8
0
 10
25.5933
 20
-53.5892
 11
25.6004
 21
-53.4124
  0
LINE
  8
0
 10
25.6004
 20
-53.4124
 11
25.6363
 21
-53.2379
  0
LINE
  8
0
 10
25.6363
 20
-53.2379
 11
25.7009
 21
-53.0657
  0
LINE
  8
0
 10
25.7009
 20
-53.0657
 11
25.7932
 21
-52.8988
  0
LINE
  8
0
 10
25.7932
 20
-52.8988
 11
25.9122
 21
-52.7402
  0
LINE
  8
0
 10
25.9122
 20
-52.7402
 11
26.058
 21
-52.59
  0
LINE
  8
0
 10
26.058
 20
-52.59
 11
26.2306
 21
-52.448
  0
LINE
  8
0
 10
26.2306
 20
-52.448
 11
26.4299
 21
-52.3144
  0
LINE
  8
0
 10
26.4299
 20
-52.3144
 11
26.6559
 21
-52.1891
  0
LINE
  8
0
 10
26.6559
 20
-52.1891
 11
27.1315
 21
-51.9485
  0
LINE
  8
0
 10
27.1315
 20
-51.9485
 11
26.7487
 21
-51.1918
  0
LINE
  8
0
 10
26.7487
 20
-51.1918
 11
26.2535
 21
-51.4424
  0
LINE
  8
0
 10
26.2535
 20
-51.4424
 11
25.9895
 21
-51.5648
  0
LINE
  8
0
 10
25.9895
 20
-51.5648
 11
25.7378
 21
-51.6589
  0
LINE
  8
0
 10
25.7378
 20
-51.6589
 11
25.4982
 21
-51.7245
  0
LINE
  8
0
 10
25.4982
 20
-51.7245
 11
25.2709
 21
-51.7617
  0
LINE
  8
0
 10
25.2709
 20
-51.7617
 11
25.0558
 21
-51.7705
  0
LINE
  8
0
 10
25.0558
 20
-51.7705
 11
24.8529
 21
-51.7509
  0
LINE
  8
0
 10
24.8529
 20
-51.7509
 11
24.6646
 21
-51.7042
  0
LINE
  8
0
 10
24.6646
 20
-51.7042
 11
24.493
 21
-51.6316
  0
LINE
  8
0
 10
24.493
 20
-51.6316
 11
24.3384
 21
-51.5331
  0
LINE
  8
0
 10
24.3384
 20
-51.5331
 11
24.2005
 21
-51.4086
  0
LINE
  8
0
 10
24.2005
 20
-51.4086
 11
24.0795
 21
-51.2583
  0
LINE
  8
0
 10
24.0795
 20
-51.2583
 11
23.9754
 21
-51.0821
  0
LINE
  8
0
 10
23.9754
 20
-51.0821
 11
23.8804
 21
-50.8683
  0
LINE
  8
0
 10
23.8804
 20
-50.8683
 11
23.8153
 21
-50.6618
  0
LINE
  8
0
 10
23.8153
 20
-50.6618
 11
23.7801
 21
-50.4625
  0
LINE
  8
0
 10
23.7801
 20
-50.4625
 11
23.7749
 21
-50.2705
  0
LINE
  8
0
 10
23.7749
 20
-50.2705
 11
23.7997
 21
-50.0858
  0
LINE
  8
0
 10
23.7997
 20
-50.0858
 11
23.8544
 21
-49.9083
  0
LINE
  8
0
 10
23.8544
 20
-49.9083
 11
23.9365
 21
-49.7401
  0
LINE
  8
0
 10
23.9365
 20
-49.7401
 11
24.0436
 21
-49.5822
  0
LINE
  8
0
 10
24.0436
 20
-49.5822
 11
24.1757
 21
-49.4347
  0
LINE
  8
0
 10
24.1757
 20
-49.4347
 11
24.3329
 21
-49.2976
  0
LINE
  8
0
 10
24.3329
 20
-49.2976
 11
24.5151
 21
-49.1708
  0
LINE
  8
0
 10
24.5151
 20
-49.1708
 11
24.7224
 21
-49.0544
  0
LINE
  8
0
 10
24.7224
 20
-49.0544
 11
25.1459
 21
-48.8825
  0
LINE
  8
0
 10
25.1459
 20
-48.8825
 11
25.5402
 21
-48.8099
  0
LINE
  8
0
 10
25.5402
 20
-48.8099
 11
25.9054
 21
-48.8369
  0
LINE
  8
0
 10
25.9054
 20
-48.8369
 11
26.2413
 21
-48.9633
  0
LINE
  8
0
 10
26.2413
 20
-48.9633
 11
26.5481
 21
-49.1891
  0
LINE
  8
0
 10
26.5481
 20
-49.1891
 11
26.8256
 21
-49.5144
  0
LINE
  8
0
 10
26.8256
 20
-49.5144
 11
27.6871
 21
-48.9754
  0
LINE
  8
0
 10
27.6871
 20
-48.9754
 11
27.4858
 21
-48.7089
  0
LINE
  8
0
 10
27.4858
 20
-48.7089
 11
27.2692
 21
-48.4814
  0
LINE
  8
0
 10
27.2692
 20
-48.4814
 11
27.0375
 21
-48.2929
  0
LINE
  8
0
 10
27.0375
 20
-48.2929
 11
26.7905
 21
-48.1435
  0
LINE
  8
0
 10
26.7905
 20
-48.1435
 11
26.5282
 21
-48.0331
  0
LINE
  8
0
 10
26.5282
 20
-48.0331
 11
26.2507
 21
-47.9617
  0
LINE
  8
0
 10
26.2507
 20
-47.9617
 11
25.9605
 21
-47.9288
  0
LINE
  8
0
 10
25.9605
 20
-47.9288
 11
25.6601
 21
-47.9337
  0
LINE
  8
0
 10
25.6601
 20
-47.9337
 11
25.3495
 21
-47.9764
  0
LINE
  8
0
 10
25.3495
 20
-47.9764
 11
25.0287
 21
-48.057
  0
LINE
  8
0
 10
25.0287
 20
-48.057
 11
24.6978
 21
-48.1754
  0
LINE
  8
0
 10
24.6978
 20
-48.1754
 11
24.3567
 21
-48.3317
  0
LINE
  8
0
 10
24.3567
 20
-48.3317
 11
24.0066
 21
-48.5271
  0
LINE
  8
0
 10
24.0066
 20
-48.5271
 11
23.6998
 21
-48.7374
  0
LINE
  8
0
 10
23.6998
 20
-48.7374
 11
23.4363
 21
-48.9624
  0
LINE
  8
0
 10
23.4363
 20
-48.9624
 11
23.2162
 21
-49.2021
  0
LINE
  8
0
 10
23.2162
 20
-49.2021
 11
23.0394
 21
-49.4566
  0
LINE
  8
0
 10
23.0394
 20
-49.4566
 11
22.9059
 21
-49.7259
  0
LINE
  8
0
 10
22.9059
 20
-49.7259
 11
22.8166
 21
-50.0062
  0
LINE
  8
0
 10
22.8166
 20
-50.0062
 11
22.7728
 21
-50.2935
  0
LINE
  8
0
 10
22.7728
 20
-50.2935
 11
22.7747
 21
-50.588
  0
LINE
  8
0
 10
22.7747
 20
-50.588
 11
22.8222
 21
-50.8894
  0
LINE
  8
0
 10
22.8222
 20
-50.8894
 11
22.9153
 21
-51.198
  0
LINE
  8
0
 10
22.9153
 20
-51.198
 11
23.054
 21
-51.5136
  0
LINE
  8
0
 10
23.054
 20
-51.5136
 11
23.1745
 21
-51.7223
  0
LINE
  8
0
 10
23.1745
 20
-51.7223
 11
23.3123
 21
-51.9063
  0
LINE
  8
0
 10
23.3123
 20
-51.9063
 11
23.4676
 21
-52.0658
  0
LINE
  8
0
 10
23.4676
 20
-52.0658
 11
23.6402
 21
-52.2007
  0
LINE
  8
0
 10
23.6402
 20
-52.2007
 11
23.8302
 21
-52.311
  0
LINE
  8
0
 10
23.8302
 20
-52.311
 11
24.0376
 21
-52.3966
  0
LINE
  8
0
 10
24.0376
 20
-52.3966
 11
24.258
 21
-52.4558
  0
LINE
  8
0
 10
24.258
 20
-52.4558
 11
24.4873
 21
-52.4859
  0
LINE
  8
0
 10
24.4873
 20
-52.4859
 11
24.7256
 21
-52.4867
  0
LINE
  8
0
 10
24.7256
 20
-52.4867
 11
24.9729
 21
-52.4583
  0
LINE
  8
0
 10
24.9729
 20
-52.4583
 11
25.2291
 21
-52.4008
  0
LINE
  8
0
 10
25.2291
 20
-52.4008
 11
25.4942
 21
-52.3141
  0
LINE
  8
0
 10
25.4942
 20
-52.3141
 11
25.5042
 21
-52.3337
  0
LINE
  8
0
 10
25.5042
 20
-52.3337
 11
25.3088
 21
-52.5027
  0
LINE
  8
0
 10
25.3088
 20
-52.5027
 11
25.1393
 21
-52.6771
  0
LINE
  8
0
 10
25.1393
 20
-52.6771
 11
24.9958
 21
-52.8568
  0
LINE
  8
0
 10
24.9958
 20
-52.8568
 11
24.8783
 21
-53.0419
  0
LINE
  8
0
 10
24.8783
 20
-53.0419
 11
24.7866
 21
-53.2324
  0
LINE
  8
0
 10
24.7866
 20
-53.2324
 11
24.7209
 21
-53.4282
  0
LINE
  8
0
 10
24.7209
 20
-53.4282
 11
24.6815
 21
-53.6285
  0
LINE
  8
0
 10
24.6815
 20
-53.6285
 11
24.6694
 21
-53.8321
  0
LINE
  8
0
 10
24.6694
 20
-53.8321
 11
24.6845
 21
-54.0389
  0
LINE
  8
0
 10
24.6845
 20
-54.0389
 11
24.7269
 21
-54.2491
  0
LINE
  8
0
 10
24.7269
 20
-54.2491
 11
24.7964
 21
-54.4625
  0
LINE
  8
0
 10
24.7964
 20
-54.4625
 11
24.8933
 21
-54.6791
  0
LINE
  8
0
 10
24.8933
 20
-54.6791
 11
25.048
 21
-54.9456
  0
LINE
  8
0
 10
25.048
 20
-54.9456
 11
25.2238
 21
-55.1751
  0
LINE
  8
0
 10
25.2238
 20
-55.1751
 11
25.4207
 21
-55.3677
  0
LINE
  8
0
 10
25.4207
 20
-55.3677
 11
25.6387
 21
-55.5233
  0
LINE
  8
0
 10
25.6387
 20
-55.5233
 11
25.8778
 21
-55.642
  0
LINE
  8
0
 10
25.8778
 20
-55.642
 11
26.138
 21
-55.7237
  0
LINE
  8
0
 10
26.138
 20
-55.7237
 11
26.4147
 21
-55.7673
  0
LINE
  8
0
 10
26.4147
 20
-55.7673
 11
26.7034
 21
-55.7713
  0
LINE
  8
0
 10
26.7034
 20
-55.7713
 11
27.0041
 21
-55.736
  0
LINE
  8
0
 10
-1.40292
 20
-60.693
 11
-1.35197
 21
-59.7704
  0
LINE
  8
0
 10
-1.35197
 20
-59.7704
 11
-3.14677
 21
-60.9142
  0
LINE
  8
0
 10
-3.14677
 20
-60.9142
 11
-2.82069
 21
-55.0101
  0
LINE
  8
0
 10
-2.82069
 20
-55.0101
 11
-0.871674
 21
-55.1178
  0
LINE
  8
0
 10
-0.871674
 20
-55.1178
 11
-0.82579
 21
-54.2871
  0
LINE
  8
0
 10
-0.82579
 20
-54.2871
 11
-5.62047
 21
-54.0223
  0
LINE
  8
0
 10
-5.62047
 20
-54.0223
 11
-5.66635
 21
-54.853
  0
LINE
  8
0
 10
-5.66635
 20
-54.853
 11
-3.80418
 21
-54.9558
  0
LINE
  8
0
 10
-3.80418
 20
-54.9558
 11
-4.18182
 21
-61.7934
  0
LINE
  8
0
 10
-4.18182
 20
-61.7934
 11
-3.28021
 21
-61.8432
  0
LINE
  8
0
 10
-3.28021
 20
-61.8432
 11
-1.40292
 21
-60.693
  0
ENDSEC
  0
SECTION
  2
OBJECTS
  0
DICTIONARY
  0
ENDSEC
  0
EOF
